<svg id="svg" version="1.1" width="100" height="100" viewBox="0 0 400 400" xmlns="http://www.w3.org/2000/svg" xmlns:xlink="http://www.w3.org/1999/xlink" ><g id="svgg"><path id="path0" d="M130.400 146.600 L 130.400 163.600 147.400 163.600 L 164.400 163.600 164.400 146.600 L 164.400 129.600 147.400 129.600 L 130.400 129.600 130.400 146.600 M174.400 146.600 L 174.400 163.600 205.400 163.600 L 236.400 163.600 236.400 168.000 L 236.400 172.400 253.400 172.400 L 270.400 172.400 270.400 151.000 L 270.400 129.600 222.400 129.600 L 174.400 129.600 174.400 146.600 M130.400 195.000 L 130.400 216.400 182.000 216.400 C 227.600 216.400,233.600 216.470,233.600 217.000 C 233.600 217.330,233.780 217.600,234.000 217.600 C 234.254 217.600,234.400 220.666,234.400 225.999 L 234.400 234.397 182.500 234.499 L 130.600 234.600 130.496 251.500 L 130.391 268.400 200.396 268.400 L 270.400 268.400 270.400 225.400 L 270.400 182.400 217.400 182.400 L 164.400 182.400 164.400 178.000 L 164.400 173.600 147.400 173.600 L 130.400 173.600 130.400 195.000 " stroke="none" fill="#cecece" fill-rule="evenodd"></path><path id="path1" d="M180.545 21.000 C 180.359 21.483,179.461 21.600,175.957 21.600 C 173.319 21.600,171.600 21.758,171.600 22.000 C 171.600 22.222,170.529 22.400,169.187 22.400 C 167.412 22.400,166.714 22.558,166.545 23.000 C 166.383 23.420,165.728 23.600,164.357 23.600 C 163.281 23.600,162.400 23.780,162.400 24.000 C 162.400 24.222,161.333 24.400,160.000 24.400 C 158.133 24.400,157.600 24.533,157.600 25.000 C 157.600 25.472,157.044 25.600,155.000 25.600 C 153.533 25.600,152.400 25.774,152.400 26.000 C 152.400 26.220,151.770 26.400,151.000 26.400 C 150.022 26.400,149.600 26.581,149.600 27.000 C 149.600 27.373,149.222 27.600,148.600 27.600 C 148.050 27.600,147.600 27.780,147.600 28.000 C 147.600 28.220,146.700 28.400,145.600 28.400 C 144.089 28.400,143.600 28.547,143.600 29.000 C 143.600 29.433,143.156 29.600,142.000 29.600 C 141.120 29.600,140.400 29.780,140.400 30.000 C 140.400 30.220,139.770 30.400,139.000 30.400 C 138.022 30.400,137.600 30.581,137.600 31.000 C 137.600 31.433,137.156 31.600,136.000 31.600 C 135.120 31.600,134.400 31.780,134.400 32.000 C 134.400 32.220,133.770 32.400,133.000 32.400 C 132.022 32.400,131.600 32.581,131.600 33.000 C 131.600 33.330,131.330 33.600,131.000 33.600 C 130.670 33.600,130.400 33.780,130.400 34.000 C 130.400 34.220,129.770 34.400,129.000 34.400 C 128.022 34.400,127.600 34.581,127.600 35.000 C 127.600 35.373,127.222 35.600,126.600 35.600 C 126.050 35.600,125.600 35.780,125.600 36.000 C 125.600 36.220,125.150 36.400,124.600 36.400 C 123.978 36.400,123.600 36.627,123.600 37.000 C 123.600 37.421,123.175 37.600,122.171 37.600 C 120.774 37.600,119.600 38.317,119.600 39.171 C 119.600 39.407,119.150 39.600,118.600 39.600 C 118.050 39.600,117.600 39.780,117.600 40.000 C 117.600 40.220,117.150 40.400,116.600 40.400 C 115.978 40.400,115.600 40.627,115.600 41.000 C 115.600 41.373,115.222 41.600,114.600 41.600 C 114.050 41.600,113.600 41.780,113.600 42.000 C 113.600 42.220,113.150 42.400,112.600 42.400 C 111.978 42.400,111.600 42.627,111.600 43.000 C 111.600 43.330,111.330 43.600,111.000 43.600 C 110.670 43.600,110.400 43.780,110.400 44.000 C 110.400 44.220,109.770 44.400,109.000 44.400 C 108.022 44.400,107.600 44.581,107.600 45.000 C 107.600 45.330,107.330 45.600,107.000 45.600 C 106.670 45.600,106.400 45.780,106.400 46.000 C 106.400 46.220,106.034 46.400,105.587 46.400 C 105.141 46.400,104.671 46.670,104.545 47.000 C 104.418 47.330,103.961 47.600,103.529 47.600 C 102.679 47.600,101.600 48.479,101.600 49.171 C 101.600 49.407,101.330 49.600,101.000 49.600 C 100.670 49.600,100.400 49.780,100.400 50.000 C 100.400 50.220,100.065 50.400,99.656 50.400 C 99.247 50.400,98.574 50.850,98.161 51.400 C 97.747 51.951,97.004 52.400,96.505 52.400 C 95.967 52.400,95.600 52.643,95.600 53.000 C 95.600 53.330,95.407 53.600,95.171 53.600 C 94.618 53.600,93.600 54.618,93.600 55.171 C 93.600 55.407,93.222 55.600,92.760 55.600 C 92.280 55.600,91.081 56.457,89.962 57.600 C 88.885 58.700,87.720 59.600,87.373 59.600 C 86.653 59.600,85.600 60.533,85.600 61.171 C 85.600 61.407,85.330 61.600,85.000 61.600 C 84.670 61.600,84.400 61.780,84.400 62.000 C 84.400 62.220,84.115 62.400,83.767 62.400 C 83.419 62.400,79.996 65.550,76.161 69.400 C 71.807 73.770,68.889 76.400,68.393 76.400 C 67.866 76.400,67.600 76.669,67.600 77.203 C 67.600 77.664,66.491 79.094,65.000 80.556 C 63.570 81.958,62.400 83.397,62.400 83.753 C 62.400 84.109,62.220 84.400,62.000 84.400 C 61.780 84.400,61.600 84.670,61.600 85.000 C 61.600 85.330,61.407 85.600,61.171 85.600 C 60.618 85.600,59.600 86.618,59.600 87.171 C 59.600 87.407,59.330 87.600,59.000 87.600 C 58.661 87.600,58.400 87.958,58.400 88.423 C 58.400 88.887,57.530 90.079,56.400 91.163 C 55.300 92.217,54.400 93.377,54.400 93.740 C 54.400 94.103,54.220 94.400,54.000 94.400 C 53.780 94.400,53.600 94.670,53.600 95.000 C 53.600 95.330,53.330 95.600,53.000 95.600 C 52.643 95.600,52.400 95.967,52.400 96.505 C 52.400 97.004,51.951 97.747,51.400 98.161 C 50.850 98.574,50.400 99.247,50.400 99.656 C 50.400 100.065,50.220 100.400,50.000 100.400 C 49.780 100.400,49.600 100.850,49.600 101.400 C 49.600 101.950,49.780 102.400,50.000 102.400 C 50.220 102.400,50.400 102.670,50.400 103.000 C 50.400 103.330,50.670 103.600,51.000 103.600 C 51.373 103.600,51.600 103.978,51.600 104.600 C 51.600 105.150,51.780 105.600,52.000 105.600 C 52.220 105.600,52.400 106.050,52.400 106.600 C 52.400 107.150,52.593 107.600,52.829 107.600 C 53.534 107.600,54.400 108.686,54.400 109.571 C 54.400 110.041,54.660 110.400,55.000 110.400 C 55.373 110.400,55.600 110.778,55.600 111.400 C 55.600 111.950,55.780 112.400,56.000 112.400 C 56.220 112.400,56.400 112.850,56.400 113.400 C 56.400 114.022,56.627 114.400,57.000 114.400 C 57.330 114.400,57.600 114.670,57.600 115.000 C 57.600 115.330,57.780 115.600,58.000 115.600 C 58.220 115.600,58.400 116.050,58.400 116.600 C 58.400 117.222,58.627 117.600,59.000 117.600 C 59.373 117.600,59.600 117.978,59.600 118.600 C 59.600 119.150,59.780 119.600,60.000 119.600 C 60.220 119.600,60.400 120.050,60.400 120.600 C 60.400 121.150,60.593 121.600,60.829 121.600 C 61.534 121.600,62.400 122.686,62.400 123.571 C 62.400 124.041,62.660 124.400,63.000 124.400 C 63.373 124.400,63.600 124.778,63.600 125.400 C 63.600 125.950,63.780 126.400,64.000 126.400 C 64.220 126.400,64.400 126.850,64.400 127.400 C 64.400 128.022,64.627 128.400,65.000 128.400 C 65.330 128.400,65.600 128.634,65.600 128.920 C 65.600 129.839,66.584 131.594,67.100 131.597 C 67.375 131.599,67.600 132.050,67.600 132.600 C 67.600 133.150,67.780 133.600,68.000 133.600 C 68.220 133.600,68.400 134.050,68.400 134.600 C 68.400 135.222,68.627 135.600,69.000 135.600 C 69.333 135.600,69.600 135.956,69.600 136.400 C 69.600 136.840,69.780 137.200,70.000 137.200 C 70.220 137.200,70.400 137.470,70.400 137.800 C 70.400 138.130,70.670 138.400,71.000 138.400 C 71.373 138.400,71.600 138.778,71.600 139.400 C 71.600 139.950,71.780 140.400,72.000 140.400 C 72.220 140.400,72.400 140.850,72.400 141.400 C 72.400 142.022,72.627 142.400,73.000 142.400 C 73.330 142.400,73.600 142.670,73.600 143.000 C 73.600 143.330,73.780 143.600,74.000 143.600 C 74.220 143.600,74.400 144.050,74.400 144.600 C 74.400 145.222,74.627 145.600,75.000 145.600 C 75.373 145.600,75.600 145.978,75.600 146.600 C 75.600 147.150,75.780 147.600,76.000 147.600 C 76.220 147.600,76.400 148.050,76.400 148.600 C 76.400 149.150,76.593 149.600,76.829 149.600 C 77.534 149.600,78.400 150.686,78.400 151.571 C 78.400 152.189,78.655 152.400,79.400 152.400 C 79.950 152.400,80.400 152.220,80.400 152.000 C 80.400 151.780,80.670 151.600,81.000 151.600 C 81.373 151.600,81.600 151.222,81.600 150.600 C 81.600 150.050,81.780 149.600,82.000 149.600 C 82.220 149.600,82.400 148.880,82.400 148.000 C 82.400 146.844,82.567 146.400,83.000 146.400 C 83.373 146.400,83.600 146.022,83.600 145.400 C 83.600 144.850,83.780 144.400,84.000 144.400 C 84.220 144.400,84.400 143.950,84.400 143.400 C 84.400 142.778,84.627 142.400,85.000 142.400 C 85.373 142.400,85.600 142.022,85.600 141.400 C 85.600 140.850,85.780 140.400,86.000 140.400 C 86.220 140.400,86.400 139.950,86.400 139.400 C 86.400 138.850,86.593 138.400,86.829 138.400 C 87.534 138.400,88.400 137.314,88.400 136.429 C 88.400 135.959,88.660 135.600,89.000 135.600 C 89.373 135.600,89.600 135.222,89.600 134.600 C 89.600 134.050,89.780 133.600,90.000 133.600 C 90.220 133.600,90.400 133.150,90.400 132.600 C 90.400 131.978,90.627 131.600,91.000 131.600 C 91.330 131.600,91.600 131.330,91.600 131.000 C 91.600 130.670,91.780 130.400,92.000 130.400 C 92.220 130.400,92.400 129.950,92.400 129.400 C 92.400 128.850,92.593 128.400,92.829 128.400 C 93.534 128.400,94.400 127.314,94.400 126.429 C 94.400 125.959,94.660 125.600,95.000 125.600 C 95.330 125.600,95.600 125.412,95.600 125.183 C 95.600 124.953,96.050 124.280,96.600 123.687 C 97.150 123.093,97.600 122.381,97.600 122.104 C 97.600 121.827,97.780 121.600,98.000 121.600 C 98.220 121.600,98.400 121.330,98.400 121.000 C 98.400 120.670,98.593 120.400,98.829 120.400 C 99.534 120.400,100.400 119.314,100.400 118.429 C 100.400 117.959,100.660 117.600,101.000 117.600 C 101.330 117.600,101.600 117.407,101.600 117.171 C 101.600 116.936,101.857 116.486,102.171 116.171 C 102.486 115.857,102.936 115.600,103.171 115.600 C 103.407 115.600,103.600 115.407,103.600 115.171 C 103.600 114.618,104.618 113.600,105.171 113.600 C 105.407 113.600,105.600 113.407,105.600 113.171 C 105.600 112.618,106.618 111.600,107.171 111.600 C 107.407 111.600,107.600 111.407,107.600 111.171 C 107.600 110.618,108.618 109.600,109.171 109.600 C 109.407 109.600,109.600 109.407,109.600 109.171 C 109.600 108.618,110.618 107.600,111.171 107.600 C 111.407 107.600,111.600 107.407,111.600 107.171 C 111.600 106.618,112.618 105.600,113.171 105.600 C 113.407 105.600,113.600 105.407,113.600 105.171 C 113.600 104.618,114.618 103.600,115.171 103.600 C 115.407 103.600,115.600 103.330,115.600 103.000 C 115.600 102.660,115.959 102.400,116.429 102.400 C 117.314 102.400,118.400 101.534,118.400 100.829 C 118.400 100.593,118.593 100.400,118.829 100.400 C 119.382 100.400,120.400 99.382,120.400 98.829 C 120.400 98.593,120.850 98.400,121.400 98.400 C 121.950 98.400,122.400 98.220,122.400 98.000 C 122.400 97.780,122.670 97.600,123.000 97.600 C 123.330 97.600,123.600 97.407,123.600 97.171 C 123.600 96.466,124.686 95.600,125.571 95.600 C 126.041 95.600,126.400 95.340,126.400 95.000 C 126.400 94.670,126.670 94.400,127.000 94.400 C 127.330 94.400,127.600 94.220,127.600 94.000 C 127.600 93.780,128.050 93.600,128.600 93.600 C 129.150 93.600,129.600 93.407,129.600 93.171 C 129.600 92.466,130.686 91.600,131.571 91.600 C 132.041 91.600,132.400 91.340,132.400 91.000 C 132.400 90.627,132.778 90.400,133.400 90.400 C 133.950 90.400,134.400 90.220,134.400 90.000 C 134.400 89.780,134.670 89.600,135.000 89.600 C 135.330 89.600,135.600 89.330,135.600 89.000 C 135.600 88.627,135.978 88.400,136.600 88.400 C 137.150 88.400,137.600 88.220,137.600 88.000 C 137.600 87.780,138.050 87.600,138.600 87.600 C 139.222 87.600,139.600 87.373,139.600 87.000 C 139.600 86.627,139.978 86.400,140.600 86.400 C 141.150 86.400,141.600 86.220,141.600 86.000 C 141.600 85.780,142.050 85.600,142.600 85.600 C 143.222 85.600,143.600 85.373,143.600 85.000 C 143.600 84.627,143.978 84.400,144.600 84.400 C 145.150 84.400,145.600 84.220,145.600 84.000 C 145.600 83.780,146.050 83.600,146.600 83.600 C 147.222 83.600,147.600 83.373,147.600 83.000 C 147.600 82.627,147.978 82.400,148.600 82.400 C 149.150 82.400,149.600 82.220,149.600 82.000 C 149.600 81.780,150.050 81.600,150.600 81.600 C 151.222 81.600,151.600 81.373,151.600 81.000 C 151.600 80.581,152.022 80.400,153.000 80.400 C 153.770 80.400,154.400 80.220,154.400 80.000 C 154.400 79.780,155.120 79.600,156.000 79.600 C 157.156 79.600,157.600 79.433,157.600 79.000 C 157.600 78.581,158.022 78.400,159.000 78.400 C 159.770 78.400,160.400 78.220,160.400 78.000 C 160.400 77.780,161.120 77.600,162.000 77.600 C 163.156 77.600,163.600 77.433,163.600 77.000 C 163.600 76.547,164.089 76.400,165.600 76.400 C 166.700 76.400,167.600 76.220,167.600 76.000 C 167.600 75.780,168.500 75.600,169.600 75.600 C 171.111 75.600,171.600 75.453,171.600 75.000 C 171.600 74.533,172.133 74.400,174.000 74.400 C 175.333 74.400,176.400 74.222,176.400 74.000 C 176.400 73.765,177.804 73.600,179.813 73.600 C 182.477 73.600,183.276 73.468,183.455 73.000 C 183.804 72.092,215.600 72.092,215.600 73.000 C 215.600 73.486,216.244 73.600,219.000 73.600 C 221.000 73.600,222.400 73.765,222.400 74.000 C 222.400 74.226,223.533 74.400,225.000 74.400 C 227.044 74.400,227.600 74.528,227.600 75.000 C 227.600 75.453,228.089 75.600,229.600 75.600 C 230.700 75.600,231.600 75.780,231.600 76.000 C 231.600 76.220,232.500 76.400,233.600 76.400 C 235.111 76.400,235.600 76.547,235.600 77.000 C 235.600 77.419,236.022 77.600,237.000 77.600 C 237.770 77.600,238.400 77.780,238.400 78.000 C 238.400 78.220,239.120 78.400,240.000 78.400 C 241.156 78.400,241.600 78.567,241.600 79.000 C 241.600 79.419,242.022 79.600,243.000 79.600 C 243.770 79.600,244.400 79.780,244.400 80.000 C 244.400 80.220,244.850 80.400,245.400 80.400 C 246.022 80.400,246.400 80.627,246.400 81.000 C 246.400 81.433,246.844 81.600,248.000 81.600 C 248.880 81.600,249.600 81.780,249.600 82.000 C 249.600 82.220,250.050 82.400,250.600 82.400 C 251.222 82.400,251.600 82.627,251.600 83.000 C 251.600 83.373,251.978 83.600,252.600 83.600 C 253.150 83.600,253.600 83.780,253.600 84.000 C 253.600 84.220,254.050 84.400,254.600 84.400 C 255.222 84.400,255.600 84.627,255.600 85.000 C 255.600 85.373,255.978 85.600,256.600 85.600 C 257.150 85.600,257.600 85.780,257.600 86.000 C 257.600 86.220,258.050 86.400,258.600 86.400 C 259.222 86.400,259.600 86.627,259.600 87.000 C 259.600 87.373,259.978 87.600,260.600 87.600 C 261.150 87.600,261.600 87.780,261.600 88.000 C 261.600 88.220,262.050 88.400,262.600 88.400 C 263.150 88.400,263.600 88.593,263.600 88.829 C 263.600 89.534,264.686 90.400,265.571 90.400 C 266.041 90.400,266.400 90.660,266.400 91.000 C 266.400 91.373,266.778 91.600,267.400 91.600 C 267.950 91.600,268.400 91.780,268.400 92.000 C 268.400 92.220,268.670 92.400,269.000 92.400 C 269.330 92.400,269.600 92.670,269.600 93.000 C 269.600 93.340,269.959 93.600,270.429 93.600 C 271.314 93.600,272.400 94.466,272.400 95.171 C 272.400 95.407,272.670 95.600,273.000 95.600 C 273.330 95.600,273.600 95.780,273.600 96.000 C 273.600 96.220,274.050 96.400,274.600 96.400 C 275.150 96.400,275.600 96.593,275.600 96.829 C 275.600 97.382,276.618 98.400,277.171 98.400 C 277.407 98.400,277.600 98.670,277.600 99.000 C 277.600 99.340,277.959 99.600,278.429 99.600 C 279.314 99.600,280.400 100.466,280.400 101.171 C 280.400 101.407,280.593 101.600,280.829 101.600 C 281.382 101.600,282.400 102.618,282.400 103.171 C 282.400 103.407,282.593 103.600,282.829 103.600 C 283.382 103.600,284.400 104.618,284.400 105.171 C 284.400 105.407,284.670 105.600,285.000 105.600 C 285.330 105.600,285.600 105.780,285.600 106.000 C 285.600 106.220,286.050 106.400,286.600 106.400 C 287.150 106.400,287.600 106.593,287.600 106.829 C 287.600 107.382,288.618 108.400,289.171 108.400 C 289.407 108.400,289.600 108.593,289.600 108.829 C 289.600 109.382,290.618 110.400,291.171 110.400 C 291.407 110.400,291.600 110.593,291.600 110.829 C 291.600 111.382,292.618 112.400,293.171 112.400 C 293.407 112.400,293.600 112.593,293.600 112.829 C 293.600 113.382,294.618 114.400,295.171 114.400 C 295.407 114.400,295.600 114.670,295.600 115.000 C 295.600 115.528,299.356 115.600,327.000 115.600 L 358.400 115.600 358.400 114.600 C 358.400 114.050,358.220 113.600,358.000 113.600 C 357.780 113.600,357.600 113.150,357.600 112.600 C 357.600 111.978,357.373 111.600,357.000 111.600 C 356.627 111.600,356.400 111.222,356.400 110.600 C 356.400 110.050,356.220 109.600,356.000 109.600 C 355.780 109.600,355.600 109.150,355.600 108.600 C 355.600 107.978,355.373 107.600,355.000 107.600 C 354.670 107.600,354.400 107.330,354.400 107.000 C 354.400 106.670,354.220 106.400,354.000 106.400 C 353.780 106.400,353.600 105.950,353.600 105.400 C 353.600 104.778,353.373 104.400,353.000 104.400 C 352.660 104.400,352.400 104.041,352.400 103.571 C 352.400 102.686,351.534 101.600,350.829 101.600 C 350.593 101.600,350.400 101.150,350.400 100.600 C 350.400 100.050,350.220 99.600,350.000 99.600 C 349.780 99.600,349.600 99.330,349.600 99.000 C 349.600 98.670,349.330 98.400,349.000 98.400 C 348.660 98.400,348.400 98.041,348.400 97.571 C 348.400 96.686,347.534 95.600,346.829 95.600 C 346.593 95.600,346.400 95.407,346.400 95.171 C 346.400 94.618,345.382 93.600,344.829 93.600 C 344.593 93.600,344.400 93.150,344.400 92.600 C 344.400 92.050,344.220 91.600,344.000 91.600 C 343.780 91.600,343.600 91.330,343.600 91.000 C 343.600 90.670,343.330 90.400,343.000 90.400 C 342.660 90.400,342.400 90.041,342.400 89.571 C 342.400 88.686,341.534 87.600,340.829 87.600 C 340.593 87.600,340.400 87.330,340.400 87.000 C 340.400 86.670,340.220 86.400,340.000 86.400 C 339.780 86.400,339.600 85.950,339.600 85.400 C 339.600 84.850,339.407 84.400,339.171 84.400 C 338.618 84.400,337.600 83.382,337.600 82.829 C 337.600 82.593,337.407 82.400,337.171 82.400 C 336.618 82.400,335.600 81.382,335.600 80.829 C 335.600 80.593,335.407 80.400,335.171 80.400 C 334.618 80.400,333.600 79.382,333.600 78.829 C 333.600 78.593,333.407 78.400,333.171 78.400 C 332.618 78.400,331.600 77.382,331.600 76.829 C 331.600 76.593,331.330 76.400,331.000 76.400 C 330.660 76.400,330.400 76.041,330.400 75.571 C 330.400 74.686,329.534 73.600,328.829 73.600 C 328.593 73.600,328.400 73.407,328.400 73.171 C 328.400 72.618,327.382 71.600,326.829 71.600 C 326.593 71.600,326.400 71.330,326.400 71.000 C 326.400 70.660,326.041 70.400,325.571 70.400 C 324.686 70.400,323.600 69.534,323.600 68.829 C 323.600 68.593,323.407 68.400,323.171 68.400 C 322.618 68.400,321.600 67.382,321.600 66.829 C 321.600 66.593,321.407 66.400,321.171 66.400 C 320.618 66.400,319.600 65.382,319.600 64.829 C 319.600 64.593,319.407 64.400,319.171 64.400 C 318.618 64.400,317.600 63.382,317.600 62.829 C 317.600 62.593,317.330 62.400,317.000 62.400 C 316.670 62.400,316.400 62.220,316.400 62.000 C 316.400 61.780,315.950 61.600,315.400 61.600 C 314.850 61.600,314.400 61.407,314.400 61.171 C 314.400 60.618,313.382 59.600,312.829 59.600 C 312.593 59.600,312.400 59.407,312.400 59.171 C 312.400 58.466,311.314 57.600,310.429 57.600 C 309.959 57.600,309.600 57.340,309.600 57.000 C 309.600 56.670,309.407 56.400,309.171 56.400 C 308.618 56.400,307.600 55.382,307.600 54.829 C 307.600 54.593,307.330 54.400,307.000 54.400 C 306.670 54.400,306.400 54.220,306.400 54.000 C 306.400 53.780,305.950 53.600,305.400 53.600 C 304.850 53.600,304.400 53.407,304.400 53.171 C 304.400 52.466,303.314 51.600,302.429 51.600 C 301.959 51.600,301.600 51.340,301.600 51.000 C 301.600 50.670,301.330 50.400,301.000 50.400 C 300.670 50.400,300.400 50.220,300.400 50.000 C 300.400 49.780,299.950 49.600,299.400 49.600 C 298.850 49.600,298.400 49.407,298.400 49.171 C 298.400 48.466,297.314 47.600,296.429 47.600 C 295.959 47.600,295.600 47.340,295.600 47.000 C 295.600 46.627,295.222 46.400,294.600 46.400 C 294.050 46.400,293.600 46.220,293.600 46.000 C 293.600 45.780,293.330 45.600,293.000 45.600 C 292.670 45.600,292.400 45.330,292.400 45.000 C 292.400 44.627,292.022 44.400,291.400 44.400 C 290.850 44.400,290.400 44.220,290.400 44.000 C 290.400 43.780,289.950 43.600,289.400 43.600 C 288.778 43.600,288.400 43.373,288.400 43.000 C 288.400 42.627,288.022 42.400,287.400 42.400 C 286.850 42.400,286.400 42.220,286.400 42.000 C 286.400 41.780,285.950 41.600,285.400 41.600 C 284.778 41.600,284.400 41.373,284.400 41.000 C 284.400 40.660,284.041 40.400,283.571 40.400 C 282.686 40.400,281.600 39.534,281.600 38.829 C 281.600 38.593,280.880 38.400,280.000 38.400 C 279.120 38.400,278.400 38.220,278.400 38.000 C 278.400 37.780,277.950 37.600,277.400 37.600 C 276.778 37.600,276.400 37.373,276.400 37.000 C 276.400 36.627,276.022 36.400,275.400 36.400 C 274.850 36.400,274.400 36.220,274.400 36.000 C 274.400 35.780,273.950 35.600,273.400 35.600 C 272.778 35.600,272.400 35.373,272.400 35.000 C 272.400 34.627,272.022 34.400,271.400 34.400 C 270.850 34.400,270.400 34.220,270.400 34.000 C 270.400 33.780,269.950 33.600,269.400 33.600 C 268.778 33.600,268.400 33.373,268.400 33.000 C 268.400 32.581,267.978 32.400,267.000 32.400 C 266.230 32.400,265.600 32.220,265.600 32.000 C 265.600 31.780,264.880 31.600,264.000 31.600 C 262.844 31.600,262.400 31.433,262.400 31.000 C 262.400 30.627,262.022 30.400,261.400 30.400 C 260.850 30.400,260.400 30.220,260.400 30.000 C 260.400 29.780,259.770 29.600,259.000 29.600 C 258.022 29.600,257.600 29.419,257.600 29.000 C 257.600 28.528,257.044 28.400,255.000 28.400 C 253.533 28.400,252.400 28.226,252.400 28.000 C 252.400 27.780,251.950 27.600,251.400 27.600 C 250.778 27.600,250.400 27.373,250.400 27.000 C 250.400 26.547,249.911 26.400,248.400 26.400 C 247.300 26.400,246.400 26.220,246.400 26.000 C 246.400 25.780,245.500 25.600,244.400 25.600 C 242.889 25.600,242.400 25.453,242.400 25.000 C 242.400 24.547,241.911 24.400,240.400 24.400 C 239.300 24.400,238.400 24.220,238.400 24.000 C 238.400 23.778,237.333 23.600,236.000 23.600 C 234.133 23.600,233.600 23.467,233.600 23.000 C 233.600 22.520,233.000 22.400,230.600 22.400 C 228.867 22.400,227.600 22.231,227.600 22.000 C 227.600 21.757,225.800 21.600,223.000 21.600 C 219.178 21.600,218.400 21.499,218.400 21.000 C 218.400 20.475,216.043 20.400,199.587 20.400 C 183.234 20.400,180.745 20.478,180.545 21.000 M46.100 106.198 C 45.825 106.511,45.600 106.954,45.600 107.183 C 45.600 107.412,45.330 107.600,45.000 107.600 C 44.627 107.600,44.400 107.978,44.400 108.600 C 44.400 109.150,44.220 109.600,44.000 109.600 C 43.780 109.600,43.600 110.050,43.600 110.600 C 43.600 111.222,43.373 111.600,43.000 111.600 C 42.627 111.600,42.400 111.978,42.400 112.600 C 42.400 113.150,42.220 113.600,42.000 113.600 C 41.780 113.600,41.600 114.050,41.600 114.600 C 41.600 115.150,41.407 115.600,41.171 115.600 C 40.479 115.600,39.600 116.679,39.600 117.529 C 39.600 117.961,39.330 118.418,39.000 118.545 C 38.623 118.689,38.400 119.301,38.400 120.187 C 38.400 120.964,38.220 121.600,38.000 121.600 C 37.780 121.600,37.600 122.050,37.600 122.600 C 37.600 123.222,37.373 123.600,37.000 123.600 C 36.627 123.600,36.400 123.978,36.400 124.600 C 36.400 125.150,36.220 125.600,36.000 125.600 C 35.780 125.600,35.600 126.050,35.600 126.600 C 35.600 127.222,35.373 127.600,35.000 127.600 C 34.627 127.600,34.400 127.978,34.400 128.600 C 34.400 129.150,34.220 129.600,34.000 129.600 C 33.780 129.600,33.600 130.211,33.600 130.957 C 33.600 131.795,33.370 132.403,33.000 132.545 C 32.670 132.671,32.400 133.141,32.400 133.587 C 32.400 134.034,32.220 134.400,32.000 134.400 C 31.780 134.400,31.600 135.120,31.600 136.000 C 31.600 137.156,31.433 137.600,31.000 137.600 C 30.581 137.600,30.400 138.022,30.400 139.000 C 30.400 139.770,30.220 140.400,30.000 140.400 C 29.780 140.400,29.600 141.120,29.600 142.000 C 29.600 143.156,29.433 143.600,29.000 143.600 C 28.583 143.600,28.400 144.020,28.400 144.976 C 28.400 145.733,28.220 146.464,28.000 146.600 C 27.780 146.736,27.600 147.467,27.600 148.224 C 27.600 149.180,27.417 149.600,27.000 149.600 C 26.547 149.600,26.400 150.089,26.400 151.600 C 26.400 152.700,26.220 153.600,26.000 153.600 C 25.779 153.600,25.600 154.652,25.600 155.957 C 25.600 157.684,25.439 158.376,25.000 158.545 C 24.589 158.702,24.400 159.345,24.400 160.587 C 24.400 161.584,24.220 162.400,24.000 162.400 C 23.780 162.400,23.600 163.281,23.600 164.357 C 23.600 165.728,23.420 166.383,23.000 166.545 C 22.558 166.714,22.400 167.412,22.400 169.187 C 22.400 170.529,22.222 171.600,22.000 171.600 C 21.755 171.600,21.600 173.533,21.600 176.600 C 21.600 180.778,21.501 181.600,21.000 181.600 C 20.475 181.600,20.400 183.978,20.400 200.600 C 20.400 217.222,20.475 219.600,21.000 219.600 C 21.497 219.600,21.600 220.356,21.600 224.000 C 21.600 226.667,21.758 228.400,22.000 228.400 C 22.220 228.400,22.400 229.300,22.400 230.400 C 22.400 231.911,22.547 232.400,23.000 232.400 C 23.480 232.400,23.600 233.000,23.600 235.400 C 23.600 237.133,23.769 238.400,24.000 238.400 C 24.226 238.400,24.400 239.533,24.400 241.000 C 24.400 243.044,24.528 243.600,25.000 243.600 C 25.419 243.600,25.600 244.022,25.600 245.000 C 25.600 245.770,25.780 246.400,26.000 246.400 C 26.220 246.400,26.400 247.300,26.400 248.400 C 26.400 249.911,26.547 250.400,27.000 250.400 C 27.433 250.400,27.600 250.844,27.600 252.000 C 27.600 252.880,27.780 253.600,28.000 253.600 C 28.220 253.600,28.400 254.307,28.400 255.171 C 28.400 256.036,28.670 257.013,29.000 257.343 C 29.330 257.673,29.600 258.496,29.600 259.171 C 29.600 259.847,29.780 260.400,30.000 260.400 C 30.220 260.400,30.400 260.927,30.400 261.571 C 30.400 262.216,30.670 263.013,31.000 263.343 C 31.330 263.673,31.600 264.496,31.600 265.171 C 31.600 265.847,31.780 266.400,32.000 266.400 C 32.220 266.400,32.400 266.850,32.400 267.400 C 32.400 268.022,32.627 268.400,33.000 268.400 C 33.373 268.400,33.600 268.778,33.600 269.400 C 33.600 269.950,33.780 270.400,34.000 270.400 C 34.220 270.400,34.400 270.850,34.400 271.400 C 34.400 272.022,34.627 272.400,35.000 272.400 C 35.373 272.400,35.600 272.778,35.600 273.400 C 35.600 273.950,35.780 274.400,36.000 274.400 C 36.220 274.400,36.400 274.927,36.400 275.571 C 36.400 276.216,36.670 277.013,37.000 277.343 C 37.330 277.673,37.600 278.316,37.600 278.771 C 37.600 279.227,37.780 279.600,38.000 279.600 C 38.220 279.600,38.400 280.050,38.400 280.600 C 38.400 281.222,38.627 281.600,39.000 281.600 C 39.340 281.600,39.600 281.959,39.600 282.429 C 39.600 283.314,40.466 284.400,41.171 284.400 C 41.407 284.400,41.600 284.850,41.600 285.400 C 41.600 285.950,41.780 286.400,42.000 286.400 C 42.220 286.400,42.400 286.850,42.400 287.400 C 42.400 288.022,42.627 288.400,43.000 288.400 C 43.373 288.400,43.600 288.778,43.600 289.400 C 43.600 289.950,43.780 290.400,44.000 290.400 C 44.220 290.400,44.400 290.850,44.400 291.400 C 44.400 292.022,44.627 292.400,45.000 292.400 C 45.330 292.400,45.600 292.670,45.600 293.000 C 45.600 293.330,45.780 293.600,46.000 293.600 C 46.220 293.600,46.400 294.050,46.400 294.600 C 46.400 295.222,46.627 295.600,47.000 295.600 C 47.340 295.600,47.600 295.959,47.600 296.429 C 47.600 297.314,48.466 298.400,49.171 298.400 C 49.407 298.400,49.600 298.850,49.600 299.400 C 49.600 299.950,49.780 300.400,50.000 300.400 C 50.220 300.400,50.400 300.670,50.400 301.000 C 50.400 301.330,50.670 301.600,51.000 301.600 C 51.340 301.600,51.600 301.959,51.600 302.429 C 51.600 303.314,52.466 304.400,53.171 304.400 C 53.407 304.400,53.600 304.670,53.600 305.000 C 53.600 305.330,53.780 305.600,54.000 305.600 C 54.220 305.600,54.400 306.050,54.400 306.600 C 54.400 307.150,54.593 307.600,54.829 307.600 C 55.382 307.600,56.400 308.618,56.400 309.171 C 56.400 309.407,56.670 309.600,57.000 309.600 C 57.340 309.600,57.600 309.959,57.600 310.429 C 57.600 311.314,58.466 312.400,59.171 312.400 C 59.407 312.400,59.600 312.593,59.600 312.829 C 59.600 313.382,60.618 314.400,61.171 314.400 C 61.407 314.400,61.600 314.850,61.600 315.400 C 61.600 315.950,61.780 316.400,62.000 316.400 C 62.220 316.400,62.400 316.670,62.400 317.000 C 62.400 317.330,62.593 317.600,62.829 317.600 C 63.382 317.600,64.400 318.618,64.400 319.171 C 64.400 319.407,64.593 319.600,64.829 319.600 C 65.382 319.600,66.400 320.618,66.400 321.171 C 66.400 321.407,66.670 321.600,67.000 321.600 C 67.330 321.600,67.606 321.915,67.613 322.300 C 67.628 323.165,68.529 324.400,69.144 324.400 C 69.395 324.400,69.600 324.593,69.600 324.829 C 69.600 325.382,70.618 326.400,71.171 326.400 C 71.407 326.400,71.600 326.593,71.600 326.829 C 71.600 327.382,72.618 328.400,73.171 328.400 C 73.407 328.400,73.600 328.593,73.600 328.829 C 73.600 329.362,74.610 330.400,75.129 330.400 C 75.341 330.400,75.618 330.670,75.745 331.000 C 75.871 331.330,76.263 331.600,76.616 331.600 C 77.345 331.600,78.400 332.529,78.400 333.171 C 78.400 333.407,78.593 333.600,78.829 333.600 C 79.382 333.600,80.400 334.618,80.400 335.171 C 80.400 335.407,80.593 335.600,80.829 335.600 C 81.382 335.600,82.400 336.618,82.400 337.171 C 82.400 337.407,82.593 337.600,82.829 337.600 C 83.382 337.600,84.400 338.618,84.400 339.171 C 84.400 339.407,84.850 339.600,85.400 339.600 C 85.950 339.600,86.400 339.780,86.400 340.000 C 86.400 340.220,86.670 340.400,87.000 340.400 C 87.330 340.400,87.600 340.593,87.600 340.829 C 87.600 341.534,88.686 342.400,89.571 342.400 C 90.041 342.400,90.400 342.660,90.400 343.000 C 90.400 343.330,90.604 343.600,90.854 343.600 C 91.104 343.600,91.725 344.050,92.235 344.600 C 92.745 345.150,93.440 345.600,93.781 345.600 C 94.121 345.600,94.400 345.780,94.400 346.000 C 94.400 346.220,94.670 346.400,95.000 346.400 C 95.330 346.400,95.600 346.593,95.600 346.829 C 95.600 347.534,96.686 348.400,97.571 348.400 C 98.041 348.400,98.400 348.660,98.400 349.000 C 98.400 349.330,98.670 349.600,99.000 349.600 C 99.330 349.600,99.600 349.780,99.600 350.000 C 99.600 350.220,100.050 350.400,100.600 350.400 C 101.150 350.400,101.600 350.593,101.600 350.829 C 101.600 351.534,102.686 352.400,103.571 352.400 C 104.041 352.400,104.400 352.660,104.400 353.000 C 104.400 353.373,104.778 353.600,105.400 353.600 C 105.950 353.600,106.400 353.780,106.400 354.000 C 106.400 354.220,106.670 354.400,107.000 354.400 C 107.330 354.400,107.600 354.670,107.600 355.000 C 107.600 355.373,107.978 355.600,108.600 355.600 C 109.150 355.600,109.600 355.780,109.600 356.000 C 109.600 356.220,110.050 356.400,110.600 356.400 C 111.222 356.400,111.600 356.627,111.600 357.000 C 111.600 357.373,111.978 357.600,112.600 357.600 C 113.150 357.600,113.600 357.780,113.600 358.000 C 113.600 358.220,114.050 358.400,114.600 358.400 C 115.150 358.400,115.600 358.593,115.600 358.829 C 115.600 359.683,116.774 360.400,118.171 360.400 C 119.175 360.400,119.600 360.579,119.600 361.000 C 119.600 361.340,119.959 361.600,120.429 361.600 C 121.314 361.600,122.400 362.466,122.400 363.171 C 122.400 363.407,123.120 363.600,124.000 363.600 C 124.880 363.600,125.600 363.780,125.600 364.000 C 125.600 364.220,126.050 364.400,126.600 364.400 C 127.222 364.400,127.600 364.627,127.600 365.000 C 127.600 365.373,127.978 365.600,128.600 365.600 C 129.150 365.600,129.600 365.780,129.600 366.000 C 129.600 366.220,130.050 366.400,130.600 366.400 C 131.222 366.400,131.600 366.627,131.600 367.000 C 131.600 367.373,131.978 367.600,132.600 367.600 C 133.150 367.600,133.600 367.780,133.600 368.000 C 133.600 368.220,134.230 368.400,135.000 368.400 C 135.978 368.400,136.400 368.581,136.400 369.000 C 136.400 369.433,136.844 369.600,138.000 369.600 C 138.880 369.600,139.600 369.780,139.600 370.000 C 139.600 370.220,140.230 370.400,141.000 370.400 C 141.978 370.400,142.400 370.581,142.400 371.000 C 142.400 371.433,142.844 371.600,144.000 371.600 C 144.880 371.600,145.600 371.780,145.600 372.000 C 145.600 372.220,146.230 372.400,147.000 372.400 C 147.978 372.400,148.400 372.581,148.400 373.000 C 148.400 373.472,148.956 373.600,151.000 373.600 C 152.467 373.600,153.600 373.774,153.600 374.000 C 153.600 374.220,154.500 374.400,155.600 374.400 C 157.111 374.400,157.600 374.547,157.600 375.000 C 157.600 375.467,158.133 375.600,160.000 375.600 C 161.333 375.600,162.400 375.778,162.400 376.000 C 162.400 376.220,163.300 376.400,164.400 376.400 C 165.911 376.400,166.400 376.547,166.400 377.000 C 166.400 377.472,166.956 377.600,169.000 377.600 C 170.467 377.600,171.600 377.774,171.600 378.000 C 171.600 378.245,173.533 378.400,176.600 378.400 C 180.778 378.400,181.600 378.499,181.600 379.000 C 181.600 379.493,182.311 379.600,185.600 379.600 L 189.600 379.600 189.600 378.600 C 189.600 378.050,189.780 377.600,190.000 377.600 C 190.220 377.600,190.400 377.150,190.400 376.600 C 190.400 375.978,190.627 375.600,191.000 375.600 C 191.373 375.600,191.600 375.222,191.600 374.600 C 191.600 374.050,191.780 373.600,192.000 373.600 C 192.220 373.600,192.400 373.330,192.400 373.000 C 192.400 372.670,192.670 372.400,193.000 372.400 C 193.373 372.400,193.600 372.022,193.600 371.400 C 193.600 370.850,193.780 370.400,194.000 370.400 C 194.220 370.400,194.400 369.950,194.400 369.400 C 194.400 368.778,194.627 368.400,195.000 368.400 C 195.330 368.400,195.600 368.130,195.600 367.800 C 195.600 367.470,195.780 367.200,196.000 367.200 C 196.220 367.200,196.400 366.840,196.400 366.400 C 196.400 365.956,196.667 365.600,197.000 365.600 C 197.373 365.600,197.600 365.222,197.600 364.600 C 197.600 364.050,197.780 363.600,198.000 363.600 C 198.220 363.600,198.400 363.150,198.400 362.600 C 198.400 361.978,198.627 361.600,199.000 361.600 C 199.330 361.600,199.600 361.330,199.600 361.000 C 199.600 360.670,199.780 360.400,200.000 360.400 C 200.220 360.400,200.400 359.950,200.400 359.400 C 200.400 358.778,200.627 358.400,201.000 358.400 C 201.340 358.400,201.600 358.041,201.600 357.571 C 201.600 356.686,202.466 355.600,203.171 355.600 C 203.407 355.600,203.600 355.150,203.600 354.600 C 203.600 354.050,203.780 353.600,204.000 353.600 C 204.220 353.600,204.400 353.150,204.400 352.600 C 204.400 351.978,204.627 351.600,205.000 351.600 C 205.373 351.600,205.600 351.222,205.600 350.600 C 205.600 350.050,205.780 349.600,206.000 349.600 C 206.220 349.600,206.400 349.330,206.400 349.000 C 206.400 348.670,206.670 348.400,207.000 348.400 C 207.373 348.400,207.600 348.022,207.600 347.400 C 207.600 346.850,207.780 346.400,208.000 346.400 C 208.220 346.400,208.400 345.950,208.400 345.400 C 208.400 344.850,208.593 344.400,208.829 344.400 C 209.534 344.400,210.400 343.314,210.400 342.429 C 210.400 341.959,210.660 341.600,211.000 341.600 C 211.373 341.600,211.600 341.222,211.600 340.600 C 211.600 340.050,211.780 339.600,212.000 339.600 C 212.220 339.600,212.400 339.150,212.400 338.600 C 212.400 337.978,212.627 337.600,213.000 337.600 C 213.330 337.600,213.600 337.330,213.600 337.000 C 213.600 336.670,213.780 336.400,214.000 336.400 C 214.220 336.400,214.400 335.950,214.400 335.400 C 214.400 334.778,214.627 334.400,215.000 334.400 C 215.340 334.400,215.600 334.041,215.600 333.571 C 215.600 332.686,216.466 331.600,217.171 331.600 C 217.407 331.600,217.600 331.150,217.600 330.600 C 217.600 330.050,217.780 329.600,218.000 329.600 C 218.220 329.600,218.400 328.880,218.400 328.000 C 218.400 326.290,216.318 325.506,215.745 327.000 C 215.549 327.509,214.150 327.600,206.557 327.600 C 200.852 327.600,197.600 327.745,197.600 328.000 C 197.600 328.233,196.267 328.400,194.400 328.400 C 192.533 328.400,191.200 328.233,191.200 328.000 C 191.200 327.756,189.333 327.600,186.400 327.600 C 182.400 327.600,181.600 327.500,181.600 327.000 C 181.600 326.520,181.000 326.400,178.600 326.400 C 176.867 326.400,175.600 326.231,175.600 326.000 C 175.600 325.774,174.467 325.600,173.000 325.600 C 170.956 325.600,170.400 325.472,170.400 325.000 C 170.400 324.547,169.911 324.400,168.400 324.400 C 167.300 324.400,166.400 324.220,166.400 324.000 C 166.400 323.780,165.500 323.600,164.400 323.600 C 162.889 323.600,162.400 323.453,162.400 323.000 C 162.400 322.581,161.978 322.400,161.000 322.400 C 160.230 322.400,159.600 322.220,159.600 322.000 C 159.600 321.780,158.880 321.600,158.000 321.600 C 156.844 321.600,156.400 321.433,156.400 321.000 C 156.400 320.581,155.978 320.400,155.000 320.400 C 154.230 320.400,153.600 320.220,153.600 320.000 C 153.600 319.780,153.150 319.600,152.600 319.600 C 151.978 319.600,151.600 319.373,151.600 319.000 C 151.600 318.627,151.222 318.400,150.600 318.400 C 150.050 318.400,149.600 318.220,149.600 318.000 C 149.600 317.780,148.880 317.600,148.000 317.600 C 146.844 317.600,146.400 317.433,146.400 317.000 C 146.400 316.627,146.022 316.400,145.400 316.400 C 144.850 316.400,144.400 316.220,144.400 316.000 C 144.400 315.780,143.950 315.600,143.400 315.600 C 142.778 315.600,142.400 315.373,142.400 315.000 C 142.400 314.627,142.022 314.400,141.400 314.400 C 140.850 314.400,140.400 314.220,140.400 314.000 C 140.400 313.780,139.950 313.600,139.400 313.600 C 138.778 313.600,138.400 313.373,138.400 313.000 C 138.400 312.660,138.041 312.400,137.571 312.400 C 136.686 312.400,135.600 311.534,135.600 310.829 C 135.600 310.593,135.150 310.400,134.600 310.400 C 134.050 310.400,133.600 310.220,133.600 310.000 C 133.600 309.780,133.150 309.600,132.600 309.600 C 131.978 309.600,131.600 309.373,131.600 309.000 C 131.600 308.670,131.330 308.400,131.000 308.400 C 130.670 308.400,130.400 308.220,130.400 308.000 C 130.400 307.780,129.950 307.600,129.400 307.600 C 128.850 307.600,128.400 307.407,128.400 307.171 C 128.400 306.466,127.314 305.600,126.429 305.600 C 125.959 305.600,125.600 305.340,125.600 305.000 C 125.600 304.670,125.373 304.400,125.095 304.400 C 124.817 304.400,124.252 303.950,123.839 303.400 C 123.426 302.850,122.753 302.400,122.344 302.400 C 121.935 302.400,121.600 302.220,121.600 302.000 C 121.600 301.780,121.330 301.600,121.000 301.600 C 120.670 301.600,120.400 301.407,120.400 301.171 C 120.400 300.466,119.314 299.600,118.429 299.600 C 117.959 299.600,117.600 299.340,117.600 299.000 C 117.600 298.670,117.407 298.400,117.171 298.400 C 116.618 298.400,115.600 297.382,115.600 296.829 C 115.600 296.593,115.407 296.400,115.171 296.400 C 114.618 296.400,113.600 295.382,113.600 294.829 C 113.600 294.593,113.407 294.400,113.171 294.400 C 112.618 294.400,111.600 293.382,111.600 292.829 C 111.600 292.593,111.407 292.400,111.171 292.400 C 110.618 292.400,109.600 291.382,109.600 290.829 C 109.600 290.593,109.407 290.400,109.171 290.400 C 108.618 290.400,107.600 289.382,107.600 288.829 C 107.600 288.593,107.407 288.400,107.171 288.400 C 106.618 288.400,105.600 287.382,105.600 286.829 C 105.600 286.593,105.407 286.400,105.171 286.400 C 104.618 286.400,103.600 285.382,103.600 284.829 C 103.600 284.593,103.407 284.400,103.171 284.400 C 102.618 284.400,101.600 283.382,101.600 282.829 C 101.600 282.593,101.407 282.400,101.171 282.400 C 100.466 282.400,99.600 281.314,99.600 280.429 C 99.600 279.959,99.340 279.600,99.000 279.600 C 98.670 279.600,98.400 279.407,98.400 279.171 C 98.400 278.618,97.382 277.600,96.829 277.600 C 96.593 277.600,96.400 277.150,96.400 276.600 C 96.400 276.050,96.220 275.600,96.000 275.600 C 95.780 275.600,95.600 275.330,95.600 275.000 C 95.600 274.670,95.407 274.400,95.171 274.400 C 94.466 274.400,93.600 273.314,93.600 272.429 C 93.600 271.959,93.340 271.600,93.000 271.600 C 92.670 271.600,92.400 271.330,92.400 271.000 C 92.400 270.670,92.220 270.400,92.000 270.400 C 91.780 270.400,91.600 269.950,91.600 269.400 C 91.600 268.850,91.407 268.400,91.171 268.400 C 90.466 268.400,89.600 267.314,89.600 266.429 C 89.600 265.959,89.340 265.600,89.000 265.600 C 88.627 265.600,88.400 265.222,88.400 264.600 C 88.400 264.050,88.220 263.600,88.000 263.600 C 87.780 263.600,87.600 263.150,87.600 262.600 C 87.600 261.978,87.373 261.600,87.000 261.600 C 86.670 261.600,86.400 261.330,86.400 261.000 C 86.400 260.670,86.220 260.400,86.000 260.400 C 85.780 260.400,85.600 259.950,85.600 259.400 C 85.600 258.778,85.373 258.400,85.000 258.400 C 84.627 258.400,84.400 258.022,84.400 257.400 C 84.400 256.850,84.220 256.400,84.000 256.400 C 83.780 256.400,83.600 255.770,83.600 255.000 C 83.600 254.022,83.419 253.600,83.000 253.600 C 82.627 253.600,82.400 253.222,82.400 252.600 C 82.400 252.050,82.220 251.600,82.000 251.600 C 81.780 251.600,81.600 251.150,81.600 250.600 C 81.600 249.978,81.373 249.600,81.000 249.600 C 80.567 249.600,80.400 249.156,80.400 248.000 C 80.400 247.120,80.220 246.400,80.000 246.400 C 79.780 246.400,79.600 245.950,79.600 245.400 C 79.600 244.778,79.373 244.400,79.000 244.400 C 78.581 244.400,78.400 243.978,78.400 243.000 C 78.400 242.230,78.220 241.600,78.000 241.600 C 77.780 241.600,77.600 240.700,77.600 239.600 C 77.600 238.089,77.453 237.600,77.000 237.600 C 76.567 237.600,76.400 237.156,76.400 236.000 C 76.400 235.120,76.220 234.400,76.000 234.400 C 75.780 234.400,75.600 233.500,75.600 232.400 C 75.600 230.889,75.453 230.400,75.000 230.400 C 74.533 230.400,74.400 229.867,74.400 228.000 C 74.400 226.667,74.222 225.600,74.000 225.600 C 73.774 225.600,73.600 224.467,73.600 223.000 C 73.600 220.956,73.472 220.400,73.000 220.400 C 72.499 220.400,72.400 219.578,72.400 215.400 C 72.400 212.333,72.245 210.400,72.000 210.400 C 71.742 210.400,71.600 206.133,71.600 198.400 C 71.600 190.667,71.742 186.400,72.000 186.400 C 72.240 186.400,72.400 184.800,72.400 182.400 C 72.400 179.111,72.507 178.400,73.000 178.400 C 73.467 178.400,73.600 177.867,73.600 176.000 C 73.600 174.667,73.778 173.600,74.000 173.600 C 74.220 173.600,74.400 172.700,74.400 171.600 C 74.400 170.089,74.547 169.600,75.000 169.600 C 75.453 169.600,75.600 169.111,75.600 167.600 C 75.600 166.500,75.780 165.600,76.000 165.600 C 76.220 165.600,76.400 164.700,76.400 163.600 C 76.400 162.089,76.547 161.600,77.000 161.600 C 77.480 161.600,77.600 161.000,77.600 158.600 C 77.600 156.200,77.480 155.600,77.000 155.600 C 76.670 155.600,76.400 155.366,76.400 155.080 C 76.400 154.161,75.416 152.406,74.900 152.403 C 74.625 152.401,74.400 151.950,74.400 151.400 C 74.400 150.850,74.220 150.400,74.000 150.400 C 73.780 150.400,73.600 149.950,73.600 149.400 C 73.600 148.850,73.407 148.400,73.171 148.400 C 72.466 148.400,71.600 147.314,71.600 146.429 C 71.600 145.959,71.340 145.600,71.000 145.600 C 70.627 145.600,70.400 145.222,70.400 144.600 C 70.400 144.050,70.220 143.600,70.000 143.600 C 69.780 143.600,69.600 143.150,69.600 142.600 C 69.600 141.978,69.373 141.600,69.000 141.600 C 68.670 141.600,68.400 141.330,68.400 141.000 C 68.400 140.670,68.220 140.400,68.000 140.400 C 67.780 140.400,67.600 139.950,67.600 139.400 C 67.600 138.778,67.373 138.400,67.000 138.400 C 66.627 138.400,66.400 138.022,66.400 137.400 C 66.400 136.850,66.220 136.400,66.000 136.400 C 65.780 136.400,65.600 135.950,65.600 135.400 C 65.600 134.850,65.407 134.400,65.171 134.400 C 64.466 134.400,63.600 133.314,63.600 132.429 C 63.600 131.959,63.340 131.600,63.000 131.600 C 62.627 131.600,62.400 131.222,62.400 130.600 C 62.400 130.050,62.220 129.600,62.000 129.600 C 61.780 129.600,61.600 129.150,61.600 128.600 C 61.600 127.978,61.373 127.600,61.000 127.600 C 60.670 127.600,60.400 127.330,60.400 127.000 C 60.400 126.670,60.220 126.400,60.000 126.400 C 59.780 126.400,59.600 125.950,59.600 125.400 C 59.600 124.778,59.373 124.400,59.000 124.400 C 58.627 124.400,58.400 124.022,58.400 123.400 C 58.400 122.850,58.220 122.400,58.000 122.400 C 57.780 122.400,57.600 121.950,57.600 121.400 C 57.600 120.778,57.373 120.400,57.000 120.400 C 56.670 120.400,56.394 120.085,56.387 119.700 C 56.372 118.835,55.471 117.600,54.856 117.600 C 54.605 117.600,54.400 117.150,54.400 116.600 C 54.400 116.050,54.220 115.600,54.000 115.600 C 53.780 115.600,53.600 115.150,53.600 114.600 C 53.600 113.978,53.373 113.600,53.000 113.600 C 52.627 113.600,52.400 113.222,52.400 112.600 C 52.400 112.050,52.220 111.600,52.000 111.600 C 51.780 111.600,51.600 111.330,51.600 111.000 C 51.600 110.670,51.330 110.400,51.000 110.400 C 50.627 110.400,50.400 110.022,50.400 109.400 C 50.400 108.850,50.220 108.400,50.000 108.400 C 49.780 108.400,49.600 107.950,49.600 107.400 C 49.600 106.778,49.373 106.400,49.000 106.400 C 48.670 106.400,48.400 106.220,48.400 106.000 C 48.400 105.399,46.672 105.548,46.100 106.198 M298.530 120.238 C 298.375 120.641,298.674 121.210,299.343 121.785 C 299.924 122.284,300.400 122.897,300.400 123.147 C 300.400 123.396,300.593 123.600,300.829 123.600 C 301.534 123.600,302.400 124.686,302.400 125.571 C 302.400 126.041,302.660 126.400,303.000 126.400 C 303.330 126.400,303.600 126.670,303.600 127.000 C 303.600 127.330,303.780 127.600,304.000 127.600 C 304.220 127.600,304.400 128.050,304.400 128.600 C 304.400 129.150,304.593 129.600,304.829 129.600 C 305.534 129.600,306.400 130.686,306.400 131.571 C 306.400 132.041,306.660 132.400,307.000 132.400 C 307.330 132.400,307.600 132.670,307.600 133.000 C 307.600 133.330,307.780 133.600,308.000 133.600 C 308.220 133.600,308.400 134.050,308.400 134.600 C 308.400 135.222,308.627 135.600,309.000 135.600 C 309.340 135.600,309.600 135.959,309.600 136.429 C 309.600 137.314,310.466 138.400,311.171 138.400 C 311.407 138.400,311.600 138.850,311.600 139.400 C 311.600 139.950,311.780 140.400,312.000 140.400 C 312.220 140.400,312.400 140.850,312.400 141.400 C 312.400 142.022,312.627 142.400,313.000 142.400 C 313.373 142.400,313.600 142.778,313.600 143.400 C 313.600 143.950,313.780 144.400,314.000 144.400 C 314.220 144.400,314.400 144.850,314.400 145.400 C 314.400 146.022,314.627 146.400,315.000 146.400 C 315.373 146.400,315.600 146.778,315.600 147.400 C 315.600 147.950,315.780 148.400,316.000 148.400 C 316.220 148.400,316.400 149.120,316.400 150.000 C 316.400 151.156,316.567 151.600,317.000 151.600 C 317.373 151.600,317.600 151.978,317.600 152.600 C 317.600 153.150,317.780 153.600,318.000 153.600 C 318.220 153.600,318.400 154.230,318.400 155.000 C 318.400 155.978,318.581 156.400,319.000 156.400 C 319.433 156.400,319.600 156.844,319.600 158.000 C 319.600 158.880,319.780 159.600,320.000 159.600 C 320.220 159.600,320.400 160.050,320.400 160.600 C 320.400 161.222,320.627 161.600,321.000 161.600 C 321.453 161.600,321.600 162.089,321.600 163.600 C 321.600 164.700,321.780 165.600,322.000 165.600 C 322.220 165.600,322.400 166.416,322.400 167.413 C 322.400 168.655,322.589 169.298,323.000 169.455 C 323.420 169.617,323.600 170.272,323.600 171.643 C 323.600 172.719,323.780 173.600,324.000 173.600 C 324.222 173.600,324.400 174.667,324.400 176.000 C 324.400 177.867,324.533 178.400,325.000 178.400 C 325.489 178.400,325.600 179.067,325.600 182.000 C 325.600 184.133,325.763 185.600,326.000 185.600 C 326.259 185.600,326.400 190.533,326.400 199.600 C 326.400 208.667,326.259 213.600,326.000 213.600 C 325.760 213.600,325.600 215.200,325.600 217.600 C 325.600 220.889,325.493 221.600,325.000 221.600 C 324.533 221.600,324.400 222.133,324.400 224.000 C 324.400 225.333,324.222 226.400,324.000 226.400 C 323.780 226.400,323.600 227.281,323.600 228.357 C 323.600 229.728,323.420 230.383,323.000 230.545 C 322.589 230.702,322.400 231.345,322.400 232.587 C 322.400 233.584,322.220 234.400,322.000 234.400 C 321.780 234.400,321.600 235.120,321.600 236.000 C 321.600 237.156,321.433 237.600,321.000 237.600 C 320.547 237.600,320.400 238.089,320.400 239.600 C 320.400 240.700,320.220 241.600,320.000 241.600 C 319.780 241.600,319.600 242.050,319.600 242.600 C 319.600 243.222,319.373 243.600,319.000 243.600 C 318.581 243.600,318.400 244.022,318.400 245.000 C 318.400 245.770,318.220 246.400,318.000 246.400 C 317.780 246.400,317.600 246.831,317.600 247.357 C 317.600 247.884,317.330 248.418,317.000 248.545 C 316.623 248.689,316.400 249.301,316.400 250.187 C 316.400 250.964,316.220 251.600,316.000 251.600 C 315.780 251.600,315.600 252.050,315.600 252.600 C 315.600 253.222,315.373 253.600,315.000 253.600 C 314.627 253.600,314.400 253.978,314.400 254.600 C 314.400 255.150,314.220 255.600,314.000 255.600 C 313.780 255.600,313.600 256.050,313.600 256.600 C 313.600 257.222,313.373 257.600,313.000 257.600 C 312.627 257.600,312.400 257.978,312.400 258.600 C 312.400 259.150,312.220 259.600,312.000 259.600 C 311.780 259.600,311.600 260.050,311.600 260.600 C 311.600 261.222,311.373 261.600,311.000 261.600 C 310.643 261.600,310.400 261.967,310.400 262.505 C 310.400 263.004,309.951 263.747,309.400 264.161 C 308.850 264.574,308.400 265.247,308.400 265.656 C 308.400 266.065,308.220 266.400,308.000 266.400 C 307.780 266.400,307.600 266.769,307.600 267.219 C 307.600 267.670,307.150 268.455,306.600 268.965 C 306.050 269.475,305.600 270.276,305.600 270.746 C 305.600 271.216,305.407 271.600,305.171 271.600 C 304.528 271.600,303.600 272.656,303.600 273.387 C 303.600 273.742,302.880 274.717,302.000 275.554 C 301.120 276.391,300.400 277.374,300.400 277.738 C 300.400 278.102,300.220 278.400,300.000 278.400 C 299.780 278.400,299.600 278.670,299.600 279.000 C 299.600 279.330,299.407 279.600,299.171 279.600 C 298.618 279.600,297.600 280.618,297.600 281.171 C 297.600 281.407,297.330 281.600,297.000 281.600 C 296.670 281.600,296.400 281.954,296.400 282.387 C 296.400 283.321,282.276 297.600,281.352 297.600 C 280.650 297.600,279.600 298.542,279.600 299.171 C 279.600 299.407,279.407 299.600,279.171 299.600 C 278.618 299.600,277.600 300.618,277.600 301.171 C 277.600 301.407,277.216 301.600,276.747 301.600 C 276.278 301.600,275.300 302.230,274.574 303.000 C 273.848 303.770,272.882 304.400,272.427 304.400 C 271.959 304.400,271.600 304.660,271.600 305.000 C 271.600 305.330,271.330 305.600,271.000 305.600 C 270.670 305.600,270.400 305.780,270.400 306.000 C 270.400 306.220,270.065 306.400,269.656 306.400 C 269.247 306.400,268.574 306.850,268.161 307.400 C 267.747 307.951,267.004 308.400,266.505 308.400 C 265.967 308.400,265.600 308.643,265.600 309.000 C 265.600 309.346,265.238 309.600,264.746 309.600 C 264.276 309.600,263.475 310.050,262.965 310.600 C 262.455 311.150,261.670 311.600,261.219 311.600 C 260.769 311.600,260.400 311.780,260.400 312.000 C 260.400 312.220,260.034 312.400,259.587 312.400 C 259.141 312.400,258.671 312.670,258.545 313.000 C 258.418 313.330,257.884 313.600,257.357 313.600 C 256.831 313.600,256.400 313.780,256.400 314.000 C 256.400 314.220,256.034 314.400,255.587 314.400 C 255.141 314.400,254.671 314.670,254.545 315.000 C 254.418 315.330,253.884 315.600,253.357 315.600 C 252.831 315.600,252.400 315.780,252.400 316.000 C 252.400 316.220,252.034 316.400,251.587 316.400 C 251.141 316.400,250.671 316.670,250.545 317.000 C 250.403 317.370,249.795 317.600,248.957 317.600 C 248.211 317.600,247.600 317.780,247.600 318.000 C 247.600 318.220,247.150 318.400,246.600 318.400 C 245.978 318.400,245.600 318.627,245.600 319.000 C 245.600 319.433,245.156 319.600,244.000 319.600 C 243.120 319.600,242.400 319.780,242.400 320.000 C 242.400 320.220,241.770 320.400,241.000 320.400 C 240.022 320.400,239.600 320.581,239.600 321.000 C 239.600 321.433,239.156 321.600,238.000 321.600 C 237.120 321.600,236.400 321.780,236.400 322.000 C 236.400 322.220,235.770 322.400,235.000 322.400 C 234.022 322.400,233.600 322.581,233.600 323.000 C 233.600 323.453,233.111 323.600,231.600 323.600 C 230.500 323.600,229.600 323.780,229.600 324.000 C 229.600 324.221,228.563 324.400,227.289 324.400 C 224.801 324.400,223.600 325.183,223.600 326.805 C 223.600 327.245,223.332 327.600,223.000 327.600 C 222.627 327.600,222.400 327.978,222.400 328.600 C 222.400 329.150,222.220 329.600,222.000 329.600 C 221.780 329.600,221.600 330.050,221.600 330.600 C 221.600 331.150,221.407 331.600,221.171 331.600 C 220.479 331.600,219.600 332.679,219.600 333.529 C 219.600 333.961,219.330 334.418,219.000 334.545 C 218.670 334.671,218.400 335.141,218.400 335.587 C 218.400 336.034,218.220 336.400,218.000 336.400 C 217.780 336.400,217.600 336.651,217.600 336.957 C 217.600 337.264,217.330 337.618,217.000 337.745 C 216.670 337.871,216.400 338.341,216.400 338.787 C 216.400 339.234,216.220 339.600,216.000 339.600 C 215.780 339.600,215.600 340.050,215.600 340.600 C 215.600 341.222,215.373 341.600,215.000 341.600 C 214.643 341.600,214.400 341.967,214.400 342.505 C 214.400 343.004,213.951 343.747,213.400 344.161 C 212.850 344.574,212.400 345.247,212.400 345.656 C 212.400 346.065,212.220 346.400,212.000 346.400 C 211.780 346.400,211.600 346.769,211.600 347.219 C 211.600 347.670,211.150 348.455,210.600 348.965 C 210.050 349.475,209.600 350.276,209.600 350.746 C 209.600 351.238,209.346 351.600,209.000 351.600 C 208.627 351.600,208.400 351.978,208.400 352.600 C 208.400 353.150,208.220 353.600,208.000 353.600 C 207.780 353.600,207.600 354.050,207.600 354.600 C 207.600 355.150,207.407 355.600,207.171 355.600 C 206.479 355.600,205.600 356.679,205.600 357.529 C 205.600 357.961,205.330 358.418,205.000 358.545 C 204.670 358.671,204.400 359.141,204.400 359.587 C 204.400 360.034,204.220 360.400,204.000 360.400 C 203.780 360.400,203.600 360.670,203.600 361.000 C 203.600 361.330,203.330 361.600,203.000 361.600 C 202.627 361.600,202.400 361.978,202.400 362.600 C 202.400 363.150,202.220 363.600,202.000 363.600 C 201.780 363.600,201.600 364.050,201.600 364.600 C 201.600 365.222,201.373 365.600,201.000 365.600 C 200.643 365.600,200.400 365.967,200.400 366.505 C 200.400 367.004,199.951 367.747,199.400 368.161 C 198.850 368.574,198.400 369.247,198.400 369.656 C 198.400 370.065,198.220 370.400,198.000 370.400 C 197.780 370.400,197.600 370.769,197.600 371.219 C 197.600 371.670,197.150 372.455,196.600 372.965 C 196.050 373.475,195.600 374.276,195.600 374.746 C 195.600 375.238,195.346 375.600,195.000 375.600 C 194.627 375.600,194.400 375.978,194.400 376.600 C 194.400 377.150,194.220 377.600,194.000 377.600 C 193.780 377.600,193.600 378.050,193.600 378.600 L 193.600 379.600 205.600 379.600 C 216.000 379.600,217.600 379.520,217.600 379.000 C 217.600 378.499,218.422 378.400,222.600 378.400 C 225.667 378.400,227.600 378.245,227.600 378.000 C 227.600 377.778,228.667 377.600,230.000 377.600 C 231.867 377.600,232.400 377.467,232.400 377.000 C 232.400 376.528,232.956 376.400,235.000 376.400 C 236.467 376.400,237.600 376.226,237.600 376.000 C 237.600 375.780,238.500 375.600,239.600 375.600 C 241.111 375.600,241.600 375.453,241.600 375.000 C 241.600 374.533,242.133 374.400,244.000 374.400 C 245.333 374.400,246.400 374.222,246.400 374.000 C 246.400 373.780,247.300 373.600,248.400 373.600 C 249.911 373.600,250.400 373.453,250.400 373.000 C 250.400 372.567,250.844 372.400,252.000 372.400 C 252.880 372.400,253.600 372.220,253.600 372.000 C 253.600 371.780,254.230 371.600,255.000 371.600 C 255.978 371.600,256.400 371.419,256.400 371.000 C 256.400 370.567,256.844 370.400,258.000 370.400 C 258.880 370.400,259.600 370.220,259.600 370.000 C 259.600 369.780,260.230 369.600,261.000 369.600 C 261.978 369.600,262.400 369.419,262.400 369.000 C 262.400 368.567,262.844 368.400,264.000 368.400 C 264.880 368.400,265.600 368.220,265.600 368.000 C 265.600 367.780,266.230 367.600,267.000 367.600 C 267.978 367.600,268.400 367.419,268.400 367.000 C 268.400 366.670,268.670 366.400,269.000 366.400 C 269.330 366.400,269.600 366.220,269.600 366.000 C 269.600 365.780,270.230 365.600,271.000 365.600 C 271.978 365.600,272.400 365.419,272.400 365.000 C 272.400 364.627,272.778 364.400,273.400 364.400 C 273.950 364.400,274.400 364.220,274.400 364.000 C 274.400 363.780,274.850 363.600,275.400 363.600 C 276.022 363.600,276.400 363.373,276.400 363.000 C 276.400 362.627,276.778 362.400,277.400 362.400 C 277.950 362.400,278.400 362.220,278.400 362.000 C 278.400 361.780,278.850 361.600,279.400 361.600 C 280.022 361.600,280.400 361.373,280.400 361.000 C 280.400 360.627,280.778 360.400,281.400 360.400 C 281.950 360.400,282.400 360.220,282.400 360.000 C 282.400 359.780,282.850 359.600,283.400 359.600 C 284.022 359.600,284.400 359.373,284.400 359.000 C 284.400 358.627,284.778 358.400,285.400 358.400 C 285.950 358.400,286.400 358.220,286.400 358.000 C 286.400 357.780,286.850 357.600,287.400 357.600 C 288.022 357.600,288.400 357.373,288.400 357.000 C 288.400 356.627,288.778 356.400,289.400 356.400 C 289.950 356.400,290.400 356.220,290.400 356.000 C 290.400 355.780,290.670 355.600,291.000 355.600 C 291.330 355.600,291.600 355.330,291.600 355.000 C 291.600 354.627,291.978 354.400,292.600 354.400 C 293.150 354.400,293.600 354.220,293.600 354.000 C 293.600 353.780,294.050 353.600,294.600 353.600 C 295.222 353.600,295.600 353.373,295.600 353.000 C 295.600 352.660,295.959 352.400,296.429 352.400 C 297.314 352.400,298.400 351.534,298.400 350.829 C 298.400 350.593,298.850 350.400,299.400 350.400 C 299.950 350.400,300.400 350.220,300.400 350.000 C 300.400 349.780,300.670 349.600,301.000 349.600 C 301.330 349.600,301.600 349.407,301.600 349.171 C 301.600 348.466,302.686 347.600,303.571 347.600 C 304.041 347.600,304.400 347.340,304.400 347.000 C 304.400 346.670,304.593 346.400,304.829 346.400 C 305.382 346.400,306.400 345.382,306.400 344.829 C 306.400 344.593,306.850 344.400,307.400 344.400 C 307.950 344.400,308.400 344.220,308.400 344.000 C 308.400 343.780,308.670 343.600,309.000 343.600 C 309.330 343.600,309.600 343.407,309.600 343.171 C 309.600 342.466,310.686 341.600,311.571 341.600 C 312.041 341.600,312.400 341.340,312.400 341.000 C 312.400 340.670,312.593 340.400,312.829 340.400 C 313.382 340.400,314.400 339.382,314.400 338.829 C 314.400 338.593,314.850 338.400,315.400 338.400 C 315.950 338.400,316.400 338.220,316.400 338.000 C 316.400 337.780,316.670 337.600,317.000 337.600 C 317.330 337.600,317.600 337.407,317.600 337.171 C 317.600 336.618,318.618 335.600,319.171 335.600 C 319.407 335.600,319.600 335.407,319.600 335.171 C 319.600 334.618,320.618 333.600,321.171 333.600 C 321.407 333.600,321.600 333.407,321.600 333.171 C 321.600 332.618,322.618 331.600,323.171 331.600 C 323.407 331.600,323.600 331.330,323.600 331.000 C 323.600 330.660,323.959 330.400,324.429 330.400 C 325.314 330.400,326.400 329.534,326.400 328.829 C 326.400 328.593,326.593 328.400,326.829 328.400 C 327.534 328.400,328.400 327.314,328.400 326.429 C 328.400 325.959,328.660 325.600,329.000 325.600 C 329.330 325.600,329.600 325.407,329.600 325.171 C 329.600 324.618,330.618 323.600,331.171 323.600 C 331.407 323.600,331.600 323.407,331.600 323.171 C 331.600 322.618,332.618 321.600,333.171 321.600 C 333.407 321.600,333.600 321.407,333.600 321.171 C 333.600 320.618,334.618 319.600,335.171 319.600 C 335.407 319.600,335.600 319.407,335.600 319.171 C 335.600 318.618,336.618 317.600,337.171 317.600 C 337.407 317.600,337.600 317.330,337.600 317.000 C 337.600 316.670,337.780 316.400,338.000 316.400 C 338.220 316.400,338.400 315.950,338.400 315.400 C 338.400 314.850,338.593 314.400,338.829 314.400 C 339.382 314.400,340.400 313.382,340.400 312.829 C 340.400 312.593,340.670 312.400,341.000 312.400 C 341.340 312.400,341.600 312.041,341.600 311.571 C 341.600 310.686,342.466 309.600,343.171 309.600 C 343.407 309.600,343.600 309.407,343.600 309.171 C 343.600 308.618,344.618 307.600,345.171 307.600 C 345.407 307.600,345.600 307.150,345.600 306.600 C 345.600 306.050,345.780 305.600,346.000 305.600 C 346.220 305.600,346.400 305.330,346.400 305.000 C 346.400 304.670,346.670 304.400,347.000 304.400 C 347.340 304.400,347.600 304.041,347.600 303.571 C 347.600 302.686,348.466 301.600,349.171 301.600 C 349.407 301.600,349.600 301.330,349.600 301.000 C 349.600 300.670,349.780 300.400,350.000 300.400 C 350.220 300.400,350.400 299.950,350.400 299.400 C 350.400 298.850,350.593 298.400,350.829 298.400 C 351.534 298.400,352.400 297.314,352.400 296.429 C 352.400 295.959,352.660 295.600,353.000 295.600 C 353.373 295.600,353.600 295.222,353.600 294.600 C 353.600 294.050,353.780 293.600,354.000 293.600 C 354.220 293.600,354.400 293.150,354.400 292.600 C 354.400 291.978,354.627 291.600,355.000 291.600 C 355.330 291.600,355.600 291.330,355.600 291.000 C 355.600 290.670,355.780 290.400,356.000 290.400 C 356.220 290.400,356.400 289.950,356.400 289.400 C 356.400 288.778,356.627 288.400,357.000 288.400 C 357.373 288.400,357.600 288.022,357.600 287.400 C 357.600 286.850,357.780 286.400,358.000 286.400 C 358.220 286.400,358.400 285.950,358.400 285.400 C 358.400 284.778,358.627 284.400,359.000 284.400 C 359.340 284.400,359.600 284.041,359.600 283.571 C 359.600 282.686,360.466 281.600,361.171 281.600 C 361.407 281.600,361.600 280.880,361.600 280.000 C 361.600 279.120,361.780 278.400,362.000 278.400 C 362.220 278.400,362.400 277.950,362.400 277.400 C 362.400 276.778,362.627 276.400,363.000 276.400 C 363.373 276.400,363.600 276.022,363.600 275.400 C 363.600 274.850,363.780 274.400,364.000 274.400 C 364.220 274.400,364.400 273.950,364.400 273.400 C 364.400 272.778,364.627 272.400,365.000 272.400 C 365.373 272.400,365.600 272.022,365.600 271.400 C 365.600 270.850,365.780 270.400,366.000 270.400 C 366.220 270.400,366.400 269.950,366.400 269.400 C 366.400 268.778,366.627 268.400,367.000 268.400 C 367.419 268.400,367.600 267.978,367.600 267.000 C 367.600 266.230,367.780 265.600,368.000 265.600 C 368.220 265.600,368.400 264.880,368.400 264.000 C 368.400 262.844,368.567 262.400,369.000 262.400 C 369.419 262.400,369.600 261.978,369.600 261.000 C 369.600 260.230,369.780 259.600,370.000 259.600 C 370.220 259.600,370.400 259.150,370.400 258.600 C 370.400 257.978,370.627 257.600,371.000 257.600 C 371.453 257.600,371.600 257.111,371.600 255.600 C 371.600 254.500,371.780 253.600,372.000 253.600 C 372.220 253.600,372.400 252.880,372.400 252.000 C 372.400 250.844,372.567 250.400,373.000 250.400 C 373.453 250.400,373.600 249.911,373.600 248.400 C 373.600 247.300,373.780 246.400,374.000 246.400 C 374.222 246.400,374.400 245.333,374.400 244.000 C 374.400 242.133,374.533 241.600,375.000 241.600 C 375.453 241.600,375.600 241.111,375.600 239.600 C 375.600 238.500,375.780 237.600,376.000 237.600 C 376.226 237.600,376.400 236.467,376.400 235.000 C 376.400 232.956,376.528 232.400,377.000 232.400 C 377.467 232.400,377.600 231.867,377.600 230.000 C 377.600 228.667,377.778 227.600,378.000 227.600 C 378.240 227.600,378.400 226.000,378.400 223.600 C 378.400 220.311,378.507 219.600,379.000 219.600 C 379.525 219.600,379.600 217.156,379.600 200.000 C 379.600 182.844,379.525 180.400,379.000 180.400 C 378.507 180.400,378.400 179.689,378.400 176.400 C 378.400 174.000,378.240 172.400,378.000 172.400 C 377.769 172.400,377.600 171.133,377.600 169.400 C 377.600 167.000,377.480 166.400,377.000 166.400 C 376.547 166.400,376.400 165.911,376.400 164.400 C 376.400 163.300,376.220 162.400,376.000 162.400 C 375.780 162.400,375.600 161.500,375.600 160.400 C 375.600 158.889,375.453 158.400,375.000 158.400 C 374.533 158.400,374.400 157.867,374.400 156.000 C 374.400 154.667,374.222 153.600,374.000 153.600 C 373.780 153.600,373.600 152.700,373.600 151.600 C 373.600 150.089,373.453 149.600,373.000 149.600 C 372.547 149.600,372.400 149.111,372.400 147.600 C 372.400 146.500,372.220 145.600,372.000 145.600 C 371.780 145.600,371.600 145.150,371.600 144.600 C 371.600 143.978,371.373 143.600,371.000 143.600 C 370.567 143.600,370.400 143.156,370.400 142.000 C 370.400 141.120,370.220 140.400,370.000 140.400 C 369.780 140.400,369.600 139.770,369.600 139.000 C 369.600 138.022,369.419 137.600,369.000 137.600 C 368.567 137.600,368.400 137.156,368.400 136.000 C 368.400 135.120,368.220 134.400,368.000 134.400 C 367.780 134.400,367.600 133.950,367.600 133.400 C 367.600 132.778,367.373 132.400,367.000 132.400 C 366.627 132.400,366.400 132.022,366.400 131.400 C 366.400 130.850,366.220 130.400,366.000 130.400 C 365.780 130.400,365.600 129.770,365.600 129.000 C 365.600 128.022,365.419 127.600,365.000 127.600 C 364.627 127.600,364.400 127.222,364.400 126.600 C 364.400 126.050,364.220 125.600,364.000 125.600 C 363.780 125.600,363.600 125.150,363.600 124.600 C 363.600 123.978,363.373 123.600,363.000 123.600 C 362.627 123.600,362.400 123.222,362.400 122.600 C 362.400 122.050,362.220 121.600,362.000 121.600 C 361.780 121.600,361.600 121.150,361.600 120.600 L 361.600 119.600 330.187 119.600 C 301.803 119.600,298.751 119.662,298.530 120.238 " stroke="none" fill="#999999" fill-rule="evenodd"></path></g></svg>