<?xml version="1.0" encoding="UTF-8" standalone="no"?>
<!DOCTYPE svg PUBLIC "-//W3C//DTD SVG 20010904//EN"
              "http://www.w3.org/TR/2001/REC-SVG-20010904/DTD/svg10.dtd">

<svg xmlns="http://www.w3.org/2000/svg"
     width="3.48889in" height="3.48889in"
     viewBox="0 0 314 314">
  <path id="Selection"
        fill="none" stroke="black" stroke-width="1"
        d="M 68.00,66.85
           C 72.16,65.15 76.56,67.03 79.69,64.40
             82.49,62.05 81.69,58.46 83.15,55.10
             84.49,52.00 87.25,50.29 90.00,48.53
             101.06,41.46 118.08,34.81 131.00,32.37
             131.00,32.37 139.00,31.72 139.00,31.72
             139.00,31.72 155.00,30.00 155.00,30.00
             165.26,29.95 163.99,30.61 173.00,31.71
             173.00,31.71 182.00,32.37 182.00,32.37
             213.31,38.27 242.37,59.37 260.57,85.00
             271.81,100.83 276.82,118.24 280.31,137.00
             281.58,143.83 281.99,142.29 282.00,150.00
             282.00,150.00 282.00,162.00 282.00,162.00
             281.99,170.39 281.51,168.66 280.28,176.00
             277.53,192.50 274.88,200.98 267.06,216.00
             262.47,224.81 256.80,232.43 250.41,240.00
             247.30,243.68 243.24,246.88 241.00,251.00
             237.24,252.03 232.42,256.57 229.00,259.00
             222.49,263.62 214.40,268.53 207.00,271.55
             200.21,274.32 193.16,277.01 186.00,278.67
             186.00,278.67 175.00,280.28 175.00,280.28
             167.47,281.30 167.31,281.99 159.00,282.00
             134.21,282.04 109.09,276.27 88.00,262.76
             57.91,243.49 36.94,211.28 31.73,176.00
             30.66,168.73 30.01,167.77 30.00,160.00
             30.00,160.00 30.00,151.00 30.00,151.00
             30.02,139.71 34.25,121.64 38.23,111.00
             40.01,106.22 41.46,100.73 46.00,98.00
             46.00,98.00 45.00,105.00 45.00,105.00
             45.00,105.00 68.00,106.00 68.00,106.00
             68.00,106.00 68.00,84.00 68.00,84.00
             68.00,84.00 54.00,84.00 54.00,84.00
             56.09,78.35 62.31,69.19 68.00,66.85 Z
           M 117.00,84.00
           C 117.00,84.00 115.98,76.60 115.98,76.60
             115.98,76.60 109.00,75.00 109.00,75.00
             109.00,75.00 77.00,75.00 77.00,75.00
             77.00,75.00 77.00,115.00 77.00,115.00
             77.00,115.00 117.00,115.00 117.00,115.00
             117.00,115.00 117.00,84.00 117.00,84.00 Z
           M 198.60,123.98
           C 199.91,125.03 202.40,124.97 204.00,125.00
             204.00,125.00 229.00,125.00 229.00,125.00
             230.99,125.00 234.81,125.23 236.40,123.98
             238.38,122.41 238.00,118.30 238.00,116.00
             238.00,116.00 238.00,85.00 238.00,85.00
             238.00,82.74 238.25,78.38 236.83,76.57
             235.26,74.59 231.30,75.00 229.00,75.00
             229.00,75.00 127.00,75.00 127.00,75.00
             127.00,75.00 127.00,106.00 127.00,106.00
             127.00,106.00 128.02,113.40 128.02,113.40
             128.02,113.40 136.00,114.86 136.00,114.86
             136.00,114.86 185.00,114.86 185.00,114.86
             185.00,114.86 198.00,114.86 198.00,114.86
             197.67,117.49 196.37,122.18 198.60,123.98 Z
           M 115.26,125.99
           C 113.95,124.93 111.59,125.03 110.00,125.00
             110.00,125.00 85.00,125.00 85.00,125.00
             82.68,125.02 79.36,124.81 77.60,126.60
             75.45,128.79 76.99,137.51 77.00,141.00
             77.00,141.00 77.00,167.00 77.00,167.00
             77.04,169.37 76.96,172.58 78.74,174.40
             80.64,176.34 84.47,175.99 87.00,176.00
             87.00,176.00 198.00,176.00 198.00,176.00
             196.32,183.58 197.01,187.53 198.00,195.00
             168.94,197.35 109.15,196.00 77.00,196.00
             77.00,196.00 77.00,235.00 77.00,235.00
             77.00,235.00 200.00,235.00 200.00,235.00
             200.00,235.00 226.00,235.00 226.00,235.00
             228.41,235.00 234.60,235.40 236.40,233.98
             238.38,232.41 238.00,228.30 238.00,226.00
             238.00,226.00 238.00,157.00 238.00,157.00
             238.00,152.63 239.25,138.40 235.69,136.02
             233.84,134.79 230.19,135.00 228.00,135.00
             228.00,135.00 117.00,135.00 117.00,135.00
             116.99,132.50 117.38,127.70 115.26,125.99 Z
           M 127.00,13.84
           C 127.00,13.84 151.00,11.00 151.00,11.00
             151.00,11.00 170.46,11.54 170.46,11.54
             170.46,11.54 172.00,13.00 172.00,13.00
             183.35,11.16 200.25,17.69 211.00,21.50
             226.84,27.10 234.10,32.68 247.00,43.00
             254.00,48.60 261.51,54.60 267.48,61.28
             267.48,61.28 275.02,72.00 275.02,72.00
             286.50,88.63 294.29,104.97 297.75,125.00
             299.38,134.38 300.98,131.61 300.84,142.00
             300.84,142.00 300.84,162.00 300.84,162.00
             300.84,162.00 300.84,177.00 300.84,177.00
             300.84,177.00 298.35,184.00 298.35,184.00
             298.35,184.00 296.08,195.00 296.08,195.00
             293.32,205.10 286.76,222.18 281.16,230.83
             281.16,230.83 277.24,236.09 277.24,236.09
             277.24,236.09 271.74,245.00 271.74,245.00
             267.96,249.82 263.66,253.34 261.00,259.00
             256.40,260.37 244.44,271.28 240.00,274.92
             235.95,278.23 218.91,287.82 214.00,289.94
             214.00,289.94 207.00,292.09 207.00,292.09
             207.00,292.09 197.00,296.02 197.00,296.02
             189.89,298.13 182.27,298.19 175.00,299.21
             168.51,300.12 171.67,300.98 162.00,301.00
             162.00,301.00 148.00,301.00 148.00,301.00
             139.53,300.99 140.59,300.45 133.00,299.27
             105.86,295.08 88.70,287.30 67.00,270.42
             67.00,270.42 58.17,263.54 58.17,263.54
             53.04,258.87 36.19,239.76 32.67,234.00
             22.34,217.07 12.23,188.87 12.00,169.00
             12.00,169.00 11.00,153.00 11.00,153.00
             11.05,141.15 14.08,122.17 18.05,111.00
             18.05,111.00 20.95,101.17 20.95,101.17
             23.67,92.98 28.44,85.40 33.34,78.43
             35.77,74.96 36.57,70.11 41.00,69.00
             42.70,63.23 45.85,61.31 49.83,57.01
             58.11,48.08 67.54,39.72 78.00,33.49
             83.29,30.34 85.53,26.74 92.00,27.00
             95.16,22.57 101.72,20.05 107.00,21.00
             107.00,21.00 106.00,18.00 106.00,18.00
             106.00,18.00 127.00,13.84 127.00,13.84 Z
           M 31.00,147.00
           C 31.00,147.00 31.00,168.00 31.00,168.00
             31.16,181.10 36.60,198.23 42.22,210.00
             48.52,223.20 57.55,236.64 68.18,246.75
             112.99,289.39 180.90,293.56 231.00,257.57
             247.44,245.77 259.04,230.77 268.36,213.00
             275.26,199.85 277.87,189.45 280.28,175.00
             281.34,168.67 281.97,169.19 282.00,162.00
             282.00,162.00 282.00,150.00 282.00,150.00
             281.92,143.73 279.81,134.30 278.42,128.00
             269.19,86.13 238.87,51.14 198.00,37.08
             184.62,32.47 177.78,31.92 164.00,30.91
             164.00,30.91 157.00,30.18 157.00,30.18
             157.00,30.18 139.00,32.08 139.00,32.08
             139.00,32.08 132.00,32.08 132.00,32.08
             120.51,34.21 97.32,43.21 88.02,50.04
             85.27,52.06 83.57,53.65 82.57,57.00
             81.84,59.45 82.27,62.43 80.40,64.26
             77.50,67.09 72.17,65.07 68.04,66.93
             62.71,69.34 56.07,78.60 54.00,84.00
             54.00,84.00 68.00,84.00 68.00,84.00
             68.00,84.00 68.00,106.00 68.00,106.00
             68.00,106.00 45.00,105.00 45.00,105.00
             45.00,105.00 44.00,99.00 44.00,99.00
             36.89,111.83 31.02,132.30 31.00,147.00 Z
           M 70.31,52.02
           C 67.20,54.10 68.00,60.62 68.00,64.00
             68.00,64.00 80.00,64.00 80.00,64.00
             80.00,64.00 80.00,51.00 80.00,51.00
             77.49,51.00 72.35,50.66 70.31,52.02 Z
           M 48.00,66.00
           C 48.00,66.00 48.00,74.00 48.00,74.00
             48.00,74.00 56.00,74.00 56.00,74.00
             56.00,74.00 56.00,66.00 56.00,66.00
             56.00,66.00 48.00,66.00 48.00,66.00 Z
           M 65.01,86.74
           C 62.47,83.59 51.16,85.06 49.02,88.31
             47.45,90.71 48.00,100.70 48.00,104.00
             48.00,104.00 66.00,104.00 66.00,104.00
             66.00,100.82 66.64,88.76 65.01,86.74 Z
           M 65.00,32.74
           C 73.36,26.70 85.47,19.34 95.00,15.45
             109.13,9.68 129.76,3.02 145.00,3.00
             145.00,3.00 169.00,3.00 169.00,3.00
             186.91,3.03 215.35,12.48 231.00,21.17
             238.39,25.28 245.34,30.23 252.00,35.42
             263.15,44.11 269.17,50.86 277.60,62.00
             282.34,68.28 284.14,69.56 288.55,77.00
             288.55,77.00 295.06,91.00 295.06,91.00
             295.06,91.00 298.50,98.00 298.50,98.00
             313.36,133.79 313.02,179.28 298.50,215.00
             298.50,215.00 291.79,227.28 291.79,227.28
             291.79,227.28 288.48,235.00 288.48,235.00
             281.44,247.97 267.11,263.61 256.00,273.28
             242.90,284.68 227.59,294.16 211.00,299.45
             211.00,299.45 201.00,303.48 201.00,303.48
             194.15,305.80 177.13,308.99 170.00,309.00
             170.00,309.00 143.00,309.00 143.00,309.00
             129.20,308.98 115.92,304.35 103.00,300.04
             103.00,300.04 95.00,297.65 95.00,297.65
             73.72,288.98 50.59,270.96 36.37,253.00
             36.37,253.00 30.20,243.00 30.20,243.00
             30.20,243.00 23.67,234.00 23.67,234.00
             11.87,214.18 3.27,183.09 3.00,160.00
             2.67,131.30 10.88,99.46 26.06,75.00
             28.67,70.80 35.96,60.65 39.16,57.00
             42.76,52.90 48.53,47.62 51.00,43.00
             54.45,42.27 61.56,35.23 65.00,32.74 Z
           M 272.10,244.00
           C 280.01,232.70 285.32,223.74 290.79,211.00
             293.58,204.50 296.11,193.04 297.67,186.00
             297.67,186.00 300.68,176.00 300.68,176.00
             300.68,176.00 300.68,171.00 300.68,171.00
             300.68,171.00 300.68,142.00 300.68,142.00
             300.98,131.63 299.53,134.41 297.67,126.00
             297.67,126.00 292.73,105.00 292.73,105.00
             287.99,92.50 278.07,75.84 270.22,65.00
             265.14,58.00 257.05,51.56 250.42,46.01
             245.11,41.56 235.71,33.82 230.00,30.37
             219.25,23.87 196.43,15.66 184.00,13.46
             184.00,13.46 176.04,12.87 176.04,12.87
             170.51,12.20 173.67,11.02 164.00,11.00
             164.00,11.00 155.00,11.00 155.00,11.00
             143.12,11.02 131.48,13.27 120.00,15.96
             114.78,17.19 110.07,16.12 107.00,21.00
             102.00,20.22 95.05,22.88 92.00,27.00
             85.97,26.80 81.05,31.64 76.04,34.61
             66.45,40.29 47.22,58.59 40.48,67.68
             37.26,72.01 33.39,76.39 33.00,82.00
             28.00,84.64 27.17,88.04 25.00,93.00
             25.00,93.00 21.32,101.00 21.32,101.00
             21.32,101.00 16.53,116.00 16.53,116.00
             13.77,124.08 12.04,137.41 12.00,146.00
             12.00,146.00 11.32,158.00 11.32,158.00
             11.32,158.00 12.00,171.00 12.00,171.00
             12.07,185.71 20.28,208.74 26.76,222.00
             31.07,230.84 40.45,248.87 50.00,252.00
             50.88,256.68 53.68,258.74 57.00,261.99
             62.88,267.74 73.06,275.05 80.00,279.83
             88.55,285.70 89.11,285.08 98.00,289.04
             112.75,295.60 118.11,296.84 134.00,299.29
             141.25,300.42 139.48,300.99 148.00,301.00
             148.00,301.00 162.00,301.00 162.00,301.00
             171.60,300.98 169.04,299.80 175.00,299.13
             193.27,297.05 190.47,298.25 208.00,291.61
             208.00,291.61 215.00,289.19 215.00,289.19
             215.00,289.19 224.00,283.82 224.00,283.82
             224.00,283.82 232.00,280.20 232.00,280.20
             235.45,278.60 241.62,273.44 245.00,270.87
             249.88,267.15 255.37,260.68 261.00,259.00
             263.74,251.99 267.93,249.95 272.10,244.00 Z
           M 106.00,18.00
           C 106.00,18.00 107.00,19.00 107.00,19.00
             107.00,19.00 107.00,18.00 107.00,18.00
             107.00,18.00 106.00,18.00 106.00,18.00 Z
           M 68.00,66.85
           C 72.16,65.15 76.56,67.03 79.69,64.40
             82.49,62.05 81.69,58.46 83.15,55.10
             84.49,52.00 87.25,50.29 90.00,48.53
             101.06,41.46 118.08,34.81 131.00,32.37
             131.00,32.37 139.00,31.72 139.00,31.72
             139.00,31.72 155.00,30.00 155.00,30.00
             165.26,29.95 163.99,30.61 173.00,31.71
             173.00,31.71 182.00,32.37 182.00,32.37
             213.31,38.27 242.37,59.37 260.57,85.00
             271.81,100.83 276.82,118.24 280.31,137.00
             281.58,143.83 281.99,142.29 282.00,150.00
             282.00,150.00 282.00,162.00 282.00,162.00
             281.99,170.39 281.51,168.66 280.28,176.00
             277.53,192.50 274.88,200.98 267.06,216.00
             262.47,224.81 256.80,232.43 250.41,240.00
             247.30,243.68 243.24,246.88 241.00,251.00
             237.24,252.03 232.42,256.57 229.00,259.00
             222.49,263.62 214.40,268.53 207.00,271.55
             200.21,274.32 193.16,277.01 186.00,278.67
             186.00,278.67 175.00,280.28 175.00,280.28
             167.47,281.30 167.31,281.99 159.00,282.00
             134.21,282.04 109.09,276.27 88.00,262.76
             57.91,243.49 36.94,211.28 31.73,176.00
             30.66,168.73 30.01,167.77 30.00,160.00
             30.00,160.00 30.00,151.00 30.00,151.00
             30.02,139.71 34.25,121.64 38.23,111.00
             40.01,106.22 41.46,100.73 46.00,98.00
             46.00,98.00 45.00,105.00 45.00,105.00
             45.00,105.00 68.00,106.00 68.00,106.00
             68.00,106.00 68.00,84.00 68.00,84.00
             68.00,84.00 54.00,84.00 54.00,84.00
             56.09,78.35 62.31,69.19 68.00,66.85 Z
           M 117.00,84.00
           C 117.00,84.00 115.98,76.60 115.98,76.60
             115.98,76.60 109.00,75.00 109.00,75.00
             109.00,75.00 77.00,75.00 77.00,75.00
             77.00,75.00 77.00,115.00 77.00,115.00
             77.00,115.00 117.00,115.00 117.00,115.00
             117.00,115.00 117.00,84.00 117.00,84.00 Z
           M 198.60,123.98
           C 199.91,125.03 202.40,124.97 204.00,125.00
             204.00,125.00 229.00,125.00 229.00,125.00
             230.99,125.00 234.81,125.23 236.40,123.98
             238.38,122.41 238.00,118.30 238.00,116.00
             238.00,116.00 238.00,85.00 238.00,85.00
             238.00,82.74 238.25,78.38 236.83,76.57
             235.26,74.59 231.30,75.00 229.00,75.00
             229.00,75.00 127.00,75.00 127.00,75.00
             127.00,75.00 127.00,106.00 127.00,106.00
             127.00,106.00 128.02,113.40 128.02,113.40
             128.02,113.40 136.00,114.86 136.00,114.86
             136.00,114.86 185.00,114.86 185.00,114.86
             185.00,114.86 198.00,114.86 198.00,114.86
             197.67,117.49 196.37,122.18 198.60,123.98 Z
           M 115.26,125.99
           C 113.95,124.93 111.59,125.03 110.00,125.00
             110.00,125.00 85.00,125.00 85.00,125.00
             82.68,125.02 79.36,124.81 77.60,126.60
             75.45,128.79 76.99,137.51 77.00,141.00
             77.00,141.00 77.00,167.00 77.00,167.00
             77.04,169.37 76.96,172.58 78.74,174.40
             80.64,176.34 84.47,175.99 87.00,176.00
             87.00,176.00 198.00,176.00 198.00,176.00
             196.32,183.58 197.01,187.53 198.00,195.00
             168.94,197.35 109.15,196.00 77.00,196.00
             77.00,196.00 77.00,235.00 77.00,235.00
             77.00,235.00 200.00,235.00 200.00,235.00
             200.00,235.00 226.00,235.00 226.00,235.00
             228.41,235.00 234.60,235.40 236.40,233.98
             238.38,232.41 238.00,228.30 238.00,226.00
             238.00,226.00 238.00,157.00 238.00,157.00
             238.00,152.63 239.25,138.40 235.69,136.02
             233.84,134.79 230.19,135.00 228.00,135.00
             228.00,135.00 117.00,135.00 117.00,135.00
             116.99,132.50 117.38,127.70 115.26,125.99 Z" />
</svg>
