<svg id="svg" version="1.1" width="400" height="401.6842105263158" viewBox="0 0 400 401.6842105263158" xmlns="http://www.w3.org/2000/svg" xmlns:xlink="http://www.w3.org/1999/xlink" ><g id="svgg"><path id="path0" d="M202.000 110.245 C 201.450 110.344,199.055 110.696,196.678 111.029 C 164.731 115.500,140.539 138.902,132.822 172.800 L 131.775 177.400 125.688 177.510 L 119.600 177.621 119.600 181.810 L 119.600 186.000 125.044 186.000 L 130.487 186.000 130.165 190.500 C 129.987 192.975,129.867 199.815,129.897 205.700 L 129.952 216.400 123.976 216.400 L 118.000 216.400 118.000 220.600 L 118.000 224.800 124.544 224.800 L 131.088 224.800 131.969 229.225 C 140.377 271.422,169.894 295.600,213.003 295.600 C 232.404 295.600,254.956 288.706,263.125 280.278 L 264.412 278.949 261.217 273.206 C 257.332 266.222,257.699 266.587,255.842 267.849 C 240.248 278.445,210.534 282.257,191.400 276.116 C 170.721 269.479,155.742 250.709,151.806 226.500 L 151.530 224.800 193.565 224.800 L 235.600 224.800 235.600 220.600 L 235.600 216.400 193.008 216.400 L 150.415 216.400 150.154 215.359 C 149.865 214.207,150.286 190.913,150.651 187.900 L 150.881 186.000 193.240 186.000 L 235.600 186.000 235.600 181.800 L 235.600 177.600 193.828 177.600 L 152.056 177.600 153.065 173.917 C 159.117 151.831,172.167 136.078,189.105 130.412 C 209.022 123.750,236.875 126.423,252.320 136.479 C 253.773 137.425,254.982 137.968,255.175 137.760 C 256.975 135.829,262.455 126.574,262.119 126.033 C 258.854 120.761,241.363 113.126,227.600 110.964 C 223.576 110.332,204.507 109.797,202.000 110.245 M366.901 204.200 C 366.905 205.080,366.987 205.393,367.083 204.895 C 367.179 204.398,367.175 203.678,367.075 203.295 C 366.975 202.913,366.896 203.320,366.901 204.200 M198.705 371.883 C 199.202 371.979,199.922 371.975,200.305 371.875 C 200.687 371.775,200.280 371.696,199.400 371.701 C 198.520 371.705,198.207 371.787,198.705 371.883 " stroke="none" fill="#fbfbfc" fill-rule="evenodd"></path><path id="path1" d="M195.437 36.867 C 194.946 37.152,193.344 37.231,190.941 37.087 C 188.537 36.944,187.115 37.014,186.949 37.283 C 186.791 37.538,185.776 37.618,184.345 37.489 C 182.858 37.354,182.000 37.427,182.000 37.690 C 182.000 37.944,181.305 38.026,180.200 37.901 C 179.123 37.780,178.400 37.860,178.400 38.101 C 178.400 38.339,177.824 38.411,177.000 38.277 C 176.147 38.139,175.600 38.214,175.600 38.469 C 175.600 38.712,175.012 38.819,174.200 38.724 C 173.430 38.634,172.800 38.728,172.800 38.933 C 172.800 39.137,172.170 39.202,171.400 39.077 C 170.536 38.937,170.000 39.013,170.000 39.275 C 170.000 39.539,169.519 39.604,168.729 39.446 C 168.030 39.306,167.584 39.317,167.737 39.470 C 167.891 39.624,166.077 40.161,163.708 40.663 C 161.339 41.166,159.040 41.683,158.600 41.812 C 158.160 41.941,157.620 42.095,157.400 42.154 C 157.180 42.214,156.033 42.560,154.851 42.924 C 153.668 43.288,152.543 43.489,152.351 43.369 C 152.158 43.250,152.000 43.363,152.000 43.619 C 152.000 43.876,151.752 43.990,151.449 43.874 C 151.146 43.758,150.741 43.812,150.549 43.994 C 150.357 44.176,148.940 44.710,147.400 45.180 C 143.229 46.453,136.893 48.757,134.400 49.908 C 129.170 52.322,117.383 58.111,117.200 58.356 C 116.836 58.844,111.809 61.713,111.300 61.723 C 111.025 61.729,110.800 61.879,110.800 62.056 C 110.800 62.234,110.305 62.636,109.699 62.949 C 109.094 63.262,107.204 64.519,105.499 65.741 C 103.795 66.964,102.400 67.849,102.400 67.706 C 102.400 67.564,102.175 67.727,101.900 68.070 C 101.625 68.412,100.320 69.473,99.000 70.426 C 82.199 82.562,63.123 104.398,53.368 122.660 C 52.093 125.047,50.903 127.060,50.722 127.134 C 50.542 127.208,50.497 127.433,50.621 127.634 C 50.745 127.835,50.646 128.000,50.400 128.000 C 50.154 128.000,50.055 128.165,50.179 128.366 C 50.303 128.567,50.265 128.792,50.093 128.866 C 49.921 128.940,49.088 130.530,48.241 132.400 C 47.395 134.270,46.499 135.932,46.251 136.094 C 46.003 136.256,45.926 136.391,46.079 136.394 C 46.511 136.403,45.573 138.800,45.137 138.800 C 44.926 138.800,44.854 138.964,44.978 139.164 C 45.101 139.364,44.814 140.399,44.339 141.464 C 43.865 142.529,43.409 143.752,43.328 144.183 C 43.246 144.613,43.049 145.063,42.890 145.183 C 42.730 145.302,42.538 145.760,42.462 146.200 C 42.386 146.640,41.997 147.720,41.598 148.600 C 41.198 149.480,40.279 152.270,39.555 154.800 C 38.831 157.330,38.114 159.454,37.962 159.519 C 37.810 159.585,37.777 159.990,37.889 160.419 C 38.001 160.849,37.909 161.200,37.684 161.200 C 37.459 161.200,37.369 161.560,37.484 162.000 C 37.599 162.440,37.509 162.800,37.284 162.800 C 37.059 162.800,36.969 163.160,37.084 163.600 C 37.199 164.040,37.137 164.401,36.947 164.402 C 36.756 164.403,36.566 165.053,36.525 165.848 C 36.484 166.642,36.321 167.586,36.164 167.946 C 36.006 168.306,35.916 168.915,35.964 169.300 C 36.011 169.685,35.856 170.000,35.618 170.000 C 35.361 170.000,35.282 170.389,35.425 170.956 C 35.557 171.482,35.487 172.023,35.270 172.157 C 35.053 172.291,34.969 172.762,35.085 173.203 C 35.200 173.643,35.090 174.250,34.840 174.551 C 34.591 174.852,34.495 175.383,34.629 175.730 C 34.762 176.077,34.723 176.595,34.542 176.881 C 34.360 177.166,34.169 177.850,34.115 178.400 C 33.976 179.835,33.701 181.974,33.443 183.645 C 31.882 193.729,31.876 215.056,33.432 224.400 C 33.686 225.923,33.962 228.024,34.115 229.600 C 34.169 230.150,34.356 230.827,34.532 231.104 C 34.708 231.381,34.743 231.950,34.610 232.370 C 34.476 232.789,34.565 233.255,34.807 233.405 C 35.049 233.554,35.210 234.064,35.164 234.538 C 35.118 235.012,35.217 235.715,35.383 236.100 C 35.550 236.485,35.586 237.058,35.465 237.374 C 35.344 237.690,35.411 238.005,35.615 238.074 C 35.819 238.143,36.058 238.920,36.146 239.800 C 36.235 240.680,36.434 241.706,36.589 242.081 C 36.744 242.455,36.764 242.935,36.633 243.147 C 36.502 243.358,36.586 243.595,36.819 243.673 C 37.053 243.751,37.279 244.486,37.322 245.306 C 37.365 246.126,37.556 246.797,37.747 246.798 C 37.937 246.799,38.001 247.151,37.889 247.581 C 37.777 248.010,37.810 248.415,37.962 248.481 C 38.114 248.546,38.831 250.670,39.555 253.200 C 40.279 255.730,41.228 258.583,41.664 259.539 C 42.099 260.496,42.481 261.621,42.513 262.039 C 42.544 262.458,42.698 262.800,42.853 262.800 C 43.129 262.800,43.725 264.925,43.596 265.449 C 43.561 265.593,43.694 265.821,43.893 265.955 C 44.092 266.090,44.553 266.956,44.916 267.880 C 46.515 271.942,50.129 279.812,50.451 279.934 C 50.646 280.008,50.703 280.233,50.579 280.434 C 50.455 280.635,50.554 280.800,50.800 280.800 C 51.046 280.800,51.145 280.965,51.021 281.166 C 50.897 281.367,50.942 281.592,51.121 281.666 C 51.520 281.830,55.330 288.800,55.021 288.800 C 54.899 288.800,55.087 289.115,55.437 289.500 C 56.642 290.823,60.333 296.734,60.100 296.967 C 59.972 297.095,60.053 297.200,60.280 297.200 C 60.508 297.200,61.195 297.965,61.808 298.900 C 62.420 299.835,64.829 303.091,67.161 306.137 C 69.492 309.182,71.355 311.837,71.300 312.037 C 71.245 312.236,71.335 312.357,71.500 312.305 C 71.665 312.252,74.161 314.727,77.046 317.805 C 84.531 325.787,92.131 332.593,99.800 338.180 C 101.560 339.462,103.180 340.729,103.400 340.995 C 103.620 341.262,103.890 341.480,104.000 341.481 C 104.263 341.484,111.738 346.395,111.999 346.736 C 112.109 346.881,112.380 347.030,112.600 347.067 C 113.133 347.157,119.745 350.862,120.000 351.214 C 120.110 351.365,121.865 352.260,123.900 353.203 C 125.935 354.145,127.600 355.081,127.600 355.282 C 127.600 355.483,127.780 355.536,128.000 355.400 C 128.220 355.264,128.400 355.305,128.400 355.491 C 128.400 355.677,128.715 355.854,129.100 355.884 C 129.485 355.914,130.970 356.465,132.400 357.108 C 133.830 357.751,135.090 358.268,135.200 358.257 C 135.310 358.246,135.940 358.531,136.600 358.891 C 137.260 359.250,139.150 360.048,140.800 360.664 C 142.450 361.280,143.857 361.912,143.926 362.069 C 143.995 362.226,144.310 362.256,144.626 362.135 C 144.942 362.014,145.200 362.069,145.200 362.257 C 145.200 362.446,145.690 362.628,146.288 362.663 C 146.886 362.698,147.441 362.924,147.522 363.166 C 147.602 363.407,147.831 363.504,148.031 363.381 C 148.383 363.163,152.799 364.366,153.200 364.789 C 153.310 364.905,153.580 365.006,153.800 365.013 C 154.974 365.053,157.625 365.717,157.811 366.017 C 157.929 366.209,158.272 366.271,158.572 366.155 C 158.873 366.040,159.240 366.141,159.387 366.379 C 159.535 366.618,159.797 366.725,159.971 366.618 C 160.144 366.511,160.897 366.613,161.643 366.846 C 163.240 367.344,163.354 367.368,168.800 368.386 C 171.110 368.818,173.495 369.178,174.100 369.186 C 174.705 369.193,175.200 369.369,175.200 369.575 C 175.200 369.781,175.830 369.847,176.600 369.723 C 177.493 369.578,178.000 369.656,178.000 369.938 C 178.000 370.215,178.444 370.291,179.188 370.142 C 179.841 370.012,180.696 370.038,181.088 370.201 C 181.479 370.364,182.745 370.462,183.900 370.419 C 185.075 370.376,186.000 370.517,186.000 370.739 C 186.000 370.990,187.401 371.052,189.800 370.909 C 192.338 370.758,193.600 370.822,193.600 371.104 C 193.600 371.379,195.605 371.525,199.400 371.525 C 203.195 371.525,205.200 371.379,205.200 371.104 C 205.200 370.822,206.462 370.758,209.000 370.909 C 211.510 371.059,212.800 370.995,212.800 370.720 C 212.800 370.459,213.694 370.368,215.200 370.477 C 216.563 370.576,217.600 370.488,217.600 370.273 C 217.600 370.063,218.310 369.990,219.200 370.109 C 220.172 370.240,220.800 370.162,220.800 369.911 C 220.800 369.652,221.407 369.595,222.429 369.758 C 223.500 369.929,223.972 369.878,223.806 369.609 C 223.657 369.368,224.015 369.194,224.676 369.186 C 225.629 369.173,231.834 368.112,235.200 367.385 C 235.750 367.267,236.473 367.123,236.807 367.066 C 237.141 367.009,237.648 366.818,237.934 366.641 C 238.219 366.464,238.560 366.426,238.690 366.556 C 238.820 366.687,239.149 366.608,239.421 366.382 C 239.693 366.157,240.070 366.007,240.258 366.049 C 240.446 366.092,240.870 366.018,241.200 365.885 C 242.544 365.344,244.946 364.843,245.262 365.039 C 245.448 365.153,245.600 365.036,245.600 364.777 C 245.600 364.504,245.935 364.394,246.400 364.516 C 246.840 364.631,247.200 364.543,247.200 364.320 C 247.200 364.097,247.470 364.018,247.800 364.145 C 248.130 364.271,248.400 364.234,248.400 364.062 C 248.400 363.720,254.690 361.766,255.500 361.856 C 255.775 361.886,256.000 361.771,256.000 361.599 C 256.000 361.427,256.455 361.173,257.011 361.033 C 257.567 360.894,259.041 360.313,260.287 359.743 C 261.533 359.173,262.743 358.674,262.976 358.634 C 263.209 358.594,263.781 358.352,264.247 358.095 C 264.713 357.838,265.208 357.742,265.347 357.881 C 265.486 358.020,265.600 357.923,265.600 357.667 C 265.600 357.410,265.797 357.200,266.038 357.200 C 266.662 357.200,279.298 351.133,279.902 350.543 C 280.179 350.273,280.809 349.926,281.302 349.772 C 281.796 349.618,282.290 349.376,282.400 349.233 C 282.510 349.090,283.950 348.188,285.600 347.227 C 287.250 346.267,290.265 344.329,292.300 342.921 C 294.335 341.513,296.000 340.494,296.000 340.657 C 296.000 340.820,296.225 340.675,296.500 340.335 C 296.978 339.744,302.992 335.036,304.338 334.200 C 304.692 333.980,305.166 333.596,305.391 333.347 C 305.616 333.097,307.690 331.285,310.000 329.320 C 315.453 324.680,325.284 314.333,330.255 308.000 C 334.319 302.824,341.200 292.990,341.200 292.359 C 341.200 292.162,341.339 292.000,341.508 292.000 C 341.677 292.000,342.885 290.065,344.192 287.700 C 345.499 285.335,346.755 283.268,346.984 283.106 C 347.213 282.944,347.255 282.809,347.077 282.806 C 346.780 282.800,351.435 273.653,351.966 273.200 C 352.095 273.090,352.202 272.820,352.204 272.600 C 352.213 271.791,354.917 265.200,355.241 265.200 C 355.424 265.200,355.471 264.930,355.345 264.600 C 355.218 264.270,355.275 264.000,355.472 264.000 C 355.669 264.000,355.854 263.685,355.884 263.300 C 355.915 262.915,356.163 262.060,356.436 261.400 C 356.709 260.740,356.971 260.065,357.016 259.900 C 357.062 259.735,357.136 259.555,357.181 259.500 C 357.225 259.445,357.318 259.130,357.388 258.800 C 357.458 258.470,357.868 257.300,358.299 256.200 C 358.730 255.100,359.405 252.985,359.801 251.500 C 360.196 250.015,360.655 248.800,360.822 248.800 C 360.989 248.800,361.031 248.440,360.916 248.000 C 360.801 247.560,360.891 247.200,361.116 247.200 C 361.341 247.200,361.431 246.840,361.316 246.400 C 361.194 245.935,361.304 245.600,361.577 245.600 C 361.836 245.600,361.943 245.432,361.816 245.226 C 361.597 244.871,362.152 241.685,362.657 240.400 C 362.786 240.070,362.963 239.106,363.049 238.257 C 363.136 237.408,363.334 236.508,363.491 236.257 C 363.647 236.006,363.725 235.412,363.664 234.938 C 363.603 234.464,363.744 233.958,363.978 233.814 C 364.212 233.669,364.298 233.132,364.169 232.619 C 364.040 232.107,364.130 231.567,364.369 231.419 C 364.609 231.271,364.693 230.713,364.557 230.170 C 364.421 229.629,364.525 228.932,364.788 228.614 C 365.051 228.297,365.150 227.671,365.007 227.223 C 364.865 226.774,364.895 226.181,365.074 225.904 C 365.253 225.627,365.436 224.860,365.480 224.200 C 365.524 223.540,365.649 222.100,365.758 221.000 C 366.865 209.823,366.858 197.829,365.739 187.200 C 365.635 186.210,365.504 184.770,365.449 184.000 C 365.393 183.230,365.206 182.285,365.031 181.900 C 364.857 181.515,364.827 180.907,364.964 180.549 C 365.101 180.191,365.011 179.654,364.762 179.354 C 364.514 179.055,364.421 178.369,364.557 177.830 C 364.693 177.287,364.609 176.729,364.369 176.581 C 364.130 176.433,364.040 175.893,364.169 175.381 C 364.298 174.868,364.212 174.331,363.978 174.186 C 363.744 174.042,363.590 173.536,363.636 173.062 C 363.682 172.588,363.593 171.912,363.440 171.560 C 363.286 171.208,363.198 170.758,363.244 170.560 C 363.289 170.362,363.186 169.877,363.014 169.483 C 362.842 169.088,362.812 168.655,362.947 168.520 C 363.082 168.384,363.036 168.077,362.843 167.837 C 362.355 167.227,361.545 163.212,361.821 162.767 C 361.945 162.565,361.836 162.400,361.577 162.400 C 361.307 162.400,361.194 162.067,361.311 161.619 C 361.423 161.190,361.390 160.785,361.238 160.719 C 361.086 160.654,360.385 158.588,359.682 156.129 C 358.978 153.669,358.192 151.149,357.935 150.529 C 357.677 149.908,357.436 149.310,357.399 149.200 C 357.362 149.090,357.214 148.730,357.072 148.400 C 356.323 146.663,355.671 144.399,355.918 144.394 C 356.073 144.391,355.993 144.256,355.740 144.094 C 355.487 143.932,355.217 143.440,355.140 143.000 C 355.063 142.560,354.901 142.110,354.779 142.000 C 354.484 141.732,353.006 137.906,353.003 137.400 C 353.001 137.180,352.864 136.820,352.697 136.600 C 352.531 136.380,350.937 133.320,349.156 129.800 C 346.338 124.231,343.198 118.534,341.200 115.363 C 338.869 111.664,333.351 103.742,332.923 103.480 C 332.635 103.304,332.400 102.964,332.400 102.724 C 332.400 102.484,332.158 102.088,331.863 101.844 C 331.568 101.600,329.967 99.690,328.306 97.600 C 315.964 82.071,295.770 65.631,277.400 56.158 C 274.980 54.910,272.940 53.732,272.866 53.542 C 272.792 53.351,272.567 53.297,272.366 53.421 C 272.165 53.545,272.000 53.446,272.000 53.200 C 272.000 52.954,271.820 52.864,271.600 53.000 C 271.380 53.136,271.200 53.046,271.200 52.800 C 271.200 52.554,271.038 52.453,270.839 52.576 C 270.641 52.698,269.471 52.269,268.239 51.621 C 267.008 50.973,266.000 50.541,266.000 50.661 C 266.000 50.781,265.415 50.536,264.700 50.117 C 263.985 49.697,261.510 48.664,259.200 47.821 C 256.890 46.978,254.910 46.178,254.800 46.044 C 254.690 45.910,254.327 45.782,253.993 45.760 C 253.135 45.703,247.041 43.893,246.800 43.624 C 246.690 43.501,246.150 43.353,245.600 43.295 C 245.050 43.238,244.330 43.073,244.000 42.930 C 243.670 42.786,243.265 42.631,243.100 42.585 C 242.935 42.538,242.755 42.455,242.700 42.399 C 242.645 42.343,242.240 42.244,241.800 42.177 C 241.360 42.111,240.640 41.952,240.200 41.823 C 239.760 41.695,237.600 41.196,235.400 40.715 C 233.200 40.234,231.342 39.703,231.272 39.536 C 231.201 39.368,230.616 39.337,229.972 39.466 C 229.264 39.607,228.800 39.532,228.800 39.275 C 228.800 39.013,228.264 38.937,227.400 39.077 C 226.630 39.202,226.000 39.137,226.000 38.933 C 226.000 38.728,225.370 38.634,224.600 38.724 C 223.788 38.819,223.200 38.712,223.200 38.469 C 223.200 38.214,222.653 38.139,221.800 38.277 C 220.955 38.415,220.400 38.340,220.400 38.090 C 220.400 37.840,219.787 37.758,218.852 37.884 C 217.996 37.999,217.191 37.909,217.052 37.684 C 216.902 37.441,215.852 37.362,214.455 37.489 C 213.116 37.610,212.006 37.534,211.868 37.311 C 211.725 37.078,210.028 36.997,207.669 37.111 C 204.974 37.241,203.621 37.158,203.431 36.851 C 203.066 36.260,196.460 36.274,195.437 36.867 M217.813 109.597 C 235.422 110.668,252.759 116.605,260.790 124.314 L 263.172 126.600 259.146 132.600 C 256.932 135.900,255.066 138.657,254.999 138.727 C 254.933 138.797,254.006 138.184,252.939 137.364 C 244.071 130.545,224.394 126.113,207.904 127.219 C 180.567 129.053,164.127 142.258,154.842 169.840 L 152.432 177.000 194.316 177.200 L 236.200 177.400 236.200 181.800 L 236.200 186.200 193.746 186.302 L 151.293 186.404 151.024 187.502 C 150.877 188.106,150.653 194.765,150.527 202.300 L 150.298 216.000 193.349 216.000 L 236.400 216.000 236.400 220.400 L 236.400 224.800 194.040 224.800 L 151.679 224.800 152.292 227.500 C 158.067 252.960,171.238 269.170,191.356 275.573 C 210.808 281.765,242.100 277.616,256.260 266.968 C 257.816 265.798,257.511 265.454,261.612 272.997 L 264.835 278.926 263.518 280.303 C 253.631 290.636,227.180 297.521,204.600 295.639 C 164.582 292.304,138.651 268.079,130.913 226.800 L 130.575 225.000 124.074 224.890 L 117.573 224.780 117.687 220.490 L 117.800 216.200 123.680 216.089 L 129.561 215.979 129.536 204.289 C 129.523 197.860,129.643 191.205,129.803 189.500 L 130.094 186.400 124.847 186.400 L 119.600 186.400 119.600 181.800 L 119.600 177.200 125.373 177.200 C 130.523 177.200,131.169 177.125,131.359 176.500 C 131.476 176.115,131.931 174.180,132.371 172.200 C 133.105 168.894,135.443 161.806,137.582 156.400 C 141.633 146.160,150.688 134.003,159.600 126.837 C 172.379 116.562,187.828 110.680,204.800 109.629 C 207.550 109.458,210.160 109.294,210.600 109.263 C 211.040 109.232,214.286 109.383,217.813 109.597 " stroke="none" fill="#64b4f4" fill-rule="evenodd"></path><path id="path2" d="M191.600 36.800 C 190.250 37.084,190.243 37.095,191.400 37.100 C 192.060 37.103,193.140 36.968,193.800 36.800 C 195.460 36.378,193.607 36.378,191.600 36.800 M205.000 36.800 C 205.660 36.968,206.740 37.106,207.400 37.107 C 208.409 37.108,208.345 37.055,207.000 36.777 C 204.974 36.358,203.337 36.377,205.000 36.800 M212.800 37.182 C 213.130 37.405,213.745 37.591,214.167 37.594 C 215.190 37.602,214.871 37.373,213.400 37.044 C 212.524 36.848,212.362 36.885,212.800 37.182 M141.800 46.614 C 140.795 47.098,140.763 47.153,141.600 46.951 C 142.150 46.819,142.771 46.550,142.980 46.355 C 143.498 45.871,143.214 45.933,141.800 46.614 M90.922 76.229 L 89.800 77.258 91.100 76.354 C 91.815 75.857,92.400 75.393,92.400 75.325 C 92.400 75.009,91.958 75.280,90.922 76.229 M88.200 78.588 C 87.540 79.129,87.194 79.578,87.430 79.586 C 87.667 79.594,88.283 79.150,88.800 78.600 C 89.994 77.329,89.742 77.324,88.200 78.588 M83.775 82.900 L 82.600 84.200 83.900 83.025 C 85.112 81.930,85.384 81.600,85.075 81.600 C 85.006 81.600,84.421 82.185,83.775 82.900 M315.876 83.827 C 317.238 85.132,319.398 87.291,320.676 88.624 C 321.954 89.958,322.463 90.408,321.806 89.624 C 319.631 87.030,315.818 83.152,314.600 82.297 C 313.940 81.833,314.514 82.522,315.876 83.827 M80.775 85.500 C 77.772 88.748,77.124 89.693,79.335 87.600 C 81.336 85.706,82.739 84.000,82.295 84.000 C 82.222 84.000,81.538 84.675,80.775 85.500 M204.500 109.887 C 205.105 109.978,206.095 109.978,206.700 109.887 C 207.305 109.795,206.810 109.720,205.600 109.720 C 204.390 109.720,203.895 109.795,204.500 109.887 M217.305 109.887 C 217.914 109.979,218.814 109.977,219.305 109.882 C 219.797 109.787,219.300 109.711,218.200 109.714 C 217.100 109.717,216.697 109.795,217.305 109.887 M338.844 111.400 C 338.834 111.620,339.080 112.136,339.391 112.547 C 339.938 113.269,339.955 113.266,339.896 112.475 C 339.862 112.024,339.707 111.734,339.551 111.830 C 339.396 111.926,339.177 111.779,339.066 111.502 C 338.954 111.226,338.855 111.180,338.844 111.400 M346.237 123.800 C 346.597 124.350,346.957 124.800,347.037 124.800 C 347.117 124.800,346.978 124.350,346.727 123.800 C 346.477 123.250,346.116 122.800,345.927 122.800 C 345.737 122.800,345.876 123.250,346.237 123.800 M170.378 142.300 L 169.000 143.800 170.500 142.422 C 171.325 141.663,172.000 140.988,172.000 140.922 C 172.000 140.616,171.662 140.904,170.378 142.300 M150.093 199.600 C 150.093 200.370,150.175 200.685,150.276 200.300 C 150.376 199.915,150.376 199.285,150.276 198.900 C 150.175 198.515,150.093 198.830,150.093 199.600 M150.131 207.800 C 150.133 209.340,150.205 209.921,150.292 209.091 C 150.379 208.261,150.377 207.001,150.289 206.291 C 150.200 205.581,150.129 206.260,150.131 207.800 M129.600 215.322 C 129.600 215.894,128.865 215.994,123.900 216.101 L 118.200 216.224 123.913 216.312 C 129.519 216.398,130.987 216.053,129.849 214.916 C 129.712 214.779,129.600 214.962,129.600 215.322 M171.469 216.300 C 183.167 216.359,202.427 216.359,214.269 216.300 C 226.111 216.241,216.540 216.193,193.000 216.193 C 169.460 216.193,159.771 216.241,171.469 216.300 M354.236 267.542 C 353.794 268.258,353.166 270.182,353.499 269.800 C 353.940 269.294,354.839 267.200,354.615 267.200 C 354.523 267.200,354.352 267.354,354.236 267.542 M262.175 281.300 L 261.000 282.600 262.300 281.425 C 263.015 280.779,263.600 280.194,263.600 280.125 C 263.600 279.816,263.270 280.088,262.175 281.300 M347.781 281.237 C 347.429 281.918,347.212 282.545,347.299 282.632 C 347.386 282.719,347.756 282.162,348.122 281.395 C 348.944 279.670,348.659 279.538,347.781 281.237 M210.500 295.891 C 211.325 295.978,212.675 295.978,213.500 295.891 C 214.325 295.805,213.650 295.734,212.000 295.734 C 210.350 295.734,209.675 295.805,210.500 295.891 M322.129 317.700 C 321.073 318.873,320.530 319.814,321.120 319.450 C 321.600 319.153,323.356 316.800,323.097 316.800 C 323.010 316.800,322.575 317.205,322.129 317.700 M76.817 318.200 C 78.534 320.343,82.561 324.430,84.200 325.694 C 85.222 326.481,84.915 326.073,83.350 324.563 C 82.002 323.263,79.765 321.030,78.378 319.600 C 76.991 318.170,76.289 317.540,76.817 318.200 M314.000 326.036 C 313.230 326.705,312.962 327.076,313.404 326.863 C 314.134 326.510,315.948 324.785,315.562 324.811 C 315.473 324.817,314.770 325.368,314.000 326.036 M90.974 331.958 C 91.123 332.199,91.616 332.595,92.071 332.838 C 92.662 333.154,92.820 333.156,92.626 332.842 C 92.477 332.601,91.984 332.205,91.529 331.962 C 90.938 331.646,90.780 331.644,90.974 331.958 M184.200 370.800 C 184.336 371.020,184.717 371.200,185.047 371.200 C 185.377 371.200,185.536 371.020,185.400 370.800 C 185.264 370.580,184.883 370.400,184.553 370.400 C 184.223 370.400,184.064 370.580,184.200 370.800 M213.400 370.800 C 213.264 371.020,213.423 371.200,213.753 371.200 C 214.083 371.200,214.464 371.020,214.600 370.800 C 214.736 370.580,214.577 370.400,214.247 370.400 C 213.917 370.400,213.536 370.580,213.400 370.800 M190.600 371.200 C 191.784 371.709,193.187 371.709,192.400 371.200 C 192.070 370.987,191.350 370.822,190.800 370.834 C 189.884 370.854,189.867 370.885,190.600 371.200 M206.400 371.200 C 205.613 371.709,207.016 371.709,208.200 371.200 C 208.933 370.885,208.916 370.854,208.000 370.834 C 207.450 370.822,206.730 370.987,206.400 371.200 " stroke="none" fill="#98cbf8" fill-rule="evenodd"></path><path id="path3" d="M189.815 36.776 C 189.676 37.001,190.191 37.059,191.091 36.920 C 193.100 36.610,193.261 36.400,191.490 36.400 C 190.697 36.400,189.943 36.569,189.815 36.776 M206.033 36.543 C 206.450 36.902,209.197 37.119,208.985 36.776 C 208.857 36.569,208.103 36.400,207.310 36.400 C 206.516 36.400,205.942 36.465,206.033 36.543 M183.400 37.200 C 183.105 37.678,183.889 37.678,185.000 37.200 C 185.714 36.893,185.685 36.853,184.724 36.828 C 184.132 36.813,183.536 36.980,183.400 37.200 M213.233 36.944 C 213.705 37.350,215.643 37.593,215.410 37.216 C 215.268 36.987,214.683 36.800,214.110 36.800 C 213.536 36.800,213.142 36.865,213.233 36.944 M108.831 62.510 C 107.951 63.053,107.658 63.419,108.011 63.537 C 108.313 63.638,108.629 63.513,108.713 63.260 C 108.798 63.007,109.045 62.800,109.262 62.800 C 109.479 62.800,109.927 62.530,110.257 62.200 C 111.088 61.369,110.461 61.505,108.831 62.510 M288.000 61.892 C 288.330 62.017,288.725 62.313,288.878 62.548 C 289.031 62.784,289.296 62.837,289.467 62.667 C 289.837 62.296,288.848 61.602,288.000 61.638 C 287.467 61.660,287.467 61.689,288.000 61.892 M296.000 67.164 C 296.550 67.614,297.180 67.983,297.400 67.985 C 297.828 67.988,297.105 67.434,295.800 66.760 C 295.269 66.485,295.336 66.621,296.000 67.164 M100.456 68.413 C 99.216 69.446,99.775 69.435,101.091 68.400 C 101.650 67.960,101.949 67.606,101.754 67.613 C 101.559 67.621,100.975 67.981,100.456 68.413 M305.200 74.154 C 305.200 74.239,305.695 74.627,306.300 75.016 L 307.400 75.724 306.638 74.862 C 305.964 74.099,305.200 73.723,305.200 74.154 M308.199 76.798 C 308.334 77.017,308.840 77.403,309.322 77.656 C 310.194 78.113,310.195 78.110,309.438 77.258 C 308.675 76.398,307.736 76.050,308.199 76.798 M311.800 79.968 C 312.240 80.473,313.140 81.261,313.800 81.719 L 315.000 82.551 314.200 81.632 C 313.760 81.127,312.860 80.339,312.200 79.881 L 311.000 79.049 311.800 79.968 M84.328 82.035 L 82.200 84.070 84.500 82.159 C 85.765 81.108,86.800 80.192,86.800 80.124 C 86.800 79.769,86.264 80.183,84.328 82.035 M77.560 88.700 C 75.901 90.474,75.024 91.600,75.302 91.600 C 75.413 91.600,76.349 90.610,77.382 89.400 C 79.534 86.881,79.636 86.480,77.560 88.700 M321.999 89.801 C 322.768 90.680,323.555 91.580,323.748 91.800 C 323.940 92.020,323.911 91.840,323.683 91.400 C 323.455 90.960,322.668 90.060,321.934 89.401 L 320.600 88.202 321.999 89.801 M73.123 93.500 C 72.360 94.389,71.895 95.200,72.149 95.200 C 72.257 95.200,72.730 94.660,73.200 94.000 C 74.132 92.691,74.084 92.381,73.123 93.500 M325.806 94.112 C 326.192 94.724,326.609 95.124,326.732 95.001 C 326.855 94.878,326.539 94.378,326.030 93.889 L 325.104 93.000 325.806 94.112 M70.400 96.600 C 70.117 96.941,69.976 97.309,70.086 97.419 C 70.196 97.529,70.517 97.341,70.800 97.000 C 71.083 96.659,71.224 96.291,71.114 96.181 C 71.004 96.071,70.683 96.259,70.400 96.600 M61.464 108.400 C 61.074 109.060,60.821 109.600,60.902 109.600 C 60.983 109.600,61.449 109.060,61.937 108.400 C 62.425 107.740,62.677 107.200,62.498 107.200 C 62.319 107.200,61.854 107.740,61.464 108.400 M337.738 109.531 C 338.102 109.934,338.400 110.504,338.400 110.798 C 338.400 111.093,338.520 111.213,338.667 111.066 C 339.009 110.724,337.993 108.800,337.470 108.800 C 337.253 108.800,337.374 109.129,337.738 109.531 M209.700 109.896 C 210.965 109.975,213.035 109.975,214.300 109.896 C 215.565 109.816,214.530 109.751,212.000 109.751 C 209.470 109.751,208.435 109.816,209.700 109.896 M54.664 118.800 C 54.272 119.462,54.144 120.000,54.377 120.000 C 54.610 120.000,54.800 119.730,54.800 119.400 C 54.800 119.070,54.961 118.800,55.157 118.800 C 55.354 118.800,55.618 118.530,55.745 118.200 C 56.151 117.141,55.396 117.560,54.664 118.800 M52.097 123.700 C 51.503 124.442,49.923 127.657,50.077 127.811 C 50.151 127.884,50.770 126.876,51.454 125.572 C 52.699 123.199,52.849 122.762,52.097 123.700 M261.225 125.031 C 261.981 125.928,262.681 126.597,262.780 126.517 C 262.879 126.438,262.260 125.704,261.405 124.887 L 259.850 123.400 261.225 125.031 M154.591 131.700 L 151.400 135.000 154.700 131.809 C 156.515 130.055,158.000 128.570,158.000 128.509 C 158.000 128.218,157.554 128.635,154.591 131.700 M184.400 132.200 C 183.850 132.514,183.580 132.772,183.800 132.772 C 184.020 132.772,184.650 132.514,185.200 132.200 C 185.750 131.886,186.020 131.628,185.800 131.628 C 185.580 131.628,184.950 131.886,184.400 132.200 M47.281 132.902 C 46.830 133.446,46.130 135.942,46.531 135.579 C 46.853 135.287,48.055 132.400,47.854 132.400 C 47.768 132.400,47.510 132.626,47.281 132.902 M351.606 134.214 C 351.617 134.903,352.348 135.785,352.654 135.479 C 352.818 135.315,352.648 134.877,352.276 134.505 C 351.904 134.133,351.603 134.002,351.606 134.214 M235.750 181.800 C 235.751 184.220,235.816 185.158,235.896 183.885 C 235.976 182.612,235.975 180.632,235.894 179.485 C 235.814 178.338,235.749 179.380,235.750 181.800 M130.124 188.200 C 130.126 189.520,130.201 190.012,130.290 189.293 C 130.379 188.574,130.377 187.494,130.286 186.893 C 130.195 186.292,130.122 186.880,130.124 188.200 M129.740 196.400 C 129.740 198.270,129.809 199.035,129.893 198.100 C 129.977 197.165,129.977 195.635,129.893 194.700 C 129.809 193.765,129.740 194.530,129.740 196.400 M366.493 194.800 C 366.493 195.570,366.575 195.885,366.676 195.500 C 366.776 195.115,366.776 194.485,366.676 194.100 C 366.575 193.715,366.493 194.030,366.493 194.800 M150.120 196.400 C 150.120 197.610,150.195 198.105,150.287 197.500 C 150.378 196.895,150.378 195.905,150.287 195.300 C 150.195 194.695,150.120 195.190,150.120 196.400 M32.101 196.200 C 32.105 197.080,32.187 197.393,32.283 196.895 C 32.379 196.398,32.375 195.678,32.275 195.295 C 32.175 194.913,32.096 195.320,32.101 196.200 M129.748 210.800 C 129.748 213.110,129.814 214.055,129.895 212.900 C 129.976 211.745,129.976 209.855,129.895 208.700 C 129.814 207.545,129.748 208.490,129.748 210.800 M32.101 211.800 C 32.105 212.680,32.187 212.993,32.283 212.495 C 32.379 211.998,32.375 211.278,32.275 210.895 C 32.175 210.513,32.096 210.920,32.101 211.800 M150.131 213.000 C 150.133 214.540,150.205 215.121,150.292 214.291 C 150.379 213.461,150.377 212.201,150.289 211.491 C 150.200 210.781,150.129 211.460,150.131 213.000 M366.493 213.200 C 366.493 213.970,366.575 214.285,366.676 213.900 C 366.776 213.515,366.776 212.885,366.676 212.500 C 366.575 212.115,366.493 212.430,366.493 213.200 M235.750 220.600 C 235.751 223.020,235.816 223.958,235.896 222.685 C 235.976 221.412,235.975 219.432,235.894 218.285 C 235.814 217.138,235.749 218.180,235.750 220.600 M170.000 263.400 C 171.195 264.610,172.263 265.600,172.373 265.600 C 172.483 265.600,171.595 264.610,170.400 263.400 C 169.205 262.190,168.137 261.200,168.027 261.200 C 167.917 261.200,168.805 262.190,170.000 263.400 M151.600 271.310 C 151.600 271.371,152.995 272.766,154.700 274.410 L 157.800 277.400 154.810 274.300 C 152.033 271.421,151.600 271.017,151.600 271.310 M46.922 274.400 C 47.172 275.060,47.507 275.600,47.667 275.600 C 47.827 275.600,47.770 275.060,47.540 274.400 C 47.310 273.740,46.975 273.200,46.796 273.200 C 46.616 273.200,46.673 273.740,46.922 274.400 M208.100 279.091 C 208.925 279.178,210.275 279.178,211.100 279.091 C 211.925 279.005,211.250 278.934,209.600 278.934 C 207.950 278.934,207.275 279.005,208.100 279.091 M214.300 279.089 C 215.015 279.178,216.185 279.178,216.900 279.089 C 217.615 279.001,217.030 278.928,215.600 278.928 C 214.170 278.928,213.585 279.001,214.300 279.089 M50.400 280.947 C 50.400 281.433,52.368 285.133,52.754 285.371 C 52.957 285.497,52.571 284.565,51.897 283.300 C 50.548 280.768,50.400 280.535,50.400 280.947 M168.800 284.996 C 168.800 285.270,171.249 286.484,171.432 286.301 C 171.519 286.214,170.962 285.844,170.195 285.478 C 169.428 285.112,168.800 284.895,168.800 284.996 M55.218 290.034 C 55.464 290.493,55.744 290.789,55.842 290.692 C 56.122 290.412,55.554 289.200,55.143 289.200 C 54.939 289.200,54.973 289.575,55.218 290.034 M338.400 297.400 C 338.400 297.730,338.220 298.000,338.000 298.000 C 337.780 298.000,337.600 298.193,337.600 298.429 C 337.600 298.664,337.321 299.136,336.981 299.476 C 336.640 299.817,336.462 300.196,336.585 300.318 C 336.821 300.554,337.515 299.719,338.593 297.900 C 338.965 297.272,339.064 296.800,338.823 296.800 C 338.590 296.800,338.400 297.070,338.400 297.400 M61.615 299.800 C 61.634 300.362,63.596 302.698,63.598 302.162 C 63.599 301.921,63.150 301.201,62.600 300.562 C 62.051 299.923,61.607 299.580,61.615 299.800 M69.600 310.302 C 69.600 310.522,69.870 310.926,70.200 311.200 C 70.535 311.478,70.800 311.521,70.800 311.298 C 70.800 311.078,70.530 310.674,70.200 310.400 C 69.865 310.122,69.600 310.079,69.600 310.302 M72.600 314.000 C 72.998 314.440,73.392 314.800,73.476 314.800 C 73.560 314.800,73.435 314.440,73.200 314.000 C 72.965 313.560,72.570 313.200,72.324 313.200 C 72.078 313.200,72.202 313.560,72.600 314.000 M323.944 315.900 C 322.406 317.757,322.134 318.268,323.144 317.404 C 324.005 316.668,325.025 315.200,324.676 315.200 C 324.592 315.200,324.263 315.515,323.944 315.900 M75.848 317.600 C 76.662 318.480,77.398 319.200,77.483 319.200 C 77.568 319.200,77.059 318.480,76.352 317.600 C 75.645 316.720,74.909 316.000,74.717 316.000 C 74.525 316.000,75.034 316.720,75.848 317.600 M84.600 326.360 C 85.506 327.409,87.893 329.197,87.467 328.508 C 87.314 328.261,86.426 327.468,85.494 326.746 C 84.349 325.859,84.059 325.734,84.600 326.360 M312.122 327.824 C 311.305 328.570,311.226 328.739,311.833 328.446 C 312.663 328.045,313.902 326.800,313.471 326.800 C 313.347 326.800,312.740 327.261,312.122 327.824 M89.400 330.800 C 89.798 331.240,90.304 331.600,90.524 331.600 C 90.744 331.600,90.598 331.240,90.200 330.800 C 89.802 330.360,89.296 330.000,89.076 330.000 C 88.856 330.000,89.002 330.360,89.400 330.800 M307.992 331.410 C 307.244 332.311,307.678 332.415,308.570 331.548 C 308.993 331.137,309.151 330.800,308.919 330.800 C 308.687 330.800,308.270 331.074,307.992 331.410 M297.100 340.033 C 296.188 341.032,296.601 341.014,297.891 340.000 C 298.450 339.560,298.659 339.215,298.354 339.233 C 298.049 339.252,297.485 339.612,297.100 340.033 M117.200 350.196 C 117.200 350.470,119.649 351.684,119.832 351.501 C 119.919 351.414,119.362 351.044,118.595 350.678 C 117.828 350.312,117.200 350.095,117.200 350.196 M274.500 353.507 C 273.345 354.089,272.400 354.712,272.400 354.891 C 272.400 355.251,274.946 354.014,276.200 353.044 C 277.321 352.177,276.924 352.286,274.500 353.507 M123.600 353.532 C 123.600 353.708,124.230 354.152,125.000 354.519 C 125.770 354.887,126.400 355.043,126.400 354.868 C 126.400 354.692,125.770 354.248,125.000 353.881 C 124.230 353.513,123.600 353.357,123.600 353.532 M221.600 370.000 C 221.600 370.220,221.870 370.400,222.200 370.400 C 222.530 370.400,222.800 370.220,222.800 370.000 C 222.800 369.780,222.530 369.600,222.200 369.600 C 221.870 369.600,221.600 369.780,221.600 370.000 M179.000 370.400 C 179.136 370.620,179.517 370.800,179.847 370.800 C 180.177 370.800,180.336 370.620,180.200 370.400 C 180.064 370.180,179.683 370.000,179.353 370.000 C 179.023 370.000,178.864 370.180,179.000 370.400 M218.600 370.400 C 218.464 370.620,218.623 370.800,218.953 370.800 C 219.283 370.800,219.664 370.620,219.800 370.400 C 219.936 370.180,219.777 370.000,219.447 370.000 C 219.117 370.000,218.736 370.180,218.600 370.400 M182.600 370.800 C 182.736 371.020,183.207 371.200,183.647 371.200 C 184.087 371.200,184.336 371.020,184.200 370.800 C 184.064 370.580,183.593 370.400,183.153 370.400 C 182.713 370.400,182.464 370.580,182.600 370.800 M214.600 370.800 C 214.464 371.020,214.713 371.200,215.153 371.200 C 215.593 371.200,216.064 371.020,216.200 370.800 C 216.336 370.580,216.087 370.400,215.647 370.400 C 215.207 370.400,214.736 370.580,214.600 370.800 M188.600 371.200 C 189.040 371.389,189.850 371.544,190.400 371.544 C 191.312 371.544,191.329 371.513,190.600 371.200 C 190.160 371.011,189.350 370.856,188.800 370.856 C 187.888 370.856,187.871 370.887,188.600 371.200 M208.200 371.200 C 207.467 371.515,207.484 371.546,208.400 371.566 C 208.950 371.578,209.670 371.413,210.000 371.200 C 210.787 370.691,209.384 370.691,208.200 371.200 " stroke="none" fill="#bbdefc" fill-rule="evenodd"></path><path id="path4" d="M193.800 36.800 L 192.600 37.105 193.800 37.147 C 194.460 37.169,195.270 37.013,195.600 36.800 C 196.343 36.320,195.687 36.320,193.800 36.800 M203.404 36.806 C 203.538 37.023,204.207 37.200,204.890 37.200 C 206.401 37.200,206.249 37.000,204.480 36.663 C 203.655 36.506,203.252 36.560,203.404 36.806 M243.827 42.755 C 244.252 43.144,246.729 43.796,246.354 43.420 C 246.219 43.286,245.511 43.004,244.781 42.795 C 244.051 42.585,243.622 42.568,243.827 42.755 M316.800 85.000 C 317.995 86.210,319.063 87.200,319.173 87.200 C 319.283 87.200,318.395 86.210,317.200 85.000 C 316.005 83.790,314.937 82.800,314.827 82.800 C 314.717 82.800,315.605 83.790,316.800 85.000 M323.578 92.128 C 324.337 92.937,325.006 93.600,325.066 93.600 C 325.472 93.600,324.533 92.438,323.473 91.628 L 322.200 90.655 323.578 92.128 M68.323 99.900 C 67.618 100.721,67.090 101.600,67.301 101.600 C 67.383 101.600,67.849 101.060,68.337 100.400 C 69.301 99.096,69.292 98.772,68.323 99.900 M210.707 109.490 C 211.426 109.579,212.506 109.577,213.107 109.486 C 213.708 109.395,213.120 109.322,211.800 109.324 C 210.480 109.326,209.988 109.401,210.707 109.490 M51.381 125.637 C 51.029 126.318,50.812 126.945,50.899 127.032 C 50.986 127.119,51.356 126.562,51.722 125.795 C 52.544 124.070,52.259 123.938,51.381 125.637 M347.078 125.795 C 347.444 126.562,347.814 127.119,347.901 127.032 C 348.084 126.849,346.870 124.400,346.596 124.400 C 346.495 124.400,346.712 125.028,347.078 125.795 M209.505 127.083 C 210.002 127.179,210.722 127.175,211.105 127.075 C 211.487 126.975,211.080 126.896,210.200 126.901 C 209.320 126.905,209.007 126.987,209.505 127.083 M217.105 127.083 C 217.602 127.179,218.322 127.175,218.705 127.075 C 219.087 126.975,218.680 126.896,217.800 126.901 C 216.920 126.905,216.607 126.987,217.105 127.083 M154.589 131.300 L 151.800 134.200 154.700 131.411 C 157.394 128.820,157.783 128.400,157.489 128.400 C 157.428 128.400,156.123 129.705,154.589 131.300 M356.444 146.809 C 356.700 147.574,357.070 148.376,357.265 148.591 C 357.461 148.806,357.412 148.356,357.156 147.591 C 356.900 146.826,356.530 146.024,356.335 145.809 C 356.139 145.594,356.188 146.044,356.444 146.809 M131.200 176.733 C 131.200 177.064,129.478 177.226,125.300 177.288 L 119.400 177.376 125.169 177.500 C 130.516 177.614,132.279 177.346,131.473 176.540 C 131.323 176.390,131.200 176.477,131.200 176.733 M194.100 177.499 L 236.000 177.604 236.000 181.800 L 236.000 185.996 193.700 186.101 L 151.400 186.205 193.800 186.203 L 236.200 186.200 236.200 181.800 L 236.200 177.400 194.200 177.397 L 152.200 177.394 194.100 177.499 M122.100 186.297 C 123.585 186.374,126.015 186.374,127.500 186.297 C 128.985 186.220,127.770 186.157,124.800 186.157 C 121.830 186.157,120.615 186.220,122.100 186.297 M129.314 202.600 C 129.317 203.700,129.395 204.103,129.487 203.495 C 129.579 202.886,129.577 201.986,129.482 201.495 C 129.387 201.003,129.311 201.500,129.314 202.600 M150.124 203.000 C 150.126 204.320,150.201 204.812,150.290 204.093 C 150.379 203.374,150.377 202.294,150.286 201.693 C 150.195 201.092,150.122 201.680,150.124 203.000 M117.772 216.528 C 117.661 216.819,117.623 218.844,117.688 221.028 L 117.806 225.000 118.003 220.499 C 118.198 216.045,118.166 215.501,117.772 216.528 M235.908 219.099 C 236.100 224.578,236.264 225.119,236.333 220.500 C 236.370 218.025,236.265 216.000,236.100 215.999 C 235.935 215.999,235.849 217.394,235.908 219.099 M170.400 263.400 C 171.595 264.610,172.663 265.600,172.773 265.600 C 172.883 265.600,171.995 264.610,170.800 263.400 C 169.605 262.190,168.537 261.200,168.427 261.200 C 168.317 261.200,169.205 262.190,170.400 263.400 M206.291 278.689 C 207.001 278.777,208.261 278.779,209.091 278.692 C 209.921 278.605,209.340 278.533,207.800 278.531 C 206.260 278.529,205.581 278.600,206.291 278.689 M216.291 278.689 C 217.001 278.777,218.261 278.779,219.091 278.692 C 219.921 278.605,219.340 278.533,217.800 278.531 C 216.260 278.529,215.581 278.600,216.291 278.689 M207.300 295.876 C 207.685 295.976,208.315 295.976,208.700 295.876 C 209.085 295.775,208.770 295.693,208.000 295.693 C 207.230 295.693,206.915 295.775,207.300 295.876 M215.705 295.887 C 216.314 295.979,217.214 295.977,217.705 295.882 C 218.197 295.787,217.700 295.711,216.600 295.714 C 215.500 295.717,215.097 295.795,215.705 295.887 M329.026 309.500 C 328.162 310.605,328.093 310.790,328.763 310.204 C 329.565 309.504,330.623 308.000,330.314 308.000 C 330.251 308.000,329.672 308.675,329.026 309.500 M75.400 316.400 C 76.259 317.280,77.052 318.000,77.162 318.000 C 77.272 318.000,76.659 317.280,75.800 316.400 C 74.941 315.520,74.148 314.800,74.038 314.800 C 73.928 314.800,74.541 315.520,75.400 316.400 M317.392 322.458 C 315.416 324.470,314.430 325.651,315.200 325.084 C 317.128 323.664,321.706 318.800,321.115 318.800 C 321.043 318.800,319.367 320.446,317.392 322.458 M81.983 323.300 C 83.641 325.066,84.000 325.384,84.000 325.083 C 84.000 325.019,83.145 324.164,82.100 323.183 L 80.200 321.400 81.983 323.300 M310.598 328.802 C 310.198 329.244,309.966 329.699,310.082 329.815 C 310.197 329.930,310.590 329.569,310.955 329.012 C 311.752 327.796,311.593 327.702,310.598 328.802 M303.170 335.100 L 302.200 336.200 303.400 335.200 C 304.060 334.650,304.675 334.155,304.767 334.100 C 304.858 334.045,304.755 334.000,304.536 334.000 C 304.318 334.000,303.703 334.495,303.170 335.100 M133.146 357.816 C 133.886 358.137,134.606 358.394,134.746 358.386 C 135.266 358.357,132.976 357.228,132.400 357.230 C 132.070 357.231,132.406 357.494,133.146 357.816 M192.400 371.200 C 193.176 371.701,193.600 371.701,193.600 371.200 C 193.600 370.980,193.195 370.803,192.700 370.806 C 191.972 370.811,191.915 370.886,192.400 371.200 M205.200 371.200 C 205.200 371.701,205.624 371.701,206.400 371.200 C 206.885 370.886,206.828 370.811,206.100 370.806 C 205.605 370.803,205.200 370.980,205.200 371.200 " stroke="none" fill="#84c4f4" fill-rule="evenodd"></path></g></svg>