<svg id="svg" version="1.1" width="400" height="401.6842105263158" viewBox="0 0 400 401.6842105263158" xmlns="http://www.w3.org/2000/svg" xmlns:xlink="http://www.w3.org/1999/xlink" ><g id="svgg"><path id="path0" d="M125.200 50.600 C 124.650 50.914,124.380 51.172,124.600 51.172 C 124.820 51.172,125.450 50.914,126.000 50.600 C 126.550 50.286,126.820 50.028,126.600 50.028 C 126.380 50.028,125.750 50.286,125.200 50.600 M86.800 76.600 C 86.522 76.935,86.479 77.200,86.702 77.200 C 86.922 77.200,87.326 76.930,87.600 76.600 C 87.878 76.265,87.921 76.000,87.698 76.000 C 87.478 76.000,87.074 76.270,86.800 76.600 M184.550 93.076 C 181.967 93.582,181.812 94.272,181.676 105.810 L 181.552 116.357 179.276 116.984 C 145.906 126.175,133.506 164.033,156.386 186.863 C 161.861 192.327,173.366 199.569,180.300 201.918 L 181.600 202.358 181.600 232.979 C 181.600 249.821,181.525 263.600,181.433 263.600 C 180.699 263.600,176.990 261.626,174.535 259.929 C 166.977 254.705,162.645 247.603,161.543 238.633 L 161.072 234.800 150.336 234.800 L 139.600 234.800 139.602 236.700 C 139.618 257.187,155.515 274.635,181.069 282.212 C 181.399 282.310,181.576 284.584,181.669 289.934 C 181.815 298.363,181.923 298.717,184.633 299.611 C 188.397 300.853,189.573 298.762,189.700 290.600 L 189.800 284.200 191.000 284.301 C 191.660 284.357,196.283 284.514,201.273 284.652 L 210.346 284.901 210.473 291.242 C 210.622 298.706,211.147 299.830,214.443 299.743 C 217.782 299.656,218.178 298.726,218.333 290.613 L 218.465 283.643 220.733 283.193 C 245.514 278.274,260.173 262.439,260.164 240.600 C 260.155 218.896,249.090 205.562,222.300 194.973 L 218.400 193.431 218.400 164.115 C 218.400 138.081,218.468 134.800,219.011 134.800 C 219.901 134.800,224.273 137.073,226.651 138.771 C 232.587 143.012,237.984 152.895,238.004 159.564 C 238.007 160.354,238.120 161.675,238.257 162.500 L 238.505 164.000 249.252 164.000 L 260.000 164.000 259.998 162.300 C 259.980 142.722,245.319 124.457,223.991 117.442 L 218.600 115.669 218.400 105.534 C 218.158 93.270,217.480 91.722,212.997 93.201 C 210.733 93.948,210.620 94.454,210.400 104.800 L 210.200 114.200 209.000 114.133 C 205.164 113.917,194.642 114.061,192.600 114.358 C 189.381 114.825,189.600 115.512,189.600 104.950 C 189.600 98.980,189.442 95.253,189.168 94.740 C 188.770 93.997,186.444 92.727,185.713 92.854 C 185.541 92.884,185.017 92.984,184.550 93.076 M49.675 125.819 C 48.470 128.300,48.605 128.647,49.846 126.261 C 50.401 125.194,50.787 124.253,50.703 124.170 C 50.619 124.086,50.157 124.828,49.675 125.819 M209.700 132.207 C 210.390 132.482,210.861 189.805,210.179 190.487 C 209.884 190.783,199.252 187.622,194.000 185.677 L 189.800 184.122 189.697 158.712 C 189.616 138.692,189.701 133.215,190.097 132.887 C 191.394 131.816,207.328 131.263,209.700 132.207 M181.600 157.800 C 181.600 170.430,181.447 180.000,181.246 180.000 C 180.417 180.000,175.597 176.434,173.154 174.013 C 164.374 165.312,164.663 149.725,173.771 140.792 C 175.717 138.883,180.473 135.605,181.300 135.601 C 181.465 135.601,181.600 145.590,181.600 157.800 M367.337 201.000 C 367.339 202.760,367.409 203.430,367.493 202.489 C 367.578 201.549,367.577 200.109,367.491 199.289 C 367.405 198.470,367.336 199.240,367.337 201.000 M197.114 207.825 C 200.351 208.837,204.665 210.205,206.700 210.865 L 210.400 212.066 210.400 239.390 L 210.400 266.713 209.346 266.978 C 206.656 267.653,193.424 267.080,190.300 266.154 C 189.641 265.958,189.600 264.176,189.600 236.040 C 189.600 206.501,189.641 205.377,190.693 205.780 C 190.987 205.893,193.877 206.813,197.114 207.825 M222.126 216.978 C 235.285 223.222,240.742 233.529,237.958 246.880 C 236.259 255.025,225.671 265.095,218.700 265.196 C 218.535 265.198,218.400 254.040,218.400 240.400 C 218.400 223.676,218.534 215.600,218.811 215.600 C 219.038 215.600,220.529 216.220,222.126 216.978 M318.210 319.590 C 316.910 320.904,315.925 322.042,316.023 322.119 C 316.120 322.195,317.322 321.120,318.693 319.729 C 320.064 318.338,321.049 317.200,320.881 317.200 C 320.713 317.200,319.511 318.275,318.210 319.590 M296.252 338.209 C 296.061 338.706,296.164 338.741,296.809 338.395 C 297.736 337.899,297.824 337.600,297.043 337.600 C 296.736 337.600,296.380 337.874,296.252 338.209 M198.311 368.693 C 199.251 368.778,200.691 368.777,201.511 368.691 C 202.330 368.605,201.560 368.536,199.800 368.537 C 198.040 368.539,197.370 368.609,198.311 368.693 " stroke="none" fill="#fafbfc" fill-rule="evenodd"></path><path id="path1" d="M194.600 34.020 C 193.500 34.230,191.430 34.388,190.000 34.373 C 188.570 34.357,186.140 34.466,184.600 34.613 C 183.060 34.761,181.149 34.928,180.353 34.984 C 179.558 35.041,178.700 35.215,178.447 35.371 C 178.194 35.528,177.585 35.616,177.093 35.568 C 176.602 35.520,175.930 35.594,175.600 35.731 C 175.270 35.869,174.010 36.030,172.800 36.091 C 171.590 36.151,170.510 36.297,170.400 36.416 C 170.050 36.794,162.789 38.041,162.386 37.792 C 162.174 37.660,162.000 37.710,162.000 37.903 C 162.000 38.393,156.130 39.728,155.551 39.369 C 155.252 39.185,155.182 39.248,155.362 39.538 C 155.532 39.814,155.390 40.000,155.009 40.000 C 154.357 40.000,144.524 43.306,138.400 45.584 C 136.530 46.280,133.335 47.636,131.300 48.599 C 129.265 49.562,127.597 50.226,127.594 50.075 C 127.591 49.924,127.456 49.993,127.294 50.230 C 127.132 50.466,124.390 52.005,121.200 53.649 C 118.010 55.293,114.140 57.459,112.600 58.463 C 111.060 59.466,108.460 61.144,106.822 62.191 C 81.004 78.696,56.107 109.319,44.863 138.400 C 40.958 148.500,40.419 149.969,39.975 151.734 C 39.716 152.760,39.336 153.600,39.129 153.600 C 38.922 153.600,38.857 153.769,38.984 153.975 C 39.218 154.352,37.230 162.828,36.820 163.200 C 36.699 163.310,36.578 163.850,36.551 164.400 C 36.456 166.378,35.450 171.600,35.166 171.600 C 35.006 171.600,34.968 171.957,35.083 172.394 C 35.197 172.831,35.153 173.506,34.986 173.894 C 34.818 174.282,34.720 175.002,34.768 175.493 C 34.816 175.985,34.723 176.601,34.561 176.863 C 34.399 177.124,34.225 177.802,34.174 178.369 C 34.085 179.349,33.774 181.986,33.438 184.600 C 32.687 190.450,32.458 202.149,32.938 210.200 C 33.276 215.875,33.373 217.013,33.828 220.600 C 33.967 221.700,34.150 223.140,34.234 223.800 C 34.317 224.460,34.572 225.900,34.800 227.000 C 35.028 228.100,35.184 229.270,35.146 229.600 C 35.108 229.930,35.214 230.515,35.381 230.900 C 35.549 231.285,35.586 231.858,35.465 232.174 C 35.344 232.490,35.370 232.805,35.522 232.874 C 35.675 232.943,36.223 235.070,36.739 237.600 C 37.570 241.667,40.777 253.596,41.471 255.200 C 41.614 255.530,41.749 255.890,41.772 256.000 C 41.794 256.110,41.930 256.384,42.073 256.608 C 42.711 257.606,45.143 264.569,44.958 264.868 C 44.845 265.050,44.910 265.200,45.103 265.200 C 45.295 265.200,45.875 266.235,46.390 267.500 C 63.376 309.172,101.311 343.826,147.432 359.803 C 150.141 360.742,152.232 361.649,152.079 361.819 C 151.925 361.989,152.015 362.005,152.277 361.855 C 152.745 361.586,159.608 363.107,160.000 363.566 C 160.110 363.695,160.470 363.800,160.800 363.800 C 162.160 363.800,170.000 365.397,170.000 365.675 C 170.000 365.840,170.250 365.879,170.556 365.761 C 170.862 365.644,172.077 365.742,173.256 365.979 C 174.435 366.216,175.940 366.480,176.600 366.565 C 182.945 367.378,183.492 367.435,189.200 367.858 C 198.134 368.522,211.546 368.136,220.000 366.973 C 220.990 366.836,222.340 366.654,223.000 366.568 C 223.660 366.481,225.165 366.216,226.344 365.979 C 227.523 365.742,228.738 365.644,229.044 365.761 C 229.350 365.879,229.600 365.833,229.600 365.659 C 229.600 365.355,234.739 364.349,236.800 364.249 C 237.350 364.222,237.890 364.095,238.000 363.966 C 238.335 363.574,246.823 361.567,247.190 361.794 C 247.378 361.910,247.592 361.859,247.666 361.682 C 247.845 361.251,257.198 357.950,257.206 358.315 C 257.209 358.472,257.344 358.402,257.506 358.159 C 257.785 357.740,261.754 356.218,262.600 356.206 C 262.820 356.203,263.090 356.087,263.200 355.948 C 263.310 355.809,265.110 354.966,267.200 354.073 C 282.076 347.721,300.623 335.629,312.149 324.767 C 313.880 323.135,315.450 321.742,315.637 321.670 C 318.718 320.496,337.712 296.572,343.715 286.305 C 346.245 281.977,351.326 272.062,352.829 268.519 C 353.743 266.364,354.652 264.540,354.848 264.466 C 355.044 264.392,355.121 264.195,355.017 264.028 C 354.801 263.677,356.269 259.644,356.884 258.900 C 357.112 258.625,357.187 258.400,357.052 258.400 C 356.917 258.400,357.273 257.185,357.843 255.700 C 358.413 254.215,359.156 252.055,359.495 250.900 C 359.834 249.745,360.277 248.800,360.479 248.800 C 360.682 248.800,360.743 248.631,360.615 248.424 C 360.322 247.950,362.416 239.448,362.870 239.266 C 363.054 239.192,363.107 238.973,362.987 238.780 C 362.787 238.455,363.781 232.571,364.268 231.200 C 364.386 230.870,364.557 229.700,364.648 228.600 C 364.740 227.500,364.930 226.240,365.071 225.800 C 365.211 225.360,365.370 224.550,365.423 224.000 C 365.510 223.093,365.708 221.602,366.192 218.200 C 367.259 210.716,367.260 191.839,366.194 184.200 C 366.102 183.540,365.912 182.100,365.772 181.000 C 365.633 179.900,365.432 178.370,365.325 177.600 C 365.219 176.830,365.079 175.750,365.014 175.200 C 364.949 174.650,364.803 173.930,364.690 173.600 C 364.212 172.207,362.451 161.841,362.640 161.535 C 362.754 161.351,362.636 161.200,362.377 161.200 C 362.107 161.200,361.994 160.867,362.111 160.419 C 362.223 159.990,362.191 159.585,362.040 159.519 C 361.648 159.349,359.955 152.796,360.201 152.398 C 360.313 152.217,360.266 152.008,360.095 151.934 C 359.925 151.860,358.905 149.370,357.829 146.400 C 346.062 113.917,327.738 88.635,301.054 68.064 C 291.337 60.572,271.519 49.038,264.900 47.020 C 264.405 46.870,264.000 46.598,264.000 46.417 C 264.000 46.237,263.775 46.114,263.500 46.144 C 262.824 46.220,255.433 43.525,255.274 43.146 C 255.205 42.980,254.890 42.944,254.574 43.065 C 254.258 43.186,254.000 43.076,254.000 42.819 C 254.000 42.563,253.835 42.455,253.634 42.579 C 253.432 42.704,252.757 42.595,252.134 42.336 C 251.510 42.078,250.910 41.836,250.800 41.799 C 250.690 41.762,250.330 41.617,250.000 41.477 C 248.614 40.891,240.666 38.848,236.400 37.980 C 233.870 37.466,231.751 36.932,231.690 36.793 C 231.630 36.655,231.045 36.620,230.390 36.716 C 229.736 36.812,229.198 36.735,229.197 36.545 C 229.195 36.355,228.095 36.153,226.752 36.096 C 225.409 36.039,224.105 35.865,223.855 35.711 C 223.605 35.556,222.923 35.480,222.340 35.541 C 221.757 35.602,221.159 35.457,221.012 35.219 C 220.865 34.982,220.583 34.887,220.385 35.009 C 220.187 35.131,218.265 35.036,216.113 34.797 C 213.961 34.558,210.760 34.310,209.000 34.246 C 207.240 34.183,203.730 34.020,201.200 33.885 C 198.670 33.750,195.700 33.811,194.600 34.020 M187.776 92.862 C 190.038 93.892,190.189 94.589,190.326 104.600 L 190.451 113.800 200.225 113.800 L 209.999 113.800 209.999 104.460 L 210.000 95.120 211.360 93.760 C 213.168 91.952,215.208 91.881,217.215 93.556 L 218.600 94.711 218.800 104.984 L 219.000 115.257 223.000 116.558 C 245.177 123.769,260.395 142.220,260.399 161.900 L 260.400 164.400 249.243 164.400 C 236.664 164.400,237.605 164.669,237.593 161.067 C 237.568 153.639,233.557 145.130,227.791 140.272 C 225.285 138.160,220.275 135.200,219.207 135.200 C 218.927 135.200,218.828 144.485,218.897 164.227 L 219.000 193.253 223.154 194.821 C 243.958 202.671,256.377 214.778,259.855 230.600 C 265.379 255.726,249.029 278.207,221.300 283.616 L 218.800 284.104 218.800 290.690 C 218.800 298.986,217.653 301.024,213.431 300.232 C 210.501 299.683,210.000 298.390,210.000 291.390 L 210.000 285.242 204.100 285.315 C 200.855 285.355,196.464 285.240,194.343 285.060 L 190.485 284.732 190.343 291.140 L 190.200 297.548 189.030 298.769 C 187.531 300.333,185.510 300.749,183.822 299.840 C 181.568 298.626,181.418 298.067,181.200 290.056 L 181.000 282.713 176.000 280.955 C 153.653 273.097,139.204 255.878,139.201 237.100 L 139.200 234.400 150.371 234.400 L 161.542 234.400 161.781 236.700 C 163.014 248.558,168.615 256.859,178.884 262.042 L 181.200 263.212 181.200 232.989 L 181.200 202.767 178.700 201.643 C 154.041 190.559,144.557 178.520,144.638 158.400 C 144.714 139.487,158.233 122.702,178.152 116.788 L 181.200 115.883 181.200 105.922 C 181.200 97.813,181.313 95.743,181.805 94.790 C 182.878 92.715,185.556 91.850,187.776 92.862 M195.212 132.428 C 193.128 132.623,191.193 132.871,190.912 132.979 C 190.504 133.135,190.400 138.318,190.400 158.582 L 190.400 183.989 191.865 184.601 C 193.418 185.250,209.071 190.000,209.656 190.000 C 209.845 190.000,210.000 177.144,210.000 161.432 L 210.000 132.864 208.900 132.653 C 206.613 132.214,198.855 132.087,195.212 132.428 M177.989 137.902 C 162.884 147.763,163.747 170.444,179.537 178.571 C 181.353 179.505,181.219 181.319,181.104 157.431 L 181.000 135.936 177.989 137.902 M190.400 236.155 L 190.400 265.910 194.300 266.377 C 196.445 266.634,200.810 266.789,204.000 266.722 L 209.800 266.600 209.903 239.556 L 210.006 212.511 205.903 211.084 C 200.747 209.292,191.458 206.400,190.855 206.400 C 190.519 206.400,190.400 214.198,190.400 236.155 M218.800 240.373 C 218.800 258.200,218.922 264.800,219.250 264.800 C 221.261 264.800,229.209 260.065,231.990 257.210 C 240.010 248.977,240.023 232.097,232.017 224.077 C 229.474 221.530,222.520 217.096,219.700 216.224 L 218.800 215.946 218.800 240.373 " stroke="none" fill="#64b4f4" fill-rule="evenodd"></path><path id="path2" d="M204.900 33.876 C 205.285 33.976,205.915 33.976,206.300 33.876 C 206.685 33.775,206.370 33.693,205.600 33.693 C 204.830 33.693,204.515 33.775,204.900 33.876 M274.000 50.984 C 274.000 51.094,274.720 51.551,275.600 52.000 C 276.480 52.449,277.200 52.726,277.200 52.616 C 277.200 52.506,276.480 52.049,275.600 51.600 C 274.720 51.151,274.000 50.874,274.000 50.984 M107.600 61.000 C 107.256 61.415,107.241 61.600,107.551 61.600 C 107.798 61.600,108.000 61.433,108.000 61.229 C 108.000 61.025,108.315 60.776,108.700 60.676 C 109.291 60.521,109.298 60.486,108.749 60.446 C 108.391 60.421,107.874 60.670,107.600 61.000 M98.600 67.450 C 97.881 68.062,97.734 68.305,98.233 68.057 C 98.966 67.693,100.341 66.376,99.949 66.414 C 99.867 66.422,99.260 66.888,98.600 67.450 M314.882 79.577 C 316.356 80.930,319.122 83.694,321.027 85.718 C 322.931 87.743,323.885 88.612,323.145 87.650 C 321.490 85.497,315.503 79.532,313.600 78.141 C 312.830 77.578,313.407 78.224,314.882 79.577 M80.930 82.809 C 79.791 83.904,78.988 84.800,79.145 84.800 C 79.302 84.800,80.317 83.900,81.400 82.800 C 83.944 80.218,83.617 80.224,80.930 82.809 M77.775 86.500 L 76.600 87.800 77.900 86.625 C 79.112 85.530,79.384 85.200,79.075 85.200 C 79.006 85.200,78.421 85.785,77.775 86.500 M218.573 105.600 C 218.573 110.990,218.630 113.195,218.699 110.500 C 218.768 107.805,218.768 103.395,218.699 100.700 C 218.630 98.005,218.573 100.210,218.573 105.600 M195.700 113.876 C 196.085 113.976,196.715 113.976,197.100 113.876 C 197.485 113.775,197.170 113.693,196.400 113.693 C 195.630 113.693,195.315 113.775,195.700 113.876 M205.300 113.876 C 205.685 113.976,206.315 113.976,206.700 113.876 C 207.085 113.775,206.770 113.693,206.000 113.693 C 205.230 113.693,204.915 113.775,205.300 113.876 M50.200 125.600 C 49.859 126.260,49.669 126.800,49.779 126.800 C 49.889 126.800,50.259 126.260,50.600 125.600 C 50.941 124.940,51.131 124.400,51.021 124.400 C 50.911 124.400,50.541 124.940,50.200 125.600 M218.667 135.067 C 218.296 135.437,218.329 193.109,218.700 193.338 C 218.865 193.440,219.000 180.311,219.000 164.162 C 219.000 148.013,218.985 134.800,218.967 134.800 C 218.948 134.800,218.813 134.920,218.667 135.067 M229.200 141.400 C 229.946 142.170,230.647 142.800,230.757 142.800 C 230.867 142.800,230.346 142.170,229.600 141.400 C 228.854 140.630,228.153 140.000,228.043 140.000 C 227.933 140.000,228.454 140.630,229.200 141.400 M181.381 165.200 C 181.381 173.230,181.434 176.515,181.499 172.500 C 181.565 168.485,181.565 161.915,181.499 157.900 C 181.434 153.885,181.381 157.170,181.381 165.200 M260.114 161.000 C 260.117 162.100,260.195 162.503,260.287 161.895 C 260.379 161.286,260.377 160.386,260.282 159.895 C 260.187 159.403,260.111 159.900,260.114 161.000 M181.390 233.000 C 181.390 249.720,181.440 256.502,181.500 248.070 C 181.560 239.639,181.560 225.959,181.500 217.670 C 181.439 209.382,181.390 216.280,181.390 233.000 M32.493 206.800 C 32.493 207.570,32.575 207.885,32.676 207.500 C 32.776 207.115,32.776 206.485,32.676 206.100 C 32.575 205.715,32.493 206.030,32.493 206.800 M250.000 212.125 C 250.000 212.194,250.585 212.779,251.300 213.425 L 252.600 214.600 251.425 213.300 C 250.330 212.088,250.000 211.816,250.000 212.125 M218.667 215.867 C 218.296 216.237,218.329 264.709,218.700 264.938 C 218.865 265.040,219.000 253.981,219.000 240.362 C 219.000 226.743,218.985 215.600,218.967 215.600 C 218.948 215.600,218.813 215.720,218.667 215.867 M139.293 238.800 C 139.293 239.570,139.375 239.885,139.476 239.500 C 139.576 239.115,139.576 238.485,139.476 238.100 C 139.375 237.715,139.293 238.030,139.293 238.800 M260.493 243.200 C 260.493 243.970,260.575 244.285,260.676 243.900 C 260.776 243.515,260.776 242.885,260.676 242.500 C 260.575 242.115,260.493 242.430,260.493 243.200 M154.000 268.200 C 154.746 268.970,155.447 269.600,155.557 269.600 C 155.667 269.600,155.146 268.970,154.400 268.200 C 153.654 267.430,152.953 266.800,152.843 266.800 C 152.733 266.800,153.254 267.430,154.000 268.200 M204.705 267.083 C 205.202 267.179,205.922 267.175,206.305 267.075 C 206.687 266.975,206.280 266.896,205.400 266.901 C 204.520 266.905,204.207 266.987,204.705 267.083 M181.365 289.200 C 181.365 293.050,181.425 294.625,181.498 292.700 C 181.571 290.775,181.571 287.625,181.498 285.700 C 181.425 283.775,181.365 285.350,181.365 289.200 M218.577 284.117 C 218.468 284.401,218.429 287.416,218.491 290.817 L 218.603 297.000 218.801 290.299 C 218.997 283.715,218.974 283.082,218.577 284.117 M195.700 285.076 C 196.085 285.176,196.715 285.176,197.100 285.076 C 197.485 284.975,197.170 284.893,196.400 284.893 C 195.630 284.893,195.315 284.975,195.700 285.076 M208.100 285.076 C 208.485 285.176,209.115 285.176,209.500 285.076 C 209.885 284.975,209.570 284.893,208.800 284.893 C 208.030 284.893,207.715 284.975,208.100 285.076 M332.723 302.700 C 332.018 303.521,331.490 304.400,331.701 304.400 C 331.783 304.400,332.249 303.860,332.737 303.200 C 333.701 301.896,333.692 301.572,332.723 302.700 M324.581 312.500 L 323.000 314.200 324.700 312.619 C 326.281 311.148,326.584 310.800,326.281 310.800 C 326.216 310.800,325.451 311.565,324.581 312.500 M322.070 315.326 C 321.072 316.388,320.892 317.153,321.822 316.382 C 322.429 315.878,323.370 314.400,323.084 314.400 C 323.004 314.400,322.548 314.817,322.070 315.326 M77.540 315.660 C 78.121 316.440,83.957 322.357,84.927 323.149 C 86.573 324.492,85.280 323.071,81.325 319.193 C 78.974 316.887,77.271 315.297,77.540 315.660 M317.775 319.700 L 316.600 321.000 317.900 319.825 C 318.615 319.179,319.200 318.594,319.200 318.525 C 319.200 318.216,318.870 318.488,317.775 319.700 M314.122 323.424 C 313.305 324.170,313.226 324.339,313.833 324.046 C 314.663 323.645,315.902 322.400,315.471 322.400 C 315.347 322.400,314.740 322.861,314.122 323.424 M310.981 326.100 L 309.400 327.800 311.100 326.219 C 312.035 325.349,312.800 324.584,312.800 324.519 C 312.800 324.216,312.452 324.519,310.981 326.100 M301.722 333.829 L 300.600 334.858 301.900 333.954 C 302.615 333.457,303.200 332.993,303.200 332.925 C 303.200 332.609,302.758 332.880,301.722 333.829 M136.800 356.231 C 136.800 356.501,138.878 357.256,139.076 357.057 C 139.167 356.967,138.692 356.701,138.020 356.467 C 137.349 356.233,136.800 356.127,136.800 356.231 M139.600 357.334 C 139.600 357.437,140.181 357.724,140.891 357.972 C 141.601 358.219,142.006 358.257,141.791 358.056 C 141.335 357.629,139.600 357.058,139.600 357.334 M162.000 364.111 C 162.110 364.224,162.905 364.509,163.766 364.744 C 164.627 364.979,165.167 365.017,164.966 364.828 C 164.580 364.466,161.656 363.759,162.000 364.111 " stroke="none" fill="#9accf9" fill-rule="evenodd"></path><path id="path3" d="M191.105 33.883 C 191.602 33.979,192.322 33.975,192.705 33.875 C 193.087 33.775,192.680 33.696,191.800 33.701 C 190.920 33.705,190.607 33.787,191.105 33.883 M207.300 33.876 C 207.685 33.976,208.315 33.976,208.700 33.876 C 209.085 33.775,208.770 33.693,208.000 33.693 C 207.230 33.693,206.915 33.775,207.300 33.876 M134.100 46.499 C 133.012 46.848,132.274 47.600,133.020 47.600 C 133.390 47.600,135.600 46.392,135.600 46.190 C 135.600 46.085,135.555 46.018,135.500 46.041 C 135.445 46.063,134.815 46.269,134.100 46.499 M264.800 46.800 C 265.576 47.301,266.000 47.301,266.000 46.800 C 266.000 46.580,265.595 46.403,265.100 46.406 C 264.372 46.411,264.315 46.486,264.800 46.800 M123.200 51.800 C 122.650 52.114,122.380 52.372,122.600 52.372 C 122.820 52.372,123.450 52.114,124.000 51.800 C 124.550 51.486,124.820 51.228,124.600 51.228 C 124.380 51.228,123.750 51.486,123.200 51.800 M280.800 54.404 C 280.800 54.592,281.205 54.870,281.700 55.020 C 282.195 55.171,282.957 55.588,283.393 55.947 C 284.135 56.558,284.152 56.556,283.651 55.908 C 283.012 55.083,280.800 53.915,280.800 54.404 M116.162 55.658 C 115.404 56.512,115.405 56.514,116.300 56.044 C 116.795 55.784,117.200 55.398,117.200 55.186 C 117.200 54.618,117.009 54.705,116.162 55.658 M290.433 60.123 C 292.622 61.744,294.798 63.130,294.793 62.899 C 294.785 62.581,290.997 60.000,290.538 60.000 C 290.389 60.000,290.342 60.056,290.433 60.123 M106.700 61.357 C 106.315 61.649,106.000 61.998,106.000 62.132 C 106.000 62.582,107.136 61.944,107.357 61.369 C 107.620 60.683,107.589 60.682,106.700 61.357 M296.800 64.483 C 297.067 64.805,301.639 68.149,302.400 68.578 C 303.263 69.066,302.507 68.375,300.600 66.932 C 298.907 65.652,296.463 64.077,296.800 64.483 M94.624 70.213 C 94.002 70.683,93.972 70.800,94.475 70.800 C 94.820 70.800,95.326 70.530,95.600 70.200 C 96.234 69.437,95.639 69.444,94.624 70.213 M305.632 71.086 C 305.614 71.353,305.956 71.762,306.391 71.995 C 307.036 72.340,307.139 72.306,306.949 71.812 C 306.821 71.478,306.570 71.295,306.392 71.405 C 306.214 71.515,305.977 71.379,305.866 71.102 C 305.714 70.726,305.655 70.722,305.632 71.086 M311.308 76.251 C 311.432 76.452,312.404 77.230,313.467 77.978 C 314.950 79.023,315.196 79.114,314.524 78.370 C 313.635 77.386,310.893 75.579,311.308 76.251 M86.800 77.025 C 85.887 77.523,83.200 80.243,83.200 80.668 C 83.200 80.766,84.280 79.897,85.600 78.735 C 86.920 77.573,88.000 76.572,88.000 76.511 C 88.000 76.370,87.993 76.373,86.800 77.025 M77.548 85.900 C 76.554 86.991,75.059 89.200,75.314 89.200 C 75.388 89.200,76.302 88.210,77.347 87.000 C 79.252 84.793,79.427 83.837,77.548 85.900 M322.340 86.716 C 322.833 87.409,323.444 88.104,323.697 88.260 C 323.950 88.417,323.754 87.977,323.260 87.284 C 322.767 86.591,322.156 85.896,321.903 85.740 C 321.650 85.583,321.846 86.023,322.340 86.716 M327.800 93.126 C 328.948 94.239,330.124 95.650,330.686 96.589 C 330.953 97.035,331.178 97.201,331.186 96.958 C 331.208 96.279,328.534 92.937,327.720 92.626 C 327.089 92.385,327.099 92.447,327.800 93.126 M70.461 94.225 C 70.194 94.811,70.166 95.145,70.395 95.003 C 70.982 94.640,71.688 93.200,71.278 93.200 C 71.086 93.200,70.718 93.661,70.461 94.225 M68.814 95.974 C 68.307 96.921,68.284 97.319,68.752 97.030 C 69.105 96.812,69.655 95.200,69.377 95.200 C 69.295 95.200,69.042 95.548,68.814 95.974 M189.788 105.167 C 189.798 113.147,189.889 114.558,190.400 114.697 C 190.836 114.816,190.866 114.766,190.508 114.512 C 190.149 114.257,189.983 111.678,189.896 104.981 L 189.777 95.800 189.788 105.167 M210.092 105.072 C 210.000 113.922,209.998 113.945,209.100 114.118 L 208.200 114.291 209.113 114.346 C 210.412 114.423,210.429 114.287,210.300 104.790 L 210.183 96.200 210.092 105.072 M332.364 98.733 C 332.580 99.136,333.071 99.721,333.455 100.033 C 333.887 100.384,333.790 100.104,333.201 99.300 C 332.151 97.865,331.757 97.598,332.364 98.733 M338.000 106.121 C 338.000 106.292,338.630 107.367,339.400 108.510 C 340.170 109.654,340.800 110.450,340.800 110.279 C 340.800 110.108,340.170 109.033,339.400 107.890 C 338.630 106.746,338.000 105.950,338.000 106.121 M198.505 113.887 C 199.114 113.979,200.014 113.977,200.505 113.882 C 200.997 113.787,200.500 113.711,199.400 113.714 C 198.300 113.717,197.897 113.795,198.505 113.887 M202.300 113.882 C 202.795 113.978,203.605 113.978,204.100 113.882 C 204.595 113.787,204.190 113.709,203.200 113.709 C 202.210 113.709,201.805 113.787,202.300 113.882 M344.491 116.700 C 344.829 117.085,345.233 117.819,345.389 118.330 C 345.545 118.842,345.757 119.176,345.860 119.073 C 346.194 118.740,344.855 116.000,344.358 116.000 C 344.032 116.000,344.075 116.227,344.491 116.700 M53.810 117.980 C 53.475 118.629,53.214 119.394,53.232 119.680 C 53.249 119.966,53.444 119.705,53.665 119.100 C 53.886 118.495,54.212 118.000,54.391 118.000 C 54.569 118.000,54.818 117.730,54.945 117.400 C 55.366 116.303,54.430 116.781,53.810 117.980 M157.775 128.900 L 156.600 130.200 157.900 129.025 C 158.615 128.379,159.200 127.794,159.200 127.725 C 159.200 127.416,158.870 127.688,157.775 128.900 M46.832 131.939 C 46.595 132.384,46.407 132.984,46.416 133.274 C 46.425 133.563,46.709 133.289,47.047 132.665 C 47.386 132.040,47.573 131.440,47.464 131.330 C 47.354 131.221,47.070 131.495,46.832 131.939 M197.107 131.890 C 197.826 131.979,198.906 131.977,199.507 131.886 C 200.108 131.795,199.520 131.722,198.200 131.724 C 196.880 131.726,196.388 131.801,197.107 131.890 M202.900 131.887 C 203.505 131.978,204.495 131.978,205.100 131.887 C 205.705 131.795,205.210 131.720,204.000 131.720 C 202.790 131.720,202.295 131.795,202.900 131.887 M352.867 133.220 C 353.101 133.892,353.370 134.363,353.466 134.268 C 353.747 133.987,353.144 132.000,352.777 132.000 C 352.593 132.000,352.633 132.549,352.867 133.220 M210.000 161.480 C 209.890 177.584,209.936 190.624,210.103 190.457 C 210.269 190.291,210.359 177.115,210.303 161.177 L 210.200 132.200 210.000 161.480 M189.692 158.476 C 189.642 172.488,189.735 184.036,189.900 184.138 C 190.172 184.307,190.168 166.058,189.891 142.200 C 189.833 137.140,189.743 144.464,189.692 158.476 M147.665 143.017 C 146.995 144.488,147.123 144.802,147.847 143.465 C 148.186 142.840,148.388 142.254,148.296 142.163 C 148.205 142.071,147.921 142.456,147.665 143.017 M166.893 155.600 C 166.893 156.370,166.975 156.685,167.076 156.300 C 167.176 155.915,167.176 155.285,167.076 154.900 C 166.975 154.515,166.893 154.830,166.893 155.600 M144.493 159.200 C 144.493 159.970,144.575 160.285,144.676 159.900 C 144.776 159.515,144.776 158.885,144.676 158.500 C 144.575 158.115,144.493 158.430,144.493 159.200 M238.161 163.200 L 238.200 164.200 249.195 164.200 C 259.895 164.200,260.191 164.179,260.272 163.400 C 260.336 162.778,260.308 162.756,260.148 163.300 C 259.958 163.944,259.084 164.000,249.197 164.000 L 238.453 164.000 238.288 163.100 C 238.144 162.317,238.128 162.330,238.161 163.200 M173.000 174.000 C 174.083 175.100,175.060 176.000,175.170 176.000 C 175.280 176.000,174.483 175.100,173.400 174.000 C 172.317 172.900,171.340 172.000,171.230 172.000 C 171.120 172.000,171.917 172.900,173.000 174.000 M155.800 186.800 C 157.328 188.340,158.669 189.600,158.779 189.600 C 158.889 189.600,157.728 188.340,156.200 186.800 C 154.672 185.260,153.331 184.000,153.221 184.000 C 153.111 184.000,154.272 185.260,155.800 186.800 M366.893 191.600 C 366.893 192.370,366.975 192.685,367.076 192.300 C 367.176 191.915,367.176 191.285,367.076 190.900 C 366.975 190.515,366.893 190.830,366.893 191.600 M32.501 193.000 C 32.505 193.880,32.587 194.193,32.683 193.695 C 32.779 193.198,32.775 192.478,32.675 192.095 C 32.575 191.713,32.496 192.120,32.501 193.000 M189.784 206.100 C 189.679 206.375,189.641 220.010,189.699 236.400 L 189.805 266.200 189.903 236.133 C 189.979 212.528,190.107 206.023,190.500 205.865 C 190.892 205.707,190.889 205.656,190.487 205.632 C 190.206 205.614,189.889 205.825,189.784 206.100 M32.493 209.200 C 32.493 209.970,32.575 210.285,32.676 209.900 C 32.776 209.515,32.776 208.885,32.676 208.500 C 32.575 208.115,32.493 208.430,32.493 209.200 M366.893 210.400 C 366.893 211.170,366.975 211.485,367.076 211.100 C 367.176 210.715,367.176 210.085,367.076 209.700 C 366.975 209.315,366.893 209.630,366.893 210.400 M210.189 239.400 C 210.189 254.580,210.239 260.732,210.300 253.071 C 210.361 245.410,210.361 232.990,210.300 225.471 C 210.239 217.952,210.189 224.220,210.189 239.400 M231.583 223.300 C 232.564 224.345,233.419 225.200,233.483 225.200 C 233.784 225.200,233.466 224.841,231.700 223.183 L 229.800 221.400 231.583 223.300 M260.114 235.800 C 260.117 236.900,260.195 237.303,260.287 236.695 C 260.379 236.086,260.377 235.186,260.282 234.695 C 260.187 234.203,260.111 234.700,260.114 235.800 M139.267 236.100 L 139.334 237.800 139.491 236.306 L 139.648 234.813 150.524 234.700 L 161.400 234.587 150.300 234.493 L 139.200 234.400 139.267 236.100 M161.293 236.400 C 161.293 237.170,161.375 237.485,161.476 237.100 C 161.576 236.715,161.576 236.085,161.476 235.700 C 161.375 235.315,161.293 235.630,161.293 236.400 M260.501 240.600 C 260.505 241.480,260.587 241.793,260.683 241.295 C 260.779 240.798,260.775 240.078,260.675 239.695 C 260.575 239.313,260.496 239.720,260.501 240.600 M260.101 245.400 C 260.105 246.280,260.187 246.593,260.283 246.095 C 260.379 245.598,260.375 244.878,260.275 244.495 C 260.175 244.113,260.096 244.520,260.101 245.400 M39.102 249.800 C 39.207 250.350,39.427 250.800,39.591 250.800 C 39.755 250.800,39.803 250.350,39.698 249.800 C 39.593 249.250,39.373 248.800,39.209 248.800 C 39.045 248.800,38.997 249.250,39.102 249.800 M176.800 261.379 C 176.800 261.489,177.340 261.859,178.000 262.200 C 178.660 262.541,179.200 262.731,179.200 262.621 C 179.200 262.511,178.660 262.141,178.000 261.800 C 177.340 261.459,176.800 261.269,176.800 261.379 M196.700 267.082 C 197.195 267.178,198.005 267.178,198.500 267.082 C 198.995 266.987,198.590 266.909,197.600 266.909 C 196.610 266.909,196.205 266.987,196.700 267.082 M207.300 267.076 C 207.685 267.176,208.315 267.176,208.700 267.076 C 209.085 266.975,208.770 266.893,208.000 266.893 C 207.230 266.893,206.915 266.975,207.300 267.076 M353.267 267.980 C 353.033 268.651,352.993 269.200,353.177 269.200 C 353.544 269.200,354.147 267.213,353.866 266.932 C 353.770 266.837,353.501 267.308,353.267 267.980 M46.000 267.805 C 46.000 268.524,46.977 270.800,47.286 270.800 C 47.464 270.800,47.333 270.134,46.993 269.321 C 46.342 267.763,46.000 267.241,46.000 267.805 M349.675 275.819 C 348.470 278.300,348.605 278.647,349.846 276.261 C 350.401 275.194,350.787 274.253,350.703 274.170 C 350.619 274.086,350.157 274.828,349.675 275.819 M346.950 281.058 C 346.615 281.860,346.084 282.773,345.770 283.087 C 345.457 283.401,345.201 283.959,345.201 284.329 C 345.202 284.746,345.503 284.508,345.997 283.697 C 346.949 282.137,348.040 279.600,347.759 279.600 C 347.649 279.600,347.285 280.256,346.950 281.058 M189.776 284.518 C 189.667 284.802,189.633 287.727,189.700 291.018 L 189.823 297.000 189.912 290.728 C 189.998 284.574,190.017 284.452,190.900 284.282 L 191.800 284.109 190.887 284.054 C 190.386 284.025,189.886 284.233,189.776 284.518 M54.493 285.200 C 54.768 285.640,55.135 286.000,55.310 286.000 C 55.485 286.000,55.435 285.640,55.200 285.200 C 54.965 284.760,54.597 284.400,54.383 284.400 C 54.167 284.400,54.216 284.757,54.493 285.200 M200.117 285.097 C 201.611 285.174,203.951 285.174,205.317 285.096 C 206.682 285.018,205.460 284.955,202.600 284.955 C 199.740 284.956,198.622 285.020,200.117 285.097 M210.160 290.600 C 210.161 293.900,210.222 295.197,210.298 293.482 C 210.373 291.767,210.372 289.067,210.297 287.482 C 210.221 285.897,210.159 287.300,210.160 290.600 M58.800 291.738 C 58.800 292.197,61.381 295.985,61.699 295.993 C 61.930 295.998,60.544 293.822,58.923 291.633 C 58.856 291.542,58.800 291.589,58.800 291.738 M62.529 297.748 C 62.871 298.270,63.722 299.305,64.420 300.048 L 65.689 301.400 64.591 299.700 C 63.988 298.765,63.338 298.000,63.147 298.000 C 62.956 298.000,62.800 297.730,62.800 297.400 C 62.800 297.070,62.599 296.800,62.354 296.800 C 62.075 296.800,62.141 297.156,62.529 297.748 M210.432 297.230 C 210.414 297.577,210.895 298.297,211.500 298.830 L 212.600 299.800 211.751 298.800 C 211.284 298.250,210.803 297.530,210.682 297.200 C 210.495 296.686,210.459 296.691,210.432 297.230 M336.292 297.842 C 336.131 298.002,336.000 298.409,336.000 298.747 C 336.000 299.197,336.118 299.242,336.445 298.915 C 336.690 298.670,336.821 298.263,336.737 298.010 C 336.652 297.757,336.452 297.681,336.292 297.842 M66.399 302.700 C 66.922 303.415,67.413 304.000,67.489 304.000 C 67.793 304.000,66.801 302.500,66.145 301.967 C 65.713 301.616,65.810 301.896,66.399 302.700 M329.271 307.235 C 328.981 307.699,328.821 308.155,328.915 308.249 C 329.193 308.526,330.088 307.264,329.937 306.810 C 329.860 306.580,329.560 306.771,329.271 307.235 M70.000 307.600 C 70.235 308.040,70.603 308.400,70.817 308.400 C 71.033 308.400,70.984 308.043,70.707 307.600 C 70.432 307.160,70.065 306.800,69.890 306.800 C 69.715 306.800,69.765 307.160,70.000 307.600 M323.923 313.500 C 322.849 314.750,322.525 315.499,323.345 314.833 C 324.016 314.288,324.990 312.800,324.676 312.800 C 324.592 312.800,324.253 313.115,323.923 313.500 M75.498 313.800 C 75.734 314.240,76.425 315.050,77.034 315.600 L 78.142 316.600 77.290 315.364 C 76.181 313.757,74.854 312.599,75.498 313.800 M85.200 323.766 C 86.376 325.068,88.201 326.217,87.236 325.047 C 86.925 324.671,86.115 323.979,85.436 323.510 L 84.200 322.658 85.200 323.766 M312.522 325.024 C 311.705 325.770,311.626 325.939,312.233 325.646 C 313.063 325.245,314.302 324.000,313.871 324.000 C 313.747 324.000,313.140 324.461,312.522 325.024 M92.400 329.983 C 92.400 330.197,92.760 330.565,93.200 330.800 C 93.640 331.035,94.000 331.085,94.000 330.910 C 94.000 330.735,93.640 330.368,93.200 330.093 C 92.757 329.816,92.400 329.767,92.400 329.983 M305.824 330.613 C 305.202 331.083,305.172 331.200,305.675 331.200 C 306.020 331.200,306.526 330.930,306.800 330.600 C 307.434 329.837,306.839 329.844,305.824 330.613 M100.969 336.532 C 101.833 337.336,102.628 337.906,102.736 337.797 C 102.845 337.689,102.858 337.541,102.767 337.469 C 102.675 337.396,101.880 336.827,101.000 336.203 L 99.400 335.069 100.969 336.532 M108.800 341.964 C 109.350 342.414,109.980 342.783,110.200 342.785 C 110.628 342.788,109.905 342.234,108.600 341.560 C 108.069 341.285,108.136 341.421,108.800 341.964 M289.000 342.800 C 288.340 343.237,287.980 343.592,288.200 343.588 C 288.601 343.582,290.776 342.023,290.400 342.012 C 290.290 342.008,289.660 342.363,289.000 342.800 M284.629 345.429 C 284.205 345.738,283.936 346.069,284.030 346.163 C 284.124 346.257,284.548 346.081,284.971 345.771 C 285.395 345.462,285.664 345.131,285.570 345.037 C 285.476 344.943,285.052 345.119,284.629 345.429 M116.000 346.409 C 116.000 346.624,116.187 346.800,116.416 346.800 C 116.645 346.800,117.363 347.192,118.011 347.672 C 118.660 348.151,119.296 348.437,119.425 348.308 C 119.555 348.179,119.287 347.954,118.830 347.810 C 118.374 347.665,118.000 347.407,118.000 347.237 C 118.000 347.067,117.550 346.723,117.000 346.473 C 116.392 346.196,116.000 346.170,116.000 346.409 M281.600 347.200 C 281.093 347.640,280.470 348.000,280.215 348.000 C 279.961 348.000,279.404 348.269,278.976 348.598 C 278.292 349.125,278.378 349.125,279.697 348.594 C 281.811 347.743,283.929 346.403,283.161 346.401 C 282.810 346.401,282.107 346.760,281.600 347.200 M274.800 350.800 C 274.030 351.222,273.580 351.566,273.800 351.566 C 274.020 351.566,274.830 351.222,275.600 350.800 C 276.370 350.378,276.820 350.034,276.600 350.034 C 276.380 350.034,275.570 350.378,274.800 350.800 M132.171 354.609 C 132.595 354.929,133.040 355.094,133.159 354.974 C 133.410 354.723,132.394 354.009,131.800 354.019 C 131.580 354.022,131.747 354.288,132.171 354.609 M266.138 354.773 C 265.444 355.196,264.769 355.435,264.638 355.304 C 264.507 355.174,264.400 355.277,264.400 355.533 C 264.400 356.089,265.057 356.154,265.381 355.631 C 265.506 355.428,266.147 355.143,266.805 354.999 C 267.462 354.855,268.000 354.571,268.000 354.368 C 268.000 353.819,267.538 353.919,266.138 354.773 M189.700 368.276 C 190.085 368.376,190.715 368.376,191.100 368.276 C 191.485 368.175,191.170 368.093,190.400 368.093 C 189.630 368.093,189.315 368.175,189.700 368.276 M208.500 368.276 C 208.885 368.376,209.515 368.376,209.900 368.276 C 210.285 368.175,209.970 368.093,209.200 368.093 C 208.430 368.093,208.115 368.175,208.500 368.276 " stroke="none" fill="#bfe0fc" fill-rule="evenodd"></path><path id="path4" d="M190.307 34.290 C 191.026 34.379,192.106 34.377,192.707 34.286 C 193.308 34.195,192.720 34.122,191.400 34.124 C 190.080 34.126,189.588 34.201,190.307 34.290 M207.107 34.290 C 207.826 34.379,208.906 34.377,209.507 34.286 C 210.108 34.195,209.520 34.122,208.200 34.124 C 206.880 34.126,206.388 34.201,207.107 34.290 M183.905 34.683 C 184.402 34.779,185.122 34.775,185.505 34.675 C 185.887 34.575,185.480 34.496,184.600 34.501 C 183.720 34.505,183.407 34.587,183.905 34.683 M214.305 34.683 C 214.802 34.779,215.522 34.775,215.905 34.675 C 216.287 34.575,215.880 34.496,215.000 34.501 C 214.120 34.505,213.807 34.587,214.305 34.683 M217.400 34.800 C 217.840 34.989,218.560 35.138,219.000 35.132 C 219.643 35.123,219.604 35.057,218.800 34.800 C 217.432 34.362,216.381 34.362,217.400 34.800 M146.328 42.331 C 145.299 42.699,144.323 43.136,144.159 43.302 C 143.911 43.555,146.566 42.748,148.800 41.893 C 150.330 41.307,148.075 41.707,146.328 42.331 M251.200 41.831 C 251.200 42.101,253.278 42.856,253.476 42.657 C 253.567 42.567,253.092 42.301,252.420 42.067 C 251.749 41.833,251.200 41.727,251.200 41.831 M309.200 74.525 C 309.200 74.594,309.785 75.179,310.500 75.825 L 311.800 77.000 310.625 75.700 C 309.530 74.488,309.200 74.216,309.200 74.525 M314.400 79.325 C 314.400 79.394,314.985 79.979,315.700 80.625 L 317.000 81.800 315.825 80.500 C 314.730 79.288,314.400 79.016,314.400 79.325 M81.588 82.700 L 79.000 85.400 81.700 82.812 C 83.185 81.388,84.400 80.173,84.400 80.112 C 84.400 79.817,83.993 80.192,81.588 82.700 M319.200 84.200 C 320.395 85.410,321.463 86.400,321.573 86.400 C 321.683 86.400,320.795 85.410,319.600 84.200 C 318.405 82.990,317.337 82.000,317.227 82.000 C 317.117 82.000,318.005 82.990,319.200 84.200 M74.575 90.100 L 73.400 91.400 74.700 90.225 C 75.912 89.130,76.184 88.800,75.875 88.800 C 75.806 88.800,75.221 89.385,74.575 90.100 M324.000 89.325 C 324.000 89.394,324.585 89.979,325.300 90.625 L 326.600 91.800 325.425 90.500 C 324.330 89.288,324.000 89.016,324.000 89.325 M181.374 105.600 C 181.374 111.210,181.430 113.505,181.499 110.700 C 181.568 107.895,181.568 103.305,181.499 100.500 C 181.430 97.695,181.374 99.990,181.374 105.600 M190.092 105.300 C 190.007 113.737,190.051 114.400,190.700 114.394 C 191.190 114.390,191.252 114.294,190.908 114.075 C 190.549 113.847,190.385 111.386,190.300 104.981 L 190.184 96.200 190.092 105.300 M59.287 110.100 C 57.827 112.256,57.512 112.800,57.720 112.800 C 57.812 112.800,58.544 111.810,59.347 110.600 C 60.151 109.390,60.725 108.400,60.623 108.400 C 60.522 108.400,59.920 109.165,59.287 110.100 M196.900 132.276 C 197.285 132.376,197.915 132.376,198.300 132.276 C 198.685 132.175,198.370 132.093,197.600 132.093 C 196.830 132.093,196.515 132.175,196.900 132.276 M203.700 132.276 C 204.085 132.376,204.715 132.376,205.100 132.276 C 205.485 132.175,205.170 132.093,204.400 132.093 C 203.630 132.093,203.315 132.175,203.700 132.276 M190.184 133.300 C 190.079 133.575,190.039 145.140,190.096 159.000 L 190.200 184.200 190.400 158.500 C 190.510 144.365,190.549 132.800,190.487 132.800 C 190.426 132.800,190.289 133.025,190.184 133.300 M181.367 143.400 C 181.367 147.580,181.426 149.236,181.498 147.079 C 181.571 144.923,181.570 141.503,181.498 139.479 C 181.425 137.456,181.366 139.220,181.367 143.400 M356.467 142.820 C 356.701 143.492,356.967 143.967,357.057 143.876 C 357.256 143.678,356.501 141.600,356.231 141.600 C 356.127 141.600,356.233 142.149,356.467 142.820 M41.979 145.055 C 41.758 145.636,41.652 146.185,41.743 146.276 C 41.833 146.367,42.099 145.892,42.333 145.220 C 42.853 143.728,42.539 143.582,41.979 145.055 M237.724 161.400 C 237.726 162.720,237.801 163.212,237.890 162.493 C 237.979 161.774,237.977 160.694,237.886 160.093 C 237.795 159.492,237.722 160.080,237.724 161.400 M155.400 186.800 C 156.706 188.120,157.865 189.200,157.975 189.200 C 158.085 189.200,157.106 188.120,155.800 186.800 C 154.494 185.480,153.335 184.400,153.225 184.400 C 153.115 184.400,154.094 185.480,155.400 186.800 M190.093 236.100 C 190.145 252.655,190.234 261.340,190.293 255.400 C 190.569 227.246,190.572 206.000,190.300 206.000 C 190.135 206.000,190.042 219.545,190.093 236.100 M364.893 227.200 C 364.893 227.970,364.975 228.285,365.076 227.900 C 365.176 227.515,365.176 226.885,365.076 226.500 C 364.975 226.115,364.893 226.430,364.893 227.200 M161.709 238.000 C 161.709 238.990,161.787 239.395,161.882 238.900 C 161.978 238.405,161.978 237.595,161.882 237.100 C 161.787 236.605,161.709 237.010,161.709 238.000 M238.131 241.000 C 238.133 242.540,238.205 243.121,238.292 242.291 C 238.379 241.461,238.377 240.201,238.289 239.491 C 238.200 238.781,238.129 239.460,238.131 241.000 M357.644 256.044 C 357.398 256.751,357.266 257.400,357.352 257.485 C 357.438 257.571,357.709 257.062,357.956 256.356 C 358.202 255.649,358.334 255.000,358.248 254.915 C 358.162 254.829,357.891 255.338,357.644 256.044 M42.218 257.700 C 42.368 258.195,42.655 258.776,42.856 258.991 C 43.057 259.206,43.019 258.801,42.772 258.091 C 42.265 256.638,41.797 256.308,42.218 257.700 M201.905 267.083 C 202.402 267.179,203.122 267.175,203.505 267.075 C 203.887 266.975,203.480 266.896,202.600 266.901 C 201.720 266.905,201.407 266.987,201.905 267.083 M349.200 276.000 C 348.751 276.880,348.474 277.600,348.584 277.600 C 348.694 277.600,349.151 276.880,349.600 276.000 C 350.049 275.120,350.326 274.400,350.216 274.400 C 350.106 274.400,349.649 275.120,349.200 276.000 M190.088 290.300 L 190.176 296.200 190.299 290.527 C 190.406 285.557,190.507 284.832,191.111 284.674 C 191.616 284.541,191.560 284.480,190.900 284.446 C 190.001 284.400,190.000 284.410,190.088 290.300 M201.100 285.489 C 201.815 285.578,202.985 285.578,203.700 285.489 C 204.415 285.401,203.830 285.328,202.400 285.328 C 200.970 285.328,200.385 285.401,201.100 285.489 M340.646 291.000 C 340.291 291.550,339.709 292.495,339.353 293.100 L 338.705 294.200 339.510 293.226 C 340.460 292.076,341.721 290.000,341.469 290.000 C 341.371 290.000,341.001 290.450,340.646 291.000 M321.600 315.400 C 320.854 316.170,320.413 316.787,320.622 316.771 C 320.982 316.744,323.454 314.000,323.118 314.000 C 323.029 314.000,322.346 314.630,321.600 315.400 M78.329 316.126 C 79.036 316.856,79.476 317.605,79.307 317.790 C 79.138 317.976,79.241 317.989,79.535 317.819 C 80.016 317.541,77.935 314.800,77.243 314.800 C 77.133 314.800,77.622 315.397,78.329 316.126 M83.983 321.700 C 84.964 322.745,85.819 323.600,85.883 323.600 C 86.184 323.600,85.866 323.241,84.100 321.583 L 82.200 319.800 83.983 321.700 M313.978 323.064 L 312.600 324.528 314.100 323.364 C 314.925 322.724,315.600 322.065,315.600 321.900 C 315.600 321.405,315.417 321.536,313.978 323.064 M290.993 341.056 C 288.952 342.409,288.232 343.123,289.826 342.214 C 291.230 341.414,293.101 340.022,292.793 340.009 C 292.679 340.004,291.869 340.475,290.993 341.056 M274.300 350.629 C 272.805 351.440,272.896 351.778,274.400 351.000 C 275.060 350.659,275.600 350.294,275.600 350.190 C 275.600 349.932,275.557 349.947,274.300 350.629 M254.400 359.000 C 253.630 359.297,253.270 359.545,253.600 359.552 C 253.930 359.558,254.740 359.317,255.400 359.014 C 256.945 358.307,256.226 358.297,254.400 359.000 " stroke="none" fill="#83c4f4" fill-rule="evenodd"></path></g></svg>