<?xml version="1.0" encoding="UTF-8" standalone="no"?>
<svg
   xmlns:dc="http://purl.org/dc/elements/1.1/"
   xmlns:cc="http://creativecommons.org/ns#"
   xmlns:rdf="http://www.w3.org/1999/02/22-rdf-syntax-ns#"
   xmlns:svg="http://www.w3.org/2000/svg"
   xmlns="http://www.w3.org/2000/svg"
   viewBox="0 0 365.78668 365.78668"
   height="365.78668"
   width="365.78668"
   xml:space="preserve"
   id="svg2"
   version="1.1"><metadata
     id="metadata8"><rdf:RDF><cc:Work
         rdf:about=""><dc:format>image/svg+xml</dc:format><dc:type
           rdf:resource="http://purl.org/dc/dcmitype/StillImage" /></cc:Work></rdf:RDF></metadata><defs
     id="defs6" /><g
     transform="matrix(1.3333333,0,0,-1.3333333,0,365.78667)"
     id="g10"><g
       transform="scale(0.1)"
       id="g12"><path
         id="path14"
         style="fill:#3b83b8;fill-opacity:1;fill-rule:nonzero;stroke:none"
         d="m 0,1371.72 c 0,757.58 614.137,1371.72 1371.72,1371.72 757.57,0 1371.71,-614.14 1371.71,-1371.72 C 2743.43,614.141 2129.29,0 1371.72,0 614.137,0 0,614.141 0,1371.72" /><path
         id="path16"
         style="fill:#ffffff;fill-opacity:1;fill-rule:nonzero;stroke:none"
         d="m 75.0508,1371.72 c 0,716.13 580.5352,1296.67 1296.6692,1296.67 716.13,0 1296.67,-580.54 1296.67,-1296.67 C 2668.39,655.59 2087.85,75.0586 1371.72,75.0586 655.586,75.0586 75.0508,655.59 75.0508,1371.72" /><path
         id="path18"
         style="fill:#3b83b8;fill-opacity:1;fill-rule:nonzero;stroke:none"
         d="m 248.332,1371.72 c 0,620.43 502.957,1123.39 1123.388,1123.39 620.42,0 1123.38,-502.96 1123.38,-1123.39 0,-620.431 -502.96,-1123.38 -1123.38,-1123.38 -620.431,0 -1123.388,502.949 -1123.388,1123.38" /><path
         id="path20"
         style="fill:#ffffff;fill-opacity:1;fill-rule:nonzero;stroke:none"
         d="M 1111.61,2098.39 V 1739.3 h 630.21 v -90.7 h 359.8 v 90.7 359.09 h -990.01" /><path
         id="path22"
         style="fill:#ffffff;fill-opacity:1;fill-rule:nonzero;stroke:none"
         d="M 1020.99,2098.39 H 661.824 v -359.17 h 359.166 v 359.17" /><path
         id="path24"
         style="fill:#ffffff;fill-opacity:1;fill-rule:nonzero;stroke:none"
         d="M 1020.99,1648.6 H 661.824 V 1198.39 H 1741.82 v -180 H 661.824 V 658.391 h 1079.996 356.67 3.13 v 539.999 359.84 H 1020.99 v 90.37" /><path
         id="path26"
         style="fill:#215178;fill-opacity:1;fill-rule:nonzero;stroke:none"
         d="M 572.449,1829.22 H 391.824 v 178.33 h 180.625 v -178.33" /><path
         id="path28"
         style="fill:none;stroke:#ffffff;stroke-width:20;stroke-linecap:butt;stroke-linejoin:miter;stroke-miterlimit:10;stroke-dasharray:none;stroke-opacity:1"
         d="M 572.449,1829.22 H 391.824 v 178.33 h 180.625 z" /><path
         id="path30"
         style="fill:#4a94c1;fill-opacity:1;fill-rule:nonzero;stroke:none"
         d="M 703.906,2188.39 H 572.449 v 131.46 h 131.457 v -131.46" /><path
         id="path32"
         style="fill:none;stroke:#ffffff;stroke-width:20;stroke-linecap:butt;stroke-linejoin:miter;stroke-miterlimit:10;stroke-dasharray:none;stroke-opacity:1"
         d="M 703.906,2188.39 H 572.449 v 131.46 h 131.457 z" /><path
         id="path34"
         style="fill:#2e6a9e;fill-opacity:1;fill-rule:nonzero;stroke:none"
         d="m 482.137,2099.22 h -89.688 v 89.69 h 89.688 v -89.69" /><path
         id="path36"
         style="fill:none;stroke:#ffffff;stroke-width:20;stroke-linecap:butt;stroke-linejoin:miter;stroke-miterlimit:10;stroke-dasharray:none;stroke-opacity:1"
         d="m 482.137,2099.22 h -89.688 v 89.69 h 89.688 z" /></g></g></svg>