<svg width="400" height="401.684" xmlns="http://www.w3.org/2000/svg"><g fill-rule="evenodd"><path d="M202 110.245c-.55.099-2.945.451-5.322.784-31.947 4.471-56.139 27.873-63.856 61.771l-1.047 4.6-6.087.11-6.088.111V186h10.887l-.322 4.5c-.178 2.475-.298 9.315-.268 15.2l.055 10.7H118v8.4h13.088l.881 4.425c8.408 42.197 37.925 66.375 81.034 66.375 19.401 0 41.953-6.894 50.122-15.322l1.287-1.329-3.195-5.743c-3.885-6.984-3.518-6.619-5.375-5.357-15.594 10.596-45.308 14.408-64.442 8.267-20.679-6.637-35.658-25.407-39.594-49.616l-.276-1.7h84.07v-8.4h-85.185l-.261-1.041c-.289-1.152.132-24.446.497-27.459l.23-1.9H235.6v-8.4h-83.544l1.009-3.683c6.052-22.086 19.102-37.839 36.04-43.505 19.917-6.662 47.77-3.989 63.215 6.067 1.453.946 2.662 1.489 2.855 1.281 1.8-1.931 7.28-11.186 6.944-11.727-3.265-5.272-20.756-12.907-34.519-15.069-4.024-.632-23.093-1.167-25.6-.719M366.901 204.2c.004.88.086 1.193.182.695.096-.497.092-1.217-.008-1.6-.1-.382-.179.025-.174.905M198.705 371.883c.497.096 1.217.092 1.6-.008.382-.1-.025-.179-.905-.174-.88.004-1.193.086-.695.182" fill="#fbfbfc"/><path d="M195.437 36.867c-.491.285-2.093.364-4.496.22-2.404-.143-3.826-.073-3.992.196-.158.255-1.173.335-2.604.206-1.487-.135-2.345-.062-2.345.201 0 .254-.695.336-1.8.211-1.077-.121-1.8-.041-1.8.2 0 .238-.576.31-1.4.176-.853-.138-1.4-.063-1.4.192 0 .243-.588.35-1.4.255-.77-.09-1.4.004-1.4.209 0 .204-.63.269-1.4.144-.864-.14-1.4-.064-1.4.198 0 .264-.481.329-1.271.171-.699-.14-1.145-.129-.992.024.154.154-1.66.691-4.029 1.193-2.369.503-4.668 1.02-5.108 1.149-.44.129-.98.283-1.2.342-.22.06-1.367.406-2.549.77-1.183.364-2.308.565-2.5.445-.193-.119-.351-.006-.351.25 0 .257-.248.371-.551.255-.303-.116-.708-.062-.9.12-.192.182-1.609.716-3.149 1.186-4.171 1.273-10.507 3.577-13 4.728-5.23 2.414-17.017 8.203-17.2 8.448-.364.488-5.391 3.357-5.9 3.367-.275.006-.5.156-.5.333 0 .178-.495.58-1.101.893-.605.313-2.495 1.57-4.2 2.792-1.704 1.223-3.099 2.108-3.099 1.965 0-.142-.225.021-.5.364-.275.342-1.58 1.403-2.9 2.356-16.801 12.136-35.877 33.972-45.632 52.234-1.275 2.387-2.465 4.4-2.646 4.474-.18.074-.225.299-.101.5s.025.366-.221.366-.345.165-.221.366c.124.201.086.426-.086.5-.172.074-1.005 1.664-1.852 3.534-.846 1.87-1.742 3.532-1.99 3.694-.248.162-.325.297-.172.3.432.009-.506 2.406-.942 2.406-.211 0-.283.164-.159.364.123.2-.164 1.235-.639 2.3-.474 1.065-.93 2.288-1.011 2.719-.082.43-.279.88-.438 1-.16.119-.352.577-.428 1.017-.076.44-.465 1.52-.864 2.4-.4.88-1.319 3.67-2.043 6.2-.724 2.53-1.441 4.654-1.593 4.719-.152.066-.185.471-.073.9.112.43.02.781-.205.781-.225 0-.315.36-.2.8.115.44.025.8-.2.8s-.315.36-.2.8c.115.44.053.801-.137.802-.191.001-.381.651-.422 1.446-.041.794-.204 1.738-.361 2.098-.158.36-.248.969-.2 1.354.047.385-.108.7-.346.7-.257 0-.336.389-.193.956.132.526.062 1.067-.155 1.201-.217.134-.301.605-.185 1.046.115.44.005 1.047-.245 1.348-.249.301-.345.832-.211 1.179.133.347.094.865-.087 1.151-.182.285-.373.969-.427 1.519a105.747 105.747 0 0 1-.672 5.245c-1.561 10.084-1.567 31.411-.011 40.755.254 1.523.53 3.624.683 5.2.054.55.241 1.227.417 1.504.176.277.211.846.078 1.266-.134.419-.045.885.197 1.035.242.149.403.659.357 1.133-.046.474.053 1.177.219 1.562.167.385.203.958.082 1.274-.121.316-.054.631.15.7.204.069.443.846.531 1.726.089.88.288 1.906.443 2.281.155.374.175.854.044 1.066-.131.211-.047.448.186.526.234.078.46.813.503 1.633.043.82.234 1.491.425 1.492.19.001.254.353.142.783-.112.429-.079.834.073.9.152.065.869 2.189 1.593 4.719.724 2.53 1.673 5.383 2.109 6.339.435.957.817 2.082.849 2.5.031.419.185.761.34.761.276 0 .872 2.125.743 2.649-.035.144.098.372.297.506.199.135.66 1.001 1.023 1.925 1.599 4.062 5.213 11.932 5.535 12.054.195.074.252.299.128.5s-.025.366.221.366.345.165.221.366c-.124.201-.079.426.1.5.399.164 4.209 7.134 3.9 7.134-.122 0 .066.315.416.7 1.205 1.323 4.896 7.234 4.663 7.467-.128.128-.047.233.18.233.228 0 .915.765 1.528 1.7.612.935 3.021 4.191 5.353 7.237 2.331 3.045 4.194 5.7 4.139 5.9-.055.199.035.32.2.268.165-.053 2.661 2.422 5.546 5.5 7.485 7.982 15.085 14.788 22.754 20.375 1.76 1.282 3.38 2.549 3.6 2.815.22.267.49.485.6.486.263.003 7.738 4.914 7.999 5.255.11.145.381.294.601.331.533.09 7.145 3.795 7.4 4.147.11.151 1.865 1.046 3.9 1.989 2.035.942 3.7 1.878 3.7 2.079 0 .201.18.254.4.118.22-.136.4-.095.4.091s.315.363.7.393c.385.03 1.87.581 3.3 1.224 1.43.643 2.69 1.16 2.8 1.149.11-.011.74.274 1.4.634.66.359 2.55 1.157 4.2 1.773 1.65.616 3.057 1.248 3.126 1.405.069.157.384.187.7.066.316-.121.574-.066.574.122 0 .189.49.371 1.088.406.598.035 1.153.261 1.234.503.08.241.309.338.509.215.352-.218 4.768.985 5.169 1.408.11.116.38.217.6.224 1.174.04 3.825.704 4.011 1.004.118.192.461.254.761.138.301-.115.668-.014.815.224.148.239.41.346.584.239.173-.107.926-.005 1.672.228 1.597.498 1.711.522 7.157 1.54 2.31.432 4.695.792 5.3.8.605.007 1.1.183 1.1.389 0 .206.63.272 1.4.148.893-.145 1.4-.067 1.4.215 0 .277.444.353 1.188.204.653-.13 1.508-.104 1.9.059.391.163 1.657.261 2.812.218 1.175-.043 2.1.098 2.1.32 0 .251 1.401.313 3.8.17 2.538-.151 3.8-.087 3.8.195 0 .275 2.005.421 5.8.421s5.8-.146 5.8-.421c0-.282 1.262-.346 3.8-.195 2.51.15 3.8.086 3.8-.189 0-.261.894-.352 2.4-.243 1.363.099 2.4.011 2.4-.204 0-.21.71-.283 1.6-.164.972.131 1.6.053 1.6-.198 0-.259.607-.316 1.629-.153 1.071.171 1.543.12 1.377-.149-.149-.241.209-.415.87-.423.953-.013 7.158-1.074 10.524-1.801a49.81 49.81 0 0 1 1.607-.319 3.767 3.767 0 0 0 1.127-.425c.285-.177.626-.215.756-.085.13.131.459.052.731-.174.272-.225.649-.375.837-.333.188.043.612-.031.942-.164 1.344-.541 3.746-1.042 4.062-.846.186.114.338-.003.338-.262 0-.273.335-.383.8-.261.44.115.8.027.8-.196s.27-.302.6-.175c.33.126.6.089.6-.083 0-.342 6.29-2.296 7.1-2.206.275.03.5-.085.5-.257s.455-.426 1.011-.566c.556-.139 2.03-.72 3.276-1.29 1.246-.57 2.456-1.069 2.689-1.109.233-.04.805-.282 1.271-.539.466-.257.961-.353 1.1-.214.139.139.253.042.253-.214 0-.257.197-.467.438-.467.624 0 13.26-6.067 13.864-6.657.277-.27.907-.617 1.4-.771.494-.154.988-.396 1.098-.539.11-.143 1.55-1.045 3.2-2.006 1.65-.96 4.665-2.898 6.7-4.306s3.7-2.427 3.7-2.264c0 .163.225.018.5-.322.478-.591 6.492-5.299 7.838-6.135.354-.22.828-.604 1.053-.853.225-.25 2.299-2.062 4.609-4.027 5.453-4.64 15.284-14.987 20.255-21.32 4.064-5.176 10.945-15.01 10.945-15.641 0-.197.139-.359.308-.359.169 0 1.377-1.935 2.684-4.3 1.307-2.365 2.563-4.432 2.792-4.594.229-.162.271-.297.093-.3-.297-.006 4.358-9.153 4.889-9.606.129-.11.236-.38.238-.6.009-.809 2.713-7.4 3.037-7.4.183 0 .23-.27.104-.6-.127-.33-.07-.6.127-.6s.382-.315.412-.7c.031-.385.279-1.24.552-1.9.273-.66.535-1.335.58-1.5.046-.165.12-.345.165-.4.044-.055.137-.37.207-.7.07-.33.48-1.5.911-2.6.431-1.1 1.106-3.215 1.502-4.7.395-1.485.854-2.7 1.021-2.7.167 0 .209-.36.094-.8-.115-.44-.025-.8.2-.8s.315-.36.2-.8c-.122-.465-.012-.8.261-.8.259 0 .366-.168.239-.374-.219-.355.336-3.541.841-4.826.129-.33.306-1.294.392-2.143.087-.849.285-1.749.442-2 .156-.251.234-.845.173-1.319-.061-.474.08-.98.314-1.124.234-.145.32-.682.191-1.195-.129-.512-.039-1.052.2-1.2.24-.148.324-.706.188-1.249-.136-.541-.032-1.238.231-1.556.263-.317.362-.943.219-1.391-.142-.449-.112-1.042.067-1.319.179-.277.362-1.044.406-1.704.044-.66.169-2.1.278-3.2 1.107-11.177 1.1-23.171-.019-33.8-.104-.99-.235-2.43-.29-3.2-.056-.77-.243-1.715-.418-2.1-.174-.385-.204-.993-.067-1.351.137-.358.047-.895-.202-1.195-.248-.299-.341-.985-.205-1.524.136-.543.052-1.101-.188-1.249-.239-.148-.329-.688-.2-1.2.129-.513.043-1.05-.191-1.195-.234-.144-.388-.65-.342-1.124.046-.474-.043-1.15-.196-1.502-.154-.352-.242-.802-.196-1 .045-.198-.058-.683-.23-1.077-.172-.395-.202-.828-.067-.963.135-.136.089-.443-.104-.683-.488-.61-1.298-4.625-1.022-5.07.124-.202.015-.367-.244-.367-.27 0-.383-.333-.266-.781.112-.429.079-.834-.073-.9-.152-.065-.853-2.131-1.556-4.59-.704-2.46-1.49-4.98-1.747-5.6a45.311 45.311 0 0 1-.536-1.329 17.05 17.05 0 0 0-.327-.8c-.749-1.737-1.401-4.001-1.154-4.006.155-.003.075-.138-.178-.3-.253-.162-.523-.654-.6-1.094-.077-.44-.239-.89-.361-1-.295-.268-1.773-4.094-1.776-4.6-.002-.22-.139-.58-.306-.8-.166-.22-1.76-3.28-3.541-6.8-2.818-5.569-5.958-11.266-7.956-14.437-2.331-3.699-7.849-11.621-8.277-11.883-.288-.176-.523-.516-.523-.756s-.242-.636-.537-.88c-.295-.244-1.896-2.154-3.557-4.244-12.342-15.529-32.536-31.969-50.906-41.442-2.42-1.248-4.46-2.426-4.534-2.616-.074-.191-.299-.245-.5-.121s-.366.025-.366-.221-.18-.336-.4-.2c-.22.136-.4.046-.4-.2s-.162-.347-.361-.224c-.198.122-1.368-.307-2.6-.955-1.231-.648-2.239-1.08-2.239-.96 0 .12-.585-.125-1.3-.544-.715-.42-3.19-1.453-5.5-2.296-2.31-.843-4.29-1.643-4.4-1.777-.11-.134-.473-.262-.807-.284-.858-.057-6.952-1.867-7.193-2.136-.11-.123-.65-.271-1.2-.329-.55-.057-1.27-.222-1.6-.365a9.343 9.343 0 0 0-.9-.345c-.165-.047-.345-.13-.4-.186-.055-.056-.46-.155-.9-.222-.44-.066-1.16-.225-1.6-.354-.44-.128-2.6-.627-4.8-1.108-2.2-.481-4.058-1.012-4.128-1.179-.071-.168-.656-.199-1.3-.07-.708.141-1.172.066-1.172-.191 0-.262-.536-.338-1.4-.198-.77.125-1.4.06-1.4-.144 0-.205-.63-.299-1.4-.209-.812.095-1.4-.012-1.4-.255 0-.255-.547-.33-1.4-.192-.845.138-1.4.063-1.4-.187s-.613-.332-1.548-.206c-.856.115-1.661.025-1.8-.2-.15-.243-1.2-.322-2.597-.195-1.339.121-2.449.045-2.587-.178-.143-.233-1.84-.314-4.199-.2-2.695.13-4.048.047-4.238-.26-.365-.591-6.971-.577-7.994.016m22.376 72.73c17.609 1.071 34.946 7.008 42.977 14.717l2.382 2.286-4.026 6c-2.214 3.3-4.08 6.057-4.147 6.127-.066.07-.993-.543-2.06-1.363-8.868-6.819-28.545-11.251-45.035-10.145-27.337 1.834-43.777 15.039-53.062 42.621l-2.41 7.16 41.884.2 41.884.2v8.8l-42.454.102-42.453.102-.269 1.098c-.147.604-.371 7.263-.497 14.798l-.229 13.7H236.4v8.8h-84.721l.613 2.7c5.775 25.46 18.946 41.67 39.064 48.073 19.452 6.192 50.744 2.043 64.904-8.605 1.556-1.17 1.251-1.514 5.352 6.029l3.223 5.929-1.317 1.377c-9.887 10.333-36.338 17.218-58.918 15.336-40.018-3.335-65.949-27.56-73.687-68.839l-.338-1.8-6.501-.11-6.501-.11.114-4.29.113-4.29 5.88-.111 5.881-.11-.025-11.69c-.013-6.429.107-13.084.267-14.789l.291-3.1H119.6v-9.2h5.773c5.15 0 5.796-.075 5.986-.7.117-.385.572-2.32 1.012-4.3.734-3.306 3.072-10.394 5.211-15.8 4.051-10.24 13.106-22.397 22.018-29.563 12.779-10.275 28.228-16.157 45.2-17.208 2.75-.171 5.36-.335 5.8-.366.44-.031 3.686.12 7.213.334" fill="#64b4f4"/><path d="M191.6 36.8c-1.35.284-1.357.295-.2.3.66.003 1.74-.132 2.4-.3 1.66-.422-.193-.422-2.2 0m13.4 0c.66.168 1.74.306 2.4.307 1.009.001.945-.052-.4-.33-2.026-.419-3.663-.4-2 .023m7.8.382c.33.223.945.409 1.367.412 1.023.008.704-.221-.767-.55-.876-.196-1.038-.159-.6.138m-71 9.432c-1.005.484-1.037.539-.2.337.55-.132 1.171-.401 1.38-.596.518-.484.234-.422-1.18.259M90.922 76.229L89.8 77.258l1.3-.904c.715-.497 1.3-.961 1.3-1.029 0-.316-.442-.045-1.478.904M88.2 78.588c-.66.541-1.006.99-.77.998.237.008.853-.436 1.37-.986 1.194-1.271.942-1.276-.6-.012M83.775 82.9L82.6 84.2l1.3-1.175c1.212-1.095 1.484-1.425 1.175-1.425-.069 0-.654.585-1.3 1.3m232.101.927a193.87 193.87 0 0 1 4.8 4.797c1.278 1.334 1.787 1.784 1.13 1-2.175-2.594-5.988-6.472-7.206-7.327-.66-.464-.086.225 1.276 1.53M80.775 85.5c-3.003 3.248-3.651 4.193-1.44 2.1 2.001-1.894 3.404-3.6 2.96-3.6-.073 0-.757.675-1.52 1.5M204.5 109.887a8.899 8.899 0 0 0 2.2 0c.605-.092.11-.167-1.1-.167-1.21 0-1.705.075-1.1.167m12.805 0c.609.092 1.509.09 2-.005.492-.095-.005-.171-1.105-.168-1.1.003-1.503.081-.895.173m121.539 1.513c-.01.22.236.736.547 1.147.547.722.564.719.505-.072-.034-.451-.189-.741-.345-.645-.155.096-.374-.051-.485-.328-.112-.276-.211-.322-.222-.102m7.393 12.4c.36.55.72 1 .8 1 .08 0-.059-.45-.31-1-.25-.55-.611-1-.8-1-.19 0-.051.45.31 1m-175.859 18.5L169 143.8l1.5-1.378c.825-.759 1.5-1.434 1.5-1.5 0-.306-.338-.018-1.622 1.378m-20.285 57.3c0 .77.082 1.085.183.7.1-.385.1-1.015 0-1.4-.101-.385-.183-.07-.183.7m.038 8.2c.002 1.54.074 2.121.161 1.291.087-.83.085-2.09-.003-2.8-.089-.71-.16-.031-.158 1.509m-20.531 7.522c0 .572-.735.672-5.7.779l-5.7.123 5.713.088c5.606.086 7.074-.259 5.936-1.396-.137-.137-.249.046-.249.406m41.869.978c11.698.059 30.958.059 42.8 0 11.842-.059 2.271-.107-21.269-.107s-33.229.048-21.531.107m182.767 51.242c-.442.716-1.07 2.64-.737 2.258.441-.506 1.34-2.6 1.116-2.6-.092 0-.263.154-.379.342M262.175 281.3L261 282.6l1.3-1.175c.715-.646 1.3-1.231 1.3-1.3 0-.309-.33-.037-1.425 1.175m85.606-.063c-.352.681-.569 1.308-.482 1.395.087.087.457-.47.823-1.237.822-1.725.537-1.857-.341-.158M210.5 295.891c.825.087 2.175.087 3 0 .825-.086.15-.157-1.5-.157s-2.325.071-1.5.157M322.129 317.7c-1.056 1.173-1.599 2.114-1.009 1.75.48-.297 2.236-2.65 1.977-2.65-.087 0-.522.405-.968.9m-245.312.5c1.717 2.143 5.744 6.23 7.383 7.494 1.022.787.715.379-.85-1.131a255.199 255.199 0 0 1-4.972-4.963c-1.387-1.43-2.089-2.06-1.561-1.4M314 326.036c-.77.669-1.038 1.04-.596.827.73-.353 2.544-2.078 2.158-2.052-.089.006-.792.557-1.562 1.225m-223.026 5.922c.149.241.642.637 1.097.88.591.316.749.318.555.004-.149-.241-.642-.637-1.097-.88-.591-.316-.749-.318-.555-.004M184.2 370.8c.136.22.517.4.847.4.33 0 .489-.18.353-.4-.136-.22-.517-.4-.847-.4-.33 0-.489.18-.353.4m29.2 0c-.136.22.023.4.353.4.33 0 .711-.18.847-.4.136-.22-.023-.4-.353-.4-.33 0-.711.18-.847.4m-22.8.4c1.184.509 2.587.509 1.8 0-.33-.213-1.05-.378-1.6-.366-.916.02-.933.051-.2.366m15.8 0c-.787.509.616.509 1.8 0 .733-.315.716-.346-.2-.366-.55-.012-1.27.153-1.6.366" fill="#98cbf8"/><path d="M189.815 36.776c-.139.225.376.283 1.276.144 2.009-.31 2.17-.52.399-.52-.793 0-1.547.169-1.675.376m16.218-.233c.417.359 3.164.576 2.952.233-.128-.207-.882-.376-1.675-.376-.794 0-1.368.065-1.277.143M183.4 37.2c-.295.478.489.478 1.6 0 .714-.307.685-.347-.276-.372-.592-.015-1.188.152-1.324.372m29.833-.256c.472.406 2.41.649 2.177.272-.142-.229-.727-.416-1.3-.416-.574 0-.968.065-.877.144M108.831 62.51c-.88.543-1.173.909-.82 1.027.302.101.618-.024.702-.277.085-.253.332-.46.549-.46.217 0 .665-.27.995-.6.831-.831.204-.695-1.426.31M288 61.892c.33.125.725.421.878.656.153.236.418.289.589.119.37-.371-.619-1.065-1.467-1.029-.533.022-.533.051 0 .254m8 5.272c.55.45 1.18.819 1.4.821.428.003-.295-.551-1.6-1.225-.531-.275-.464-.139.2.404m-195.544 1.249c-1.24 1.033-.681 1.022.635-.013.559-.44.858-.794.663-.787-.195.008-.779.368-1.298.8M305.2 74.154c0 .085.495.473 1.1.862l1.1.708-.762-.862c-.674-.763-1.438-1.139-1.438-.708m2.999 2.644c.135.219.641.605 1.123.858.872.457.873.454.116-.398-.763-.86-1.702-1.208-1.239-.46m3.601 3.17c.44.505 1.34 1.293 2 1.751l1.2.832-.8-.919c-.44-.505-1.34-1.293-2-1.751l-1.2-.832.8.919M84.328 82.035L82.2 84.07l2.3-1.911c1.265-1.051 2.3-1.967 2.3-2.035 0-.355-.536.059-2.472 1.911M77.56 88.7c-1.659 1.774-2.536 2.9-2.258 2.9.111 0 1.047-.99 2.08-2.2 2.152-2.519 2.254-2.92.178-.7m244.439 1.101l1.749 1.999c.192.22.163.04-.065-.4s-1.015-1.34-1.749-1.999l-1.334-1.199 1.399 1.599M73.123 93.5c-.763.889-1.228 1.7-.974 1.7.108 0 .581-.54 1.051-1.2.932-1.309.884-1.619-.077-.5m252.683.612c.386.612.803 1.012.926.889s-.193-.623-.702-1.112l-.926-.889.702 1.112M70.4 96.6c-.283.341-.424.709-.314.819.11.11.431-.078.714-.419.283-.341.424-.709.314-.819-.11-.11-.431.078-.714.419m-8.936 11.8c-.39.66-.643 1.2-.562 1.2.081 0 .547-.54 1.035-1.2.488-.66.74-1.2.561-1.2-.179 0-.644.54-1.034 1.2m276.274 1.131c.364.403.662.973.662 1.267 0 .295.12.415.267.268.342-.342-.674-2.266-1.197-2.266-.217 0-.096.329.268.731m-128.038.365c1.265.079 3.335.079 4.6 0 1.265-.08.23-.145-2.3-.145s-3.565.065-2.3.145M54.664 118.8c-.392.662-.52 1.2-.287 1.2.233 0 .423-.27.423-.6 0-.33.161-.6.357-.6.197 0 .461-.27.588-.6.406-1.059-.349-.64-1.081.6m-2.567 4.9c-.594.742-2.174 3.957-2.02 4.111.074.073.693-.935 1.377-2.239 1.245-2.373 1.395-2.81.643-1.872m209.128 1.331c.756.897 1.456 1.566 1.555 1.486.099-.079-.52-.813-1.375-1.63l-1.555-1.487 1.375 1.631M154.591 131.7L151.4 135l3.3-3.191c1.815-1.754 3.3-3.239 3.3-3.3 0-.291-.446.126-3.409 3.191m29.809.5c-.55.314-.82.572-.6.572.22 0 .85-.258 1.4-.572.55-.314.82-.572.6-.572-.22 0-.85.258-1.4.572m-137.119.702c-.451.544-1.151 3.04-.75 2.677.322-.292 1.524-3.179 1.323-3.179-.086 0-.344.226-.573.502m304.325 1.312c.011.689.742 1.571 1.048 1.265.164-.164-.006-.602-.378-.974s-.673-.503-.67-.291M235.75 181.8c.001 2.42.066 3.358.146 2.085.08-1.273.079-3.253-.002-4.4-.08-1.147-.145-.105-.144 2.315m-105.626 6.4c.002 1.32.077 1.812.166 1.093.089-.719.087-1.799-.004-2.4s-.164-.013-.162 1.307m-.384 8.2c0 1.87.069 2.635.153 1.7.084-.935.084-2.465 0-3.4s-.153-.17-.153 1.7m236.753-1.6c0 .77.082 1.085.183.7.1-.385.1-1.015 0-1.4-.101-.385-.183-.07-.183.7m-216.373 1.6c0 1.21.075 1.705.167 1.1a8.899 8.899 0 0 0 0-2.2c-.092-.605-.167-.11-.167 1.1m-118.019-.2c.004.88.086 1.193.182.695.096-.497.092-1.217-.008-1.6-.1-.382-.179.025-.174.905m97.647 14.6c0 2.31.066 3.255.147 2.1a36.327 36.327 0 0 0 0-4.2c-.081-1.155-.147-.21-.147 2.1m-97.647 1c.004.88.086 1.193.182.695.096-.497.092-1.217-.008-1.6-.1-.382-.179.025-.174.905m118.03 1.2c.002 1.54.074 2.121.161 1.291.087-.83.085-2.09-.003-2.8-.089-.71-.16-.031-.158 1.509m216.362.2c0 .77.082 1.085.183.7.1-.385.1-1.015 0-1.4-.101-.385-.183-.07-.183.7m-130.743 7.4c.001 2.42.066 3.358.146 2.085.08-1.273.079-3.253-.002-4.4-.08-1.147-.145-.105-.144 2.315M170 263.4c1.195 1.21 2.263 2.2 2.373 2.2.11 0-.778-.99-1.973-2.2-1.195-1.21-2.263-2.2-2.373-2.2-.11 0 .778.99 1.973 2.2m-18.4 7.91c0 .061 1.395 1.456 3.1 3.1l3.1 2.99-2.99-3.1c-2.777-2.879-3.21-3.283-3.21-2.99M46.922 274.4c.25.66.585 1.2.745 1.2.16 0 .103-.54-.127-1.2-.23-.66-.565-1.2-.744-1.2-.18 0-.123.54.126 1.2m161.178 4.691c.825.087 2.175.087 3 0 .825-.086.15-.157-1.5-.157s-2.325.071-1.5.157m6.2-.002c.715.089 1.885.089 2.6 0 .715-.088.13-.161-1.3-.161-1.43 0-2.015.073-1.3.161m-163.9 1.858c0 .486 1.968 4.186 2.354 4.424.203.126-.183-.806-.857-2.071-1.349-2.532-1.497-2.765-1.497-2.353m118.4 4.049c0 .274 2.449 1.488 2.632 1.305.087-.087-.47-.457-1.237-.823-.767-.366-1.395-.583-1.395-.482m-113.582 5.038c.246.459.526.755.624.658.28-.28-.288-1.492-.699-1.492-.204 0-.17.375.075.834M338.4 297.4c0 .33-.18.6-.4.6-.22 0-.4.193-.4.429 0 .235-.279.707-.619 1.047-.341.341-.519.72-.396.842.236.236.93-.599 2.008-2.418.372-.628.471-1.1.23-1.1-.233 0-.423.27-.423.6m-276.785 2.4c.019.562 1.981 2.898 1.983 2.362.001-.241-.448-.961-.998-1.6-.549-.639-.993-.982-.985-.762m7.985 10.502c0 .22.27.624.6.898.335.278.6.321.6.098 0-.22-.27-.624-.6-.898-.335-.278-.6-.321-.6-.098m3 3.698c.398.44.792.8.876.8.084 0-.041-.36-.276-.8-.235-.44-.63-.8-.876-.8s-.122.36.276.8m251.344 1.9c-1.538 1.857-1.81 2.368-.8 1.504.861-.736 1.881-2.204 1.532-2.204-.084 0-.413.315-.732.7m-248.096 1.7c.814.88 1.55 1.6 1.635 1.6.085 0-.424-.72-1.131-1.6-.707-.88-1.443-1.6-1.635-1.6-.192 0 .317.72 1.131 1.6m8.752 8.76c.906 1.049 3.293 2.837 2.867 2.148-.153-.247-1.041-1.04-1.973-1.762-1.145-.887-1.435-1.012-.894-.386m227.522 1.464c-.817.746-.896.915-.289.622.83-.401 2.069-1.646 1.638-1.646-.124 0-.731.461-1.349 1.024M89.4 330.8c.398.44.904.8 1.124.8.22 0 .074-.36-.324-.8-.398-.44-.904-.8-1.124-.8-.22 0-.074.36.324.8m218.592.61c-.748.901-.314 1.005.578.138.423-.411.581-.748.349-.748-.232 0-.649.274-.927.61m-10.892 8.623c-.912.999-.499.981.791-.033.559-.44.768-.785.463-.767-.305.019-.869.379-1.254.8m-179.9 10.163c0 .274 2.449 1.488 2.632 1.305.087-.087-.47-.457-1.237-.823-.767-.366-1.395-.583-1.395-.482m157.3 3.311c-1.155.582-2.1 1.205-2.1 1.384 0 .36 2.546-.877 3.8-1.847 1.121-.867.724-.758-1.7.463m-150.9.025c0 .176.63.62 1.4.987.77.368 1.4.524 1.4.349 0-.176-.63-.62-1.4-.987-.77-.368-1.4-.524-1.4-.349m98 16.468c0 .22.27.4.6.4.33 0 .6-.18.6-.4 0-.22-.27-.4-.6-.4-.33 0-.6.18-.6.4m-42.6.4c.136.22.517.4.847.4.33 0 .489-.18.353-.4-.136-.22-.517-.4-.847-.4-.33 0-.489.18-.353.4m39.6 0c-.136.22.023.4.353.4.33 0 .711-.18.847-.4.136-.22-.023-.4-.353-.4-.33 0-.711.18-.847.4m-36 .4c.136.22.607.4 1.047.4.44 0 .689-.18.553-.4-.136-.22-.607-.4-1.047-.4-.44 0-.689.18-.553.4m32 0c-.136.22.113.4.553.4.44 0 .911-.18 1.047-.4.136-.22-.113-.4-.553-.4-.44 0-.911.18-1.047.4m-26 .4c.44.189 1.25.344 1.8.344.912 0 .929-.031.2-.344-.44-.189-1.25-.344-1.8-.344-.912 0-.929.031-.2.344m19.6 0c-.733.315-.716.346.2.366.55.012 1.27-.153 1.6-.366.787-.509-.616-.509-1.8 0" fill="#bbdefc"/><path d="M193.8 36.8l-1.2.305 1.2.042c.66.022 1.47-.134 1.8-.347.743-.48.087-.48-1.8 0m9.604.006c.134.217.803.394 1.486.394 1.511 0 1.359-.2-.41-.537-.825-.157-1.228-.103-1.076.143m40.423 5.949c.425.389 2.902 1.041 2.527.665-.135-.134-.843-.416-1.573-.625-.73-.21-1.159-.227-.954-.04M316.8 85c1.195 1.21 2.263 2.2 2.373 2.2.11 0-.778-.99-1.973-2.2-1.195-1.21-2.263-2.2-2.373-2.2-.11 0 .778.99 1.973 2.2m6.778 7.128c.759.809 1.428 1.472 1.488 1.472.406 0-.533-1.162-1.593-1.972l-1.273-.973 1.378 1.473M68.323 99.9c-.705.821-1.233 1.7-1.022 1.7.082 0 .548-.54 1.036-1.2.964-1.304.955-1.628-.014-.5m142.384 9.59c.719.089 1.799.087 2.4-.004s.013-.164-1.307-.162c-1.32.002-1.812.077-1.093.166M51.381 125.637c-.352.681-.569 1.308-.482 1.395.087.087.457-.47.823-1.237.822-1.725.537-1.857-.341-.158m295.697.158c.366.767.736 1.324.823 1.237.183-.183-1.031-2.632-1.305-2.632-.101 0 .116.628.482 1.395m-137.573 1.288c.497.096 1.217.092 1.6-.008.382-.1-.025-.179-.905-.174-.88.004-1.193.086-.695.182m7.6 0c.497.096 1.217.092 1.6-.008.382-.1-.025-.179-.905-.174-.88.004-1.193.086-.695.182m-62.516 4.217l-2.789 2.9 2.9-2.789c2.694-2.591 3.083-3.011 2.789-3.011-.061 0-1.366 1.305-2.9 2.9m201.855 15.509c.256.765.626 1.567.821 1.782.196.215.147-.235-.109-1s-.626-1.567-.821-1.782c-.196-.215-.147.235.109 1M131.2 176.733c0 .331-1.722.493-5.9.555l-5.9.088 5.769.124c5.347.114 7.11-.154 6.304-.96-.15-.15-.273-.063-.273.193m62.9.766l41.9.105v8.392l-42.3.105-42.3.104 42.4-.002 42.4-.003v-8.8l-42-.003-42-.003 41.9.105m-72 8.798c1.485.077 3.915.077 5.4 0 1.485-.077.27-.14-2.7-.14s-4.185.063-2.7.14m7.214 16.303c.003 1.1.081 1.503.173.895.092-.609.09-1.509-.005-2-.095-.492-.171.005-.168 1.105m20.81.4c.002 1.32.077 1.812.166 1.093.089-.719.087-1.799-.004-2.4s-.164-.013-.162 1.307m-32.352 13.528c-.111.291-.149 2.316-.084 4.5l.118 3.972.197-4.501c.195-4.454.163-4.998-.231-3.971m118.136 2.571c.192 5.479.356 6.02.425 1.401.037-2.475-.068-4.5-.233-4.501-.165 0-.251 1.395-.192 3.1M170.4 263.4c1.195 1.21 2.263 2.2 2.373 2.2.11 0-.778-.99-1.973-2.2-1.195-1.21-2.263-2.2-2.373-2.2-.11 0 .778.99 1.973 2.2m35.891 15.289c.71.088 1.97.09 2.8.003.83-.087.249-.159-1.291-.161-1.54-.002-2.219.069-1.509.158m10 0c.71.088 1.97.09 2.8.003.83-.087.249-.159-1.291-.161-1.54-.002-2.219.069-1.509.158m-8.991 17.187c.385.1 1.015.1 1.4 0 .385-.101.07-.183-.7-.183s-1.085.082-.7.183m8.405.011c.609.092 1.509.09 2-.005.492-.095-.005-.171-1.105-.168-1.1.003-1.503.081-.895.173M329.026 309.5c-.864 1.105-.933 1.29-.263.704.802-.7 1.86-2.204 1.551-2.204-.063 0-.642.675-1.288 1.5M75.4 316.4c.859.88 1.652 1.6 1.762 1.6.11 0-.503-.72-1.362-1.6-.859-.88-1.652-1.6-1.762-1.6-.11 0 .503.72 1.362 1.6m241.992 6.058c-1.976 2.012-2.962 3.193-2.192 2.626 1.928-1.42 6.506-6.284 5.915-6.284-.072 0-1.748 1.646-3.723 3.658m-235.409.842c1.658 1.766 2.017 2.084 2.017 1.783 0-.064-.855-.919-1.9-1.9l-1.9-1.783 1.783 1.9m228.615 5.502c-.4.442-.632.897-.516 1.013.115.115.508-.246.873-.803.797-1.216.638-1.31-.357-.21m-7.428 6.298l-.97 1.1 1.2-1c.66-.55 1.275-1.045 1.367-1.1.091-.055-.012-.1-.231-.1-.218 0-.833.495-1.366 1.1m-170.024 22.716c.74.321 1.46.578 1.6.57.52-.029-1.77-1.158-2.346-1.156-.33.001.006.264.746.586M192.4 371.2c.776.501 1.2.501 1.2 0 0-.22-.405-.397-.9-.394-.728.005-.785.08-.3.394m12.8 0c0 .501.424.501 1.2 0 .485-.314.428-.389-.3-.394-.495-.003-.9.174-.9.394" fill="#84c4f4"/></g></svg>