<svg xmlns="http://www.w3.org/2000/svg" height="365.787" width="365.787"><path d="M0 182.89C0 81.88 81.885-.004 182.896-.004c101.01 0 182.895 81.885 182.895 182.896 0 101.01-81.886 182.896-182.895 182.896C81.885 365.787 0 283.9 0 182.89" fill="#3b83b8"/><path d="M10.007 182.89c0-95.483 77.404-172.889 172.889-172.889 95.484 0 172.89 77.406 172.89 172.89 0 95.484-77.406 172.888-172.89 172.888-95.485 0-172.89-77.404-172.89-172.888" fill="#fff"/><path d="M33.11 182.89c0-82.723 67.062-149.785 149.786-149.785 82.723 0 149.784 67.062 149.784 149.786s-67.061 149.784-149.784 149.784c-82.724 0-149.785-67.06-149.785-149.784" fill="#3b83b8"/><path d="M148.215 86.001v47.879h84.028v12.093h47.973V86.001H148.215m-12.083 0H88.243v47.89h47.889V86m0 59.973H88.243v60.028h144v24h-144v48h191.973V158.023H136.132v-12.05" fill="#fff"/><path d="M76.327 121.89H52.243V98.114h24.084v23.778" fill="#215178"/><path d="M76.327 121.89H52.243V98.114h24.084z" fill="none" stroke="#fff" stroke-width="2.667" stroke-miterlimit="10"/><path d="M93.854 74.001H76.327V56.473h17.527v17.528" fill="#4a94c1"/><path d="M93.854 74.001H76.327V56.473h17.527z" fill="none" stroke="#fff" stroke-width="2.667" stroke-miterlimit="10"/><path d="M64.285 85.89H52.327V73.933h11.958v11.959" fill="#2e6a9e"/><path d="M64.285 85.89H52.327V73.933h11.958z" fill="none" stroke="#fff" stroke-width="2.667" stroke-miterlimit="10"/></svg>