<?xml version="1.0" standalone="no"?>
<!DOCTYPE svg PUBLIC "-//W3C//DTD SVG 20010904//EN"
 "http://www.w3.org/TR/2001/REC-SVG-20010904/DTD/svg10.dtd">
<svg version="1.0" xmlns="http://www.w3.org/2000/svg"
 width="416.000000pt" height="416.000000pt" viewBox="0 0 416.000000 416.000000"
 preserveAspectRatio="xMidYMid meet">
<metadata>
Created by potrace 1.11, written by Peter Selinger 2001-2013
</metadata>
<g transform="translate(0.000000,416.000000) scale(0.100000,-0.100000)"
fill="#000000" stroke="none">
<path d="M1965 4133 c-378 -22 -790 -167 -1071 -377 -23 -17 -54 -40 -69 -51
-110 -80 -274 -247 -393 -400 -5 -5 -35 -50 -67 -100 -175 -266 -290 -592
-323 -915 -13 -125 -5 -447 13 -510 2 -8 7 -35 10 -60 3 -25 8 -53 11 -62 3
-9 6 -25 8 -35 24 -119 93 -309 168 -458 303 -604 888 -1019 1563 -1109 105
-14 462 -16 525 -3 14 3 42 8 63 11 178 27 409 100 582 186 484 238 861 668
1033 1175 41 122 76 262 87 355 1 8 6 44 10 80 11 81 12 341 3 435 -37 362
-174 716 -389 1005 -80 108 -98 129 -209 240 -213 214 -471 376 -760 478 -90
32 -215 68 -271 77 -19 3 -59 10 -89 15 -102 18 -324 29 -435 23z"/>
</g>
</svg>
