<svg width="400" height="401.684" xmlns="http://www.w3.org/2000/svg"><g fill-rule="evenodd"><path d="M125.2 50.6c-.55.314-.82.572-.6.572.22 0 .85-.258 1.4-.572.55-.314.82-.572.6-.572-.22 0-.85.258-1.4.572m-38.4 26c-.278.335-.321.6-.098.6.22 0 .624-.27.898-.6.278-.335.321-.6.098-.6-.22 0-.624.27-.898.6m97.75 16.476c-2.583.506-2.738 1.196-2.874 12.734l-.124 10.547-2.276.627c-33.37 9.191-45.77 47.049-22.89 69.879 5.475 5.464 16.98 12.706 23.914 15.055l1.3.44v30.621c0 16.842-.075 30.621-.167 30.621-.734 0-4.443-1.974-6.898-3.671-7.558-5.224-11.89-12.326-12.992-21.296l-.471-3.833H139.6l.002 1.9c.016 20.487 15.913 37.935 41.467 45.512.33.098.507 2.372.6 7.722.146 8.429.254 8.783 2.964 9.677 3.764 1.242 4.94-.849 5.067-9.011l.1-6.4 1.2.101c.66.056 5.283.213 10.273.351l9.073.249.127 6.341c.149 7.464.674 8.588 3.97 8.501 3.339-.087 3.735-1.017 3.89-9.13l.132-6.97 2.268-.45c24.781-4.919 39.44-20.754 39.431-42.593-.009-21.704-11.074-35.038-37.864-45.627l-3.9-1.542v-29.316c0-26.034.068-29.315.611-29.315.89 0 5.262 2.273 7.64 3.971 5.936 4.241 11.333 14.124 11.353 20.793.003.79.116 2.111.253 2.936l.248 1.5H260l-.002-1.7c-.018-19.578-14.679-37.843-36.007-44.858l-5.391-1.773-.2-10.135c-.242-12.264-.92-13.812-5.403-12.333-2.264.747-2.377 1.253-2.597 11.599l-.2 9.4-1.2-.067c-3.836-.216-14.358-.072-16.4.225-3.219.467-3 1.154-3-9.408 0-5.97-.158-9.697-.432-10.21-.398-.743-2.724-2.013-3.455-1.886-.172.03-.696.13-1.163.222M49.675 125.819c-1.205 2.481-1.07 2.828.171.442.555-1.067.941-2.008.857-2.091-.084-.084-.546.658-1.028 1.649m160.025 6.388c.69.275 1.161 57.598.479 58.28-.295.296-10.927-2.865-16.179-4.81l-4.2-1.555-.103-25.41c-.081-20.02.004-25.497.4-25.825 1.297-1.071 17.231-1.624 19.603-.68M181.6 157.8c0 12.63-.153 22.2-.354 22.2-.829 0-5.649-3.566-8.092-5.987-8.78-8.701-8.491-24.288.617-33.221 1.946-1.909 6.702-5.187 7.529-5.191.165 0 .3 9.989.3 22.199M367.337 201c.002 1.76.072 2.43.156 1.489.085-.94.084-2.38-.002-3.2-.086-.819-.155-.049-.154 1.711m-170.223 6.825c3.237 1.012 7.551 2.38 9.586 3.04l3.7 1.201v54.647l-1.054.265c-2.69.675-15.922.102-19.046-.824-.659-.196-.7-1.978-.7-30.114 0-29.539.041-30.663 1.093-30.26.294.113 3.184 1.033 6.421 2.045m25.012 9.153c13.159 6.244 18.616 16.551 15.832 29.902-1.699 8.145-12.287 18.215-19.258 18.316-.165.002-.3-11.156-.3-24.796 0-16.724.134-24.8.411-24.8.227 0 1.718.62 3.315 1.378M318.21 319.59c-1.3 1.314-2.285 2.452-2.187 2.529.097.076 1.299-.999 2.67-2.39s2.356-2.529 2.188-2.529c-.168 0-1.37 1.075-2.671 2.39m-21.958 18.619c-.191.497-.088.532.557.186.927-.496 1.015-.795.234-.795-.307 0-.663.274-.791.609m-97.941 30.484c.94.085 2.38.084 3.2-.002.819-.086.049-.155-1.711-.154-1.76.002-2.43.072-1.489.156" fill="#fafbfc"/><path d="M194.6 34.02c-1.1.21-3.17.368-4.6.353-1.43-.016-3.86.093-5.4.24-1.54.148-3.451.315-4.247.371-.795.057-1.653.231-1.906.387-.253.157-.862.245-1.354.197-.491-.048-1.163.026-1.493.163-.33.138-1.59.299-2.8.36-1.21.06-2.29.206-2.4.325-.35.378-7.611 1.625-8.014 1.376-.212-.132-.386-.082-.386.111 0 .49-5.87 1.825-6.449 1.466-.299-.184-.369-.121-.189.169.17.276.028.462-.353.462-.652 0-10.485 3.306-16.609 5.584-1.87.696-5.065 2.052-7.1 3.015-2.035.963-3.703 1.627-3.706 1.476-.003-.151-.138-.082-.3.155-.162.236-2.904 1.775-6.094 3.419-3.19 1.644-7.06 3.81-8.6 4.814a975.264 975.264 0 0 1-5.778 3.728C81.004 78.696 56.107 109.319 44.863 138.4c-3.905 10.1-4.444 11.569-4.888 13.334-.259 1.026-.639 1.866-.846 1.866-.207 0-.272.169-.145.375.234.377-1.754 8.853-2.164 9.225-.121.11-.242.65-.269 1.2-.095 1.978-1.101 7.2-1.385 7.2-.16 0-.198.357-.083.794.114.437.07 1.112-.097 1.5-.168.388-.266 1.108-.218 1.599.048.492-.045 1.108-.207 1.37-.162.261-.336.939-.387 1.506-.089.98-.4 3.617-.736 6.231-.751 5.85-.98 17.549-.5 25.6.338 5.675.435 6.813.89 10.4l.406 3.2c.083.66.338 2.1.566 3.2.228 1.1.384 2.27.346 2.6-.038.33.068.915.235 1.3.168.385.205.958.084 1.274-.121.316-.095.631.057.7.153.069.701 2.196 1.217 4.726.831 4.067 4.038 15.996 4.732 17.6.143.33.278.69.301.8.022.11.158.384.301.608.638.998 3.07 7.961 2.885 8.26-.113.182-.048.332.145.332.192 0 .772 1.035 1.287 2.3 16.986 41.672 54.921 76.326 101.042 92.303 2.709.939 4.8 1.846 4.647 2.016-.154.17-.064.186.198.036.468-.269 7.331 1.252 7.723 1.711.11.129.47.234.8.234 1.36 0 9.2 1.597 9.2 1.875 0 .165.25.204.556.086.306-.117 1.521-.019 2.7.218 1.179.237 2.684.501 3.344.586 6.345.813 6.892.87 12.6 1.293 8.934.664 22.346.278 30.8-.885.99-.137 2.34-.319 3-.405.66-.087 2.165-.352 3.344-.589 1.179-.237 2.394-.335 2.7-.218.306.118.556.072.556-.102 0-.304 5.139-1.31 7.2-1.41.55-.027 1.09-.154 1.2-.283.335-.392 8.823-2.399 9.19-2.172.188.116.402.065.476-.112.179-.431 9.532-3.732 9.54-3.367.003.157.138.087.3-.156.279-.419 4.248-1.941 5.094-1.953.22-.003.49-.119.6-.258.11-.139 1.91-.982 4-1.875 14.876-6.352 33.423-18.444 44.949-29.306 1.731-1.632 3.301-3.025 3.488-3.097 3.081-1.174 22.075-25.098 28.078-35.365 2.53-4.328 7.611-14.243 9.114-17.786.914-2.155 1.823-3.979 2.019-4.053.196-.074.273-.271.169-.438-.216-.351 1.252-4.384 1.867-5.128.228-.275.303-.5.168-.5-.135 0 .221-1.215.791-2.7.57-1.485 1.313-3.645 1.652-4.8.339-1.155.782-2.1.984-2.1.203 0 .264-.169.136-.376-.293-.474 1.801-8.976 2.255-9.158.184-.074.237-.293.117-.486-.2-.325.794-6.209 1.281-7.58.118-.33.289-1.5.38-2.6.092-1.1.282-2.36.423-2.8.14-.44.299-1.25.352-1.8.087-.907.285-2.398.769-5.8 1.067-7.484 1.068-26.361.002-34-.092-.66-.282-2.1-.422-3.2-.139-1.1-.34-2.63-.447-3.4-.106-.77-.246-1.85-.311-2.4-.065-.55-.211-1.27-.324-1.6-.478-1.393-2.239-11.759-2.05-12.065.114-.184-.004-.335-.263-.335-.27 0-.383-.333-.266-.781.112-.429.08-.834-.071-.9-.392-.17-2.085-6.723-1.839-7.121.112-.181.065-.39-.106-.464-.17-.074-1.19-2.564-2.266-5.534-11.767-32.483-30.091-57.765-56.775-78.336-9.717-7.492-29.535-19.026-36.154-21.044-.495-.15-.9-.422-.9-.603 0-.18-.225-.303-.5-.273-.676.076-8.067-2.619-8.226-2.998-.069-.166-.384-.202-.7-.081-.316.121-.574.011-.574-.246 0-.256-.165-.364-.366-.24-.202.125-.877.016-1.5-.243-.624-.258-1.224-.5-1.334-.537-.11-.037-.47-.182-.8-.322-1.386-.586-9.334-2.629-13.6-3.497-2.53-.514-4.649-1.048-4.71-1.187-.06-.138-.645-.173-1.3-.077-.654.096-1.192.019-1.193-.171-.002-.19-1.102-.392-2.445-.449-1.343-.057-2.647-.231-2.897-.385-.25-.155-.932-.231-1.515-.17-.583.061-1.181-.084-1.328-.322-.147-.237-.429-.332-.627-.21-.198.122-2.12.027-4.272-.212s-5.353-.487-7.113-.551c-1.76-.063-5.27-.226-7.8-.361-2.53-.135-5.5-.074-6.6.135m-6.824 58.842c2.262 1.03 2.413 1.727 2.55 11.738l.125 9.2h19.548v-9.34l.001-9.34 1.36-1.36c1.808-1.808 3.848-1.879 5.855-.204l1.385 1.155.2 10.273.2 10.273 4 1.301c22.177 7.211 37.395 25.662 37.399 45.342l.001 2.5h-11.157c-12.579 0-11.638.269-11.65-3.333-.025-7.428-4.036-15.937-9.802-20.795-2.506-2.112-7.516-5.072-8.584-5.072-.28 0-.379 9.285-.31 29.027l.103 29.026 4.154 1.568c20.804 7.85 33.223 19.957 36.701 35.779 5.524 25.126-10.826 47.607-38.555 53.016l-2.5.488v6.586c0 8.296-1.147 10.334-5.369 9.542-2.93-.549-3.431-1.842-3.431-8.842v-6.148l-5.9.073c-3.245.04-7.636-.075-9.757-.255l-3.858-.328-.142 6.408-.143 6.408-1.17 1.221c-1.499 1.564-3.52 1.98-5.208 1.071-2.254-1.214-2.404-1.773-2.622-9.784l-.2-7.343-5-1.758c-22.347-7.858-36.796-25.077-36.799-43.855l-.001-2.7h22.342l.239 2.3c1.233 11.858 6.834 20.159 17.103 25.342l2.316 1.17v-60.445l-2.5-1.124c-24.659-11.084-34.143-23.123-34.062-43.243.076-18.913 13.595-35.698 33.514-41.612l3.048-.905v-9.961c0-8.109.113-10.179.605-11.132 1.073-2.075 3.751-2.94 5.971-1.928m7.436 39.566c-2.084.195-4.019.443-4.3.551-.408.156-.512 5.339-.512 25.603v25.407l1.465.612c1.553.649 17.206 5.399 17.791 5.399.189 0 .344-12.856.344-28.568v-28.568l-1.1-.211c-2.287-.439-10.045-.566-13.688-.225m-17.223 5.474c-15.105 9.861-14.242 32.542 1.548 40.669 1.816.934 1.682 2.748 1.567-21.14L181 135.936l-3.011 1.966m12.411 98.253v29.755l3.9.467c2.145.257 6.51.412 9.7.345l5.8-.122.103-27.044.103-27.045-4.103-1.427c-5.156-1.792-14.445-4.684-15.048-4.684-.336 0-.455 7.798-.455 29.755m28.4 4.218c0 17.827.122 24.427.45 24.427 2.011 0 9.959-4.735 12.74-7.59 8.02-8.233 8.033-25.113.027-33.133-2.543-2.547-9.497-6.981-12.317-7.853l-.9-.278v24.427" fill="#64b4f4"/><path d="M204.9 33.876c.385.1 1.015.1 1.4 0 .385-.101.07-.183-.7-.183s-1.085.082-.7.183M274 50.984c0 .11.72.567 1.6 1.016.88.449 1.6.726 1.6.616 0-.11-.72-.567-1.6-1.016-.88-.449-1.6-.726-1.6-.616M107.6 61c-.344.415-.359.6-.049.6.247 0 .449-.167.449-.371s.315-.453.7-.553c.591-.155.598-.19.049-.23-.358-.025-.875.224-1.149.554m-9 6.45c-.719.612-.866.855-.367.607.733-.364 2.108-1.681 1.716-1.643-.082.008-.689.474-1.349 1.036m216.282 12.127c1.474 1.353 4.24 4.117 6.145 6.141 1.904 2.025 2.858 2.894 2.118 1.932-1.655-2.153-7.642-8.118-9.545-9.509-.77-.563-.193.083 1.282 1.436M80.93 82.809c-1.139 1.095-1.942 1.991-1.785 1.991.157 0 1.172-.9 2.255-2 2.544-2.582 2.217-2.576-.47.009M77.775 86.5L76.6 87.8l1.3-1.175c1.212-1.095 1.484-1.425 1.175-1.425-.069 0-.654.585-1.3 1.3m140.798 19.1c0 5.39.057 7.595.126 4.9.069-2.695.069-7.105 0-9.8-.069-2.695-.126-.49-.126 4.9m-22.873 8.276c.385.1 1.015.1 1.4 0 .385-.101.07-.183-.7-.183s-1.085.082-.7.183m9.6 0c.385.1 1.015.1 1.4 0 .385-.101.07-.183-.7-.183s-1.085.082-.7.183M50.2 125.6c-.341.66-.531 1.2-.421 1.2.11 0 .48-.54.821-1.2.341-.66.531-1.2.421-1.2-.11 0-.48.54-.821 1.2m168.467 9.467c-.371.37-.338 58.042.033 58.271.165.102.3-13.027.3-29.176s-.015-29.362-.033-29.362c-.019 0-.154.12-.3.267M229.2 141.4c.746.77 1.447 1.4 1.557 1.4.11 0-.411-.63-1.157-1.4-.746-.77-1.447-1.4-1.557-1.4-.11 0 .411.63 1.157 1.4m-47.819 23.8c0 8.03.053 11.315.118 7.3.066-4.015.066-10.585 0-14.6-.065-4.015-.118-.73-.118 7.3m78.733-4.2c.003 1.1.081 1.503.173.895.092-.609.09-1.509-.005-2-.095-.492-.171.005-.168 1.105m-78.724 72c0 16.72.05 23.502.11 15.07.06-8.431.06-22.111 0-30.4-.061-8.288-.11-1.39-.11 15.33M32.493 206.8c0 .77.082 1.085.183.7.1-.385.1-1.015 0-1.4-.101-.385-.183-.07-.183.7M250 212.125c0 .069.585.654 1.3 1.3l1.3 1.175-1.175-1.3c-1.095-1.212-1.425-1.484-1.425-1.175m-31.333 3.742c-.371.37-.338 48.842.033 49.071.165.102.3-10.957.3-24.576s-.015-24.762-.033-24.762c-.019 0-.154.12-.3.267M139.293 238.8c0 .77.082 1.085.183.7.1-.385.1-1.015 0-1.4-.101-.385-.183-.07-.183.7m121.2 4.4c0 .77.082 1.085.183.7.1-.385.1-1.015 0-1.4-.101-.385-.183-.07-.183.7M154 268.2c.746.77 1.447 1.4 1.557 1.4.11 0-.411-.63-1.157-1.4-.746-.77-1.447-1.4-1.557-1.4-.11 0 .411.63 1.157 1.4m50.705-1.117c.497.096 1.217.092 1.6-.008.382-.1-.025-.179-.905-.174-.88.004-1.193.086-.695.182m-23.34 22.117c0 3.85.06 5.425.133 3.5a111.9 111.9 0 0 0 0-7c-.073-1.925-.133-.35-.133 3.5m37.212-5.083c-.109.284-.148 3.299-.086 6.7l.112 6.183.198-6.701c.196-6.584.173-7.217-.224-6.182m-22.877.959c.385.1 1.015.1 1.4 0 .385-.101.07-.183-.7-.183s-1.085.082-.7.183m12.4 0c.385.1 1.015.1 1.4 0 .385-.101.07-.183-.7-.183s-1.085.082-.7.183M332.723 302.7c-.705.821-1.233 1.7-1.022 1.7.082 0 .548-.54 1.036-1.2.964-1.304.955-1.628-.014-.5m-8.142 9.8L323 314.2l1.7-1.581c1.581-1.471 1.884-1.819 1.581-1.819-.065 0-.83.765-1.7 1.7m-2.511 2.826c-.998 1.062-1.178 1.827-.248 1.056.607-.504 1.548-1.982 1.262-1.982-.08 0-.536.417-1.014.926m-244.53.334c.581.78 6.417 6.697 7.387 7.489 1.646 1.343.353-.078-3.602-3.956-2.351-2.306-4.054-3.896-3.785-3.533m240.235 4.04L316.6 321l1.3-1.175c.715-.646 1.3-1.231 1.3-1.3 0-.309-.33-.037-1.425 1.175m-3.653 3.724c-.817.746-.896.915-.289.622.83-.401 2.069-1.646 1.638-1.646-.124 0-.731.461-1.349 1.024m-3.141 2.676l-1.581 1.7 1.7-1.581c.935-.87 1.7-1.635 1.7-1.7 0-.303-.348 0-1.819 1.581m-9.259 7.729l-1.122 1.029 1.3-.904c.715-.497 1.3-.961 1.3-1.029 0-.316-.442-.045-1.478.904M136.8 356.231c0 .27 2.078 1.025 2.276.826.091-.09-.384-.356-1.056-.59-.671-.234-1.22-.34-1.22-.236m2.8 1.103c0 .103.581.39 1.291.638.71.247 1.115.285.9.084-.456-.427-2.191-.998-2.191-.722m22.4 6.777c.11.113.905.398 1.766.633s1.401.273 1.2.084c-.386-.362-3.31-1.069-2.966-.717" fill="#9accf9"/><path d="M191.105 33.883c.497.096 1.217.092 1.6-.008.382-.1-.025-.179-.905-.174-.88.004-1.193.086-.695.182m16.195-.007c.385.1 1.015.1 1.4 0 .385-.101.07-.183-.7-.183s-1.085.082-.7.183m-73.2 12.623c-1.088.349-1.826 1.101-1.08 1.101.37 0 2.58-1.208 2.58-1.41 0-.105-.045-.172-.1-.149-.055.022-.685.228-1.4.458m130.7.301c.776.501 1.2.501 1.2 0 0-.22-.405-.397-.9-.394-.728.005-.785.08-.3.394m-141.6 5c-.55.314-.82.572-.6.572.22 0 .85-.258 1.4-.572.55-.314.82-.572.6-.572-.22 0-.85.258-1.4.572m157.6 2.604c0 .188.405.466.9.616.495.151 1.257.568 1.693.927.742.611.759.609.258-.039-.639-.825-2.851-1.993-2.851-1.504m-164.638 1.254c-.758.854-.757.856.138.386.495-.26.9-.646.9-.858 0-.568-.191-.481-1.038.472m174.271 4.465c2.189 1.621 4.365 3.007 4.36 2.776-.008-.318-3.796-2.899-4.255-2.899-.149 0-.196.056-.105.123M106.7 61.357c-.385.292-.7.641-.7.775 0 .45 1.136-.188 1.357-.763.263-.686.232-.687-.657-.012m190.1 3.126c.267.322 4.839 3.666 5.6 4.095.863.488.107-.203-1.8-1.646-1.693-1.28-4.137-2.855-3.8-2.449m-202.176 5.73c-.622.47-.652.587-.149.587.345 0 .851-.27 1.125-.6.634-.763.039-.756-.976.013m211.008.873c-.018.267.324.676.759.909.645.345.748.311.558-.183-.128-.334-.379-.517-.557-.407-.178.11-.415-.026-.526-.303-.152-.376-.211-.38-.234-.016m5.676 5.165c.124.201 1.096.979 2.159 1.727 1.483 1.045 1.729 1.136 1.057.392-.889-.984-3.631-2.791-3.216-2.119M86.8 77.025c-.913.498-3.6 3.218-3.6 3.643 0 .098 1.08-.771 2.4-1.933 1.32-1.162 2.4-2.163 2.4-2.224 0-.141-.007-.138-1.2.514M77.548 85.9c-.994 1.091-2.489 3.3-2.234 3.3.074 0 .988-.99 2.033-2.2 1.905-2.207 2.08-3.163.201-1.1m244.792.816c.493.693 1.104 1.388 1.357 1.544.253.157.057-.283-.437-.976-.493-.693-1.104-1.388-1.357-1.544-.253-.157-.057.283.437.976m5.46 6.41c1.148 1.113 2.324 2.524 2.886 3.463.267.446.492.612.5.369.022-.679-2.652-4.021-3.466-4.332-.631-.241-.621-.179.08.5M70.461 94.225c-.267.586-.295.92-.066.778.587-.363 1.293-1.803.883-1.803-.192 0-.56.461-.817 1.025m-1.647 1.749c-.507.947-.53 1.345-.062 1.056.353-.218.903-1.83.625-1.83-.082 0-.335.348-.563.774m120.974 9.193c.01 7.98.101 9.391.612 9.53.436.119.466.069.108-.185-.359-.255-.525-2.834-.612-9.531l-.119-9.181.011 9.367m20.304-.095c-.092 8.85-.094 8.873-.992 9.046l-.9.173.913.055c1.299.077 1.316-.059 1.187-9.556l-.117-8.59-.091 8.872m122.272-6.339c.216.403.707.988 1.091 1.3.432.351.335.071-.254-.733-1.05-1.435-1.444-1.702-.837-.567m5.636 7.388c0 .171.63 1.246 1.4 2.389.77 1.144 1.4 1.94 1.4 1.769 0-.171-.63-1.246-1.4-2.389-.77-1.144-1.4-1.94-1.4-1.769m-139.495 7.766c.609.092 1.509.09 2-.005.492-.095-.005-.171-1.105-.168-1.1.003-1.503.081-.895.173m3.795-.005a5.661 5.661 0 0 0 1.8 0c.495-.095.09-.173-.9-.173s-1.395.078-.9.173m142.191 2.818c.338.385.742 1.119.898 1.63.156.512.368.846.471.743.334-.333-1.005-3.073-1.502-3.073-.326 0-.283.227.133.7M53.81 117.98c-.335.649-.596 1.414-.578 1.7.017.286.212.025.433-.58s.547-1.1.726-1.1c.178 0 .427-.27.554-.6.421-1.097-.515-.619-1.135.58m103.965 10.92l-1.175 1.3 1.3-1.175c.715-.646 1.3-1.231 1.3-1.3 0-.309-.33-.037-1.425 1.175m-110.943 3.039c-.237.445-.425 1.045-.416 1.335.009.289.293.015.631-.609.339-.625.526-1.225.417-1.335-.11-.109-.394.165-.632.609m150.275-.049c.719.089 1.799.087 2.4-.004s.013-.164-1.307-.162c-1.32.002-1.812.077-1.093.166m5.793-.003a8.899 8.899 0 0 0 2.2 0c.605-.092.11-.167-1.1-.167-1.21 0-1.705.075-1.1.167m149.967 1.333c.234.672.503 1.143.599 1.048.281-.281-.322-2.268-.689-2.268-.184 0-.144.549.09 1.22M210 161.48c-.11 16.104-.064 29.144.103 28.977.166-.166.256-13.342.2-29.28L210.2 132.2l-.2 29.28m-20.308-3.004c-.05 14.012.043 25.56.208 25.662.272.169.268-18.08-.009-41.938-.058-5.06-.148 2.264-.199 16.276m-42.027-15.459c-.67 1.471-.542 1.785.182.448.339-.625.541-1.211.449-1.302-.091-.092-.375.293-.631.854m19.228 12.583c0 .77.082 1.085.183.7.1-.385.1-1.015 0-1.4-.101-.385-.183-.07-.183.7m-22.4 3.6c0 .77.082 1.085.183.7.1-.385.1-1.015 0-1.4-.101-.385-.183-.07-.183.7m93.668 4l.039 1h10.995c10.7 0 10.996-.021 11.077-.8.064-.622.036-.644-.124-.1-.19.644-1.064.7-10.951.7h-10.744l-.165-.9c-.144-.783-.16-.77-.127.1M173 174c1.083 1.1 2.06 2 2.17 2 .11 0-.687-.9-1.77-2s-2.06-2-2.17-2c-.11 0 .687.9 1.77 2m-17.2 12.8c1.528 1.54 2.869 2.8 2.979 2.8.11 0-1.051-1.26-2.579-2.8-1.528-1.54-2.869-2.8-2.979-2.8-.11 0 1.051 1.26 2.579 2.8m211.093 4.8c0 .77.082 1.085.183.7.1-.385.1-1.015 0-1.4-.101-.385-.183-.07-.183.7M32.501 193c.004.88.086 1.193.182.695.096-.497.092-1.217-.008-1.6-.1-.382-.179.025-.174.905m157.283 13.1c-.105.275-.143 13.91-.085 30.3l.106 29.8.098-30.067c.076-23.605.204-30.11.597-30.268.392-.158.389-.209-.013-.233-.281-.018-.598.193-.703.468m-157.291 3.1c0 .77.082 1.085.183.7.1-.385.1-1.015 0-1.4-.101-.385-.183-.07-.183.7m334.4 1.2c0 .77.082 1.085.183.7.1-.385.1-1.015 0-1.4-.101-.385-.183-.07-.183.7m-156.704 29c0 15.18.05 21.332.111 13.671.061-7.661.061-20.081 0-27.6-.061-7.519-.111-1.251-.111 13.929m21.394-16.1c.981 1.045 1.836 1.9 1.9 1.9.301 0-.017-.359-1.783-2.017l-1.9-1.783 1.783 1.9m28.531 12.5c.003 1.1.081 1.503.173.895.092-.609.09-1.509-.005-2-.095-.492-.171.005-.168 1.105m-120.847.3l.067 1.7.157-1.494.157-1.493 10.876-.113 10.876-.113-11.1-.094-11.1-.093.067 1.7m22.026.3c0 .77.082 1.085.183.7.1-.385.1-1.015 0-1.4-.101-.385-.183-.07-.183.7m99.208 4.2c.004.88.086 1.193.182.695.096-.497.092-1.217-.008-1.6-.1-.382-.179.025-.174.905m-.4 4.8c.004.88.086 1.193.182.695.096-.497.092-1.217-.008-1.6-.1-.382-.179.025-.174.905m-220.999 4.4c.105.55.325 1 .489 1 .164 0 .212-.45.107-1s-.325-1-.489-1c-.164 0-.212.45-.107 1M176.8 261.379c0 .11.54.48 1.2.821.66.341 1.2.531 1.2.421 0-.11-.54-.48-1.2-.821-.66-.341-1.2-.531-1.2-.421m19.9 5.703a5.661 5.661 0 0 0 1.8 0c.495-.095.09-.173-.9-.173s-1.395.078-.9.173m10.6-.006c.385.1 1.015.1 1.4 0 .385-.101.07-.183-.7-.183s-1.085.082-.7.183m145.967.904c-.234.671-.274 1.22-.09 1.22.367 0 .97-1.987.689-2.268-.096-.095-.365.376-.599 1.048M46 267.805c0 .719.977 2.995 1.286 2.995.178 0 .047-.666-.293-1.479-.651-1.558-.993-2.08-.993-1.516m303.675 8.014c-1.205 2.481-1.07 2.828.171.442.555-1.067.941-2.008.857-2.091-.084-.084-.546.658-1.028 1.649m-2.725 5.239c-.335.802-.866 1.715-1.18 2.029-.313.314-.569.872-.569 1.242.001.417.302.179.796-.632.952-1.56 2.043-4.097 1.762-4.097-.11 0-.474.656-.809 1.458m-157.174 3.46c-.109.284-.143 3.209-.076 6.5l.123 5.982.089-6.272c.086-6.154.105-6.276.988-6.446l.9-.173-.913-.055c-.501-.029-1.001.179-1.111.464m-135.283.682c.275.44.642.8.817.8.175 0 .125-.36-.11-.8-.235-.44-.603-.8-.817-.8-.216 0-.167.357.11.8m145.624-.103c1.494.077 3.834.077 5.2-.001 1.365-.078.143-.141-2.717-.141-2.86.001-3.978.065-2.483.142m10.043 5.503c.001 3.3.062 4.597.138 2.882.075-1.715.074-4.415-.001-6-.076-1.585-.138-.182-.137 3.118M58.8 291.738c0 .459 2.581 4.247 2.899 4.255.231.005-1.155-2.171-2.776-4.36-.067-.091-.123-.044-.123.105m3.729 6.01c.342.522 1.193 1.557 1.891 2.3l1.269 1.352-1.098-1.7c-.603-.935-1.253-1.7-1.444-1.7-.191 0-.347-.27-.347-.6 0-.33-.201-.6-.446-.6-.279 0-.213.356.175.948m147.903-.518c-.018.347.463 1.067 1.068 1.6l1.1.97-.849-1c-.467-.55-.948-1.27-1.069-1.6-.187-.514-.223-.509-.25.03m125.86.612c-.161.16-.292.567-.292.905 0 .45.118.495.445.168.245-.245.376-.652.292-.905-.085-.253-.285-.329-.445-.168M66.399 302.7c.523.715 1.014 1.3 1.09 1.3.304 0-.688-1.5-1.344-2.033-.432-.351-.335-.071.254.733m262.872 4.535c-.29.464-.45.92-.356 1.014.278.277 1.173-.985 1.022-1.439-.077-.23-.377-.039-.666.425M70 307.6c.235.44.603.8.817.8.216 0 .167-.357-.11-.8-.275-.44-.642-.8-.817-.8-.175 0-.125.36.11.8m253.923 5.9c-1.074 1.25-1.398 1.999-.578 1.333.671-.545 1.645-2.033 1.331-2.033-.084 0-.423.315-.753.7m-248.425.3c.236.44.927 1.25 1.536 1.8l1.108 1-.852-1.236c-1.109-1.607-2.436-2.765-1.792-1.564m9.702 9.966c1.176 1.302 3.001 2.451 2.036 1.281-.311-.376-1.121-1.068-1.8-1.537l-1.236-.852 1 1.108m227.322 1.258c-.817.746-.896.915-.289.622.83-.401 2.069-1.646 1.638-1.646-.124 0-.731.461-1.349 1.024M92.4 329.983c0 .214.36.582.8.817.44.235.8.285.8.11s-.36-.542-.8-.817c-.443-.277-.8-.326-.8-.11m213.424.63c-.622.47-.652.587-.149.587.345 0 .851-.27 1.125-.6.634-.763.039-.756-.976.013m-204.855 5.919c.864.804 1.659 1.374 1.767 1.265.109-.108.122-.256.031-.328-.092-.073-.887-.642-1.767-1.266l-1.6-1.134 1.569 1.463m7.831 5.432c.55.45 1.18.819 1.4.821.428.003-.295-.551-1.6-1.225-.531-.275-.464-.139.2.404m180.2.836c-.66.437-1.02.792-.8.788.401-.006 2.576-1.565 2.2-1.576-.11-.004-.74.351-1.4.788m-4.371 2.629c-.424.309-.693.64-.599.734.094.094.518-.082.941-.392.424-.309.693-.64.599-.734-.094-.094-.518.082-.941.392m-168.629.98c0 .215.187.391.416.391.229 0 .947.392 1.595.872.649.479 1.285.765 1.414.636.13-.129-.138-.354-.595-.498-.456-.145-.83-.403-.83-.573 0-.17-.45-.514-1-.764-.608-.277-1-.303-1-.064m165.6.791c-.507.44-1.13.8-1.385.8-.254 0-.811.269-1.239.598-.684.527-.598.527.721-.004 2.114-.851 4.232-2.191 3.464-2.193-.351 0-1.054.359-1.561.799m-6.8 3.6c-.77.422-1.22.766-1 .766.22 0 1.03-.344 1.8-.766.77-.422 1.22-.766 1-.766-.22 0-1.03.344-1.8.766m-142.629 3.809c.424.32.869.485.988.365.251-.251-.765-.965-1.359-.955-.22.003-.053.269.371.59m133.967.164c-.694.423-1.369.662-1.5.531-.131-.13-.238-.027-.238.229 0 .556.657.621.981.098.125-.203.766-.488 1.424-.632.657-.144 1.195-.428 1.195-.631 0-.549-.462-.449-1.862.405M189.7 368.276c.385.1 1.015.1 1.4 0 .385-.101.07-.183-.7-.183s-1.085.082-.7.183m18.8 0c.385.1 1.015.1 1.4 0 .385-.101.07-.183-.7-.183s-1.085.082-.7.183" fill="#bfe0fc"/><path d="M190.307 34.29c.719.089 1.799.087 2.4-.004s.013-.164-1.307-.162c-1.32.002-1.812.077-1.093.166m16.8 0c.719.089 1.799.087 2.4-.004s.013-.164-1.307-.162c-1.32.002-1.812.077-1.093.166m-23.202.393c.497.096 1.217.092 1.6-.008.382-.1-.025-.179-.905-.174-.88.004-1.193.086-.695.182m30.4 0c.497.096 1.217.092 1.6-.008.382-.1-.025-.179-.905-.174-.88.004-1.193.086-.695.182m3.095.117c.44.189 1.16.338 1.6.332.643-.009.604-.075-.2-.332-1.368-.438-2.419-.438-1.4 0m-71.072 7.531c-1.029.368-2.005.805-2.169.971-.248.253 2.407-.554 4.641-1.409 1.53-.586-.725-.186-2.472.438m104.872-.5c0 .27 2.078 1.025 2.276.826.091-.09-.384-.356-1.056-.59-.671-.234-1.22-.34-1.22-.236m58 32.694c0 .069.585.654 1.3 1.3L311.8 77l-1.175-1.3c-1.095-1.212-1.425-1.484-1.425-1.175m5.2 4.8c0 .069.585.654 1.3 1.3L317 81.8l-1.175-1.3c-1.095-1.212-1.425-1.484-1.425-1.175M81.588 82.7L79 85.4l2.7-2.588c1.485-1.424 2.7-2.639 2.7-2.7 0-.295-.407.08-2.812 2.588M319.2 84.2c1.195 1.21 2.263 2.2 2.373 2.2.11 0-.778-.99-1.973-2.2-1.195-1.21-2.263-2.2-2.373-2.2-.11 0 .778.99 1.973 2.2M74.575 90.1L73.4 91.4l1.3-1.175c1.212-1.095 1.484-1.425 1.175-1.425-.069 0-.654.585-1.3 1.3M324 89.325c0 .069.585.654 1.3 1.3l1.3 1.175-1.175-1.3C324.33 89.288 324 89.016 324 89.325M181.374 105.6c0 5.61.056 7.905.125 5.1a251.33 251.33 0 0 0 0-10.2c-.069-2.805-.125-.51-.125 5.1m8.718-.3c-.085 8.437-.041 9.1.608 9.094.49-.004.552-.1.208-.319-.359-.228-.523-2.689-.608-9.094l-.116-8.781-.092 9.1m-130.805 4.8c-1.46 2.156-1.775 2.7-1.567 2.7.092 0 .824-.99 1.627-2.2.804-1.21 1.378-2.2 1.276-2.2-.101 0-.703.765-1.336 1.7M196.9 132.276c.385.1 1.015.1 1.4 0 .385-.101.07-.183-.7-.183s-1.085.082-.7.183m6.8 0c.385.1 1.015.1 1.4 0 .385-.101.07-.183-.7-.183s-1.085.082-.7.183m-13.516 1.024c-.105.275-.145 11.84-.088 25.7l.104 25.2.2-25.7c.11-14.135.149-25.7.087-25.7-.061 0-.198.225-.303.5m-8.817 10.1c0 4.18.059 5.836.131 3.679.073-2.156.072-5.576 0-7.6-.073-2.023-.132-.259-.131 3.921m175.1-.58c.234.672.5 1.147.59 1.056.199-.198-.556-2.276-.826-2.276-.104 0 .002.549.236 1.22m-314.488 2.235c-.221.581-.327 1.13-.236 1.221.09.091.356-.384.59-1.056.52-1.492.206-1.638-.354-.165M237.724 161.4c.002 1.32.077 1.812.166 1.093.089-.719.087-1.799-.004-2.4s-.164-.013-.162 1.307M155.4 186.8c1.306 1.32 2.465 2.4 2.575 2.4.11 0-.869-1.08-2.175-2.4-1.306-1.32-2.465-2.4-2.575-2.4-.11 0 .869 1.08 2.175 2.4m34.693 49.3c.052 16.555.141 25.24.2 19.3.276-28.154.279-49.4.007-49.4-.165 0-.258 13.545-.207 30.1m174.8-8.9c0 .77.082 1.085.183.7.1-.385.1-1.015 0-1.4-.101-.385-.183-.07-.183.7M161.709 238c0 .99.078 1.395.173.9a5.661 5.661 0 0 0 0-1.8c-.095-.495-.173-.09-.173.9m76.422 3c.002 1.54.074 2.121.161 1.291.087-.83.085-2.09-.003-2.8-.089-.71-.16-.031-.158 1.509m119.513 15.044c-.246.707-.378 1.356-.292 1.441.086.086.357-.423.604-1.129.246-.707.378-1.356.292-1.441-.086-.086-.357.423-.604 1.129M42.218 257.7c.15.495.437 1.076.638 1.291.201.215.163-.19-.084-.9-.507-1.453-.975-1.783-.554-.391m159.687 9.383c.497.096 1.217.092 1.6-.008.382-.1-.025-.179-.905-.174-.88.004-1.193.086-.695.182M349.2 276c-.449.88-.726 1.6-.616 1.6.11 0 .567-.72 1.016-1.6.449-.88.726-1.6.616-1.6-.11 0-.567.72-1.016 1.6m-159.112 14.3l.088 5.9.123-5.673c.107-4.97.208-5.695.812-5.853.505-.133.449-.194-.211-.228-.899-.046-.9-.036-.812 5.854m11.012-4.811c.715.089 1.885.089 2.6 0 .715-.088.13-.161-1.3-.161-1.43 0-2.015.073-1.3.161M340.646 291c-.355.55-.937 1.495-1.293 2.1l-.648 1.1.805-.974c.95-1.15 2.211-3.226 1.959-3.226-.098 0-.468.45-.823 1M321.6 315.4c-.746.77-1.187 1.387-.978 1.371.36-.027 2.832-2.771 2.496-2.771-.089 0-.772.63-1.518 1.4m-243.271.726c.707.73 1.147 1.479.978 1.664-.169.186-.066.199.228.029.481-.278-1.6-3.019-2.292-3.019-.11 0 .379.597 1.086 1.326m5.654 5.574c.981 1.045 1.836 1.9 1.9 1.9.301 0-.017-.359-1.783-2.017l-1.9-1.783 1.783 1.9m229.995 1.364l-1.378 1.464 1.5-1.164c.825-.64 1.5-1.299 1.5-1.464 0-.495-.183-.364-1.622 1.164m-22.985 17.992c-2.041 1.353-2.761 2.067-1.167 1.158 1.404-.8 3.275-2.192 2.967-2.205-.114-.005-.924.466-1.8 1.047m-16.693 9.573c-1.495.811-1.404 1.149.1.371.66-.341 1.2-.706 1.2-.81 0-.258-.043-.243-1.3.439M254.4 359c-.77.297-1.13.545-.8.552.33.006 1.14-.235 1.8-.538 1.545-.707.826-.717-1-.014" fill="#83c4f4"/></g></svg>