<svg xmlns="http://www.w3.org/2000/svg" width="533.267" height="533.267" viewBox="0 0 400 400"><path stroke="#000" d="M22.7 280C13.94 260.6 6.03 232.33 6 211v-25c.16-13.69 4.99-34.91 9.33-48C34.76 79.5 79.43 34.19 138 14.67c14.71-4.91 34.51-9.65 50-9.67h24c23.99.04 57.93 10.6 79 21.88 10.24 5.49 19.88 12.14 29 19.33 9.78 7.71 16.1 13.26 24.27 22.79 3.3 3.84 6.87 6.87 7.73 12 6.72 3.7 15.09 18.91 18.74 26 2.17 4.2 3.73 6.17 3.26 11 4.16 2.47 4.13 4.75 5.86 9 2.71 6.7 6.19 16.98 7.53 24l3.17 14c4.4 27.1 3.62 55.93-3.55 82.41l-1.92 8.59-6.19 17c-1.3 3.23-2.32 7.94-5.9 9 .18 3.26.49 5.05-3 6 .04 7.02-6.61 15.28-10.5 21-12.33 18.15-27.31 33.02-44.5 46.55-2.96 2.33-16.92 11.45-20 12.37-1.75.38-2.33.17-4 0-.86 3.79-2.7 4.2-6 5.82-5.14 2.54-13.39 6.94-19 6.26-3.5 4.66-19.93 7.99-26 9.08-10.31 1.86-17.07 3.9-28 3.92-16.12.03-32.21.95-48-2.77l-19-4.4c-3.4-1.06-5.71-.93-8-3.83-3.3.44-3.98.8-6-2-6.82.38-14.91-4.65-21-7.63-21.8-10.67-36.08-23.4-52.99-40.38C51.93 326.88 40.73 315.02 40 308c-6.84-4.36-13.86-20.36-17.3-28zM208 12.87h-19l-20 2.85L153 18l2 1-10.72 1.46L134 23l1 2-3-1c-2.66 2.41-3.38 2.95-7 3-3.07 2.77-4.84 3.77-9 4v2l-2-1-5 3c-3.03 3.23-10.64 8.33-15 9L68.17 66.58 49 87c-.51 2.49-.56 2.42-3 3-.15 3.43-.53 5-4 6l1 3-7 8-8.14 18.17L26 126c.17 7.62-6.55 21.07-8.32 29.83L13.67 182 13 201l1.15 12v12l1.81 7c3.5 18.68 7.28 28.6 14.78 46L41 299l9.45 12L74 336.83l25 18.83 14 9.34c4.16.23 16.96 6.1 20 9 5.3.19 8.49.86 12 5 5.49-1.82 10.64.76 16 1.88l19 3.12h-2v1h23l13-.84h6l-3-1.16 20-2.12 16-2.88c3.01-2.77 14.96-6.81 19-7l16-10 2 2 1-1-1-2 7-2 24-19.05c2.87-2.53 6.13-4.14 7-7.95h5l.61-3.72L349 310c1.01-4.55 7.41-12.96 11-16 .26-3.76 1.24-4.57 4-7 .21-4.64 5.95-16.55 9-20-.09-6.45 4.79-16.25 6.39-22.72 1.75-7.05.09-12.72 5.61-18.28-2.57-7.03-1.03-7.76-1-15v-41c-2.62-1.13-2.68-4.37-3.2-7l-1.32-9.8c-1.23-5.44-3.7-8.04-3.48-14.2l-3-8-6.26-12.01L360 104l-8.61-11.58L342 78l-15-13.97-22-17.83L291 36c-3.76-.26-4.57-1.24-7-4-4.47-.19-5.83-.85-9-4-3.65-.02-10.66-3.5-14.95-4.89-9.41-3.04-30.85-9.43-40.05-8.11l1-2.13h-13zM141 15l1 1v-1h-1zm124 8l1 1v-1h-1zm18 1l1 1v-1h-1zm-2 4l1 1v-1h-1zm-180 6l1 1v-1h-1zm200 0l1 1v-1h-1zm-6 1l1 1v-1h-1zM87.56 85.74c3.69-1.49 13.92.58 16.84-2.34 4.27-4.26-2.16-11.11 5.65-16.88C122.43 57.37 143 48.68 158 44.97l9-2.5 33-3.15 32 3.36c37.82 8.56 71.83 30.23 95.11 61.32 15.15 20.24 23.59 42.4 28.2 67 1.47 7.85 2.68 11.66 2.69 20v16c-.01 8.79-.94 9.86-2.39 18l-1.28 9c-3.23 15.13-11.03 33.72-18.93 47-25.39 42.67-71.74 72.46-121.4 76.09l-10 .91c-33.12.38-65.16-7.32-93-25.89-33.7-22.49-58.46-57.44-67.34-97.11-4.18-18.7-3.69-27.44-3.66-46 .02-12.42 5.62-36.45 10.44-48 2.13-5.13 3.16-9.42 6.56-14l-1 8 31 1v-30H70c2.69-5.09 12.43-18.19 17.56-20.26zM98 41l1 1v-1h-1zm-8 1l1 1v-1h-1zm-1 5l1 1v-1h-1zm-13 4l1 1v-1h-1zm245 4l1 1v-1h-1zm11 3l1 1v-1h-1zM72 59l1 1v-1h-1zm255 4l1 1v-1h-1zM88.6 67.02C90.49 65.52 98.34 66 101 66v14H87c0-2.94-.73-11.13 1.6-12.98zM109 71l1 1v-1h-1zM50 85l1 1v-1h-1zm20 0v8h-8v-8h8zm278 2l1 1v-1h-1zm8 1l1 1v-1h-1zm-206 13c-.14-7.49-2.26-6.99-9-7H97v42c-.03 2.64-1.44 9.23.59 10.79 1.64 1.26 11.86 1.21 14.41 1.21 12.65.02 25.45.66 38-1v-46zm101.74 59.01c1.84 1.49 9.66.99 12.26.99h31c8.66-.05 8.99-.68 9-9v-51c-.14-7.49-2.26-6.99-9-7H161l-1 39c0 3.07-.68 11.28 1.6 13.31 1.75 1.56 8.77.69 11.4.69h50c7.76 0 20.96-.71 28 1-.85 2.98-2.08 9.73.74 12.01zM355 97l1 1v-1h-1zm6 1l1 1v-1h-1zm-4 1l1 1v-1h-1zm-318 2l1 1v-1h-1zm23.99 10.74C65.19 109.02 79.17 110 83 110v21H62c0-3.37-.67-17.21.99-19.26zM31 112l1 1v-1h-1zm347 20l1 1v-1h-1zm-324 1l1 1v-1h-1zm-31 1l1 1v-1h-1zm352 2l1 1v-1h-1zm8 13l1 1v-1h-1zm-234.02 10.6c-1.57-1.98-5.68-1.6-7.98-1.6h-36c-12.69.09-8.02 6.32-8 21v32c0 2.66-.48 10.51 1.02 12.4 1.57 1.98 5.68 1.6 7.98 1.6h145c-1.54 5.41-1.54 16.59 0 22-6.96 1.69-19.39 1-27 1H115c-16.9 0-18.37-1.32-18 6v36c-.03 2.1-.86 7.98 0 9.4 1.46 1.98 5.86 1.6 8 1.55h179c2.7.05 16.29.61 17.69 0 2.77-1.64 2.3-6.26 2.31-8.95V180c0-1.94.25-5.72-.99-7.26-1.71-2.12-6.51-1.74-9.01-1.74H150c0-2.54.44-9.55-1.02-11.4zM48 167l1 1v-1h-1zm337 76l1 1v-1h-1zM18 266l1 1v-1h-1zm2 4l1 1v-1h-1zm356 5l1 1v-1h-1zm-15 18l1 1v-1h-1zm-325 1l1 1v-1h-1zm320 4l1 1v-1h-1zm-314 3l1 1v-1h-1zm1 1l1 1v-1h-1zm-2 1l1 1v-1h-1zm-2 3l1 1v-1h-1zm6 2l1 1v-1h-1zm308 2l1 1v-1h-1zm-13 14l1 1v-1h-1zm5 0l1 1v-1h-1zm-3 4l1 1v-1h-1zm-2 2l1 1v-1h-1zm-16 6l1 1v-1h-1zm-252 6l1 1v-1h-1zm5 1l1 1v-1h-1zm10 5l1 1v-1h-1zm7 5l1 1v-1h-1zm3 2l1 1v-1h-1zm-4 3l1 1v-1h-1zm21 7l1 1v-1h-1zm175 1l1 1v-1h-1zm1 3l1 1v-1h-1zm-161 5l1 1v-1h-1zm137 0l1 1v-1h-1zm-132 1l1 1v-1h-1zm122 1l1 1v-1h-1zm-15 4l1 1v-1h-1zm-75 9l1 1v-1h-1zm4 1l1 1v-1h-1z"/></svg>